<svg width="369" height="133" viewBox="0 0 369 133" fill="none" xmlns="http://www.w3.org/2000/svg">
<path d="M8.70144 28.6144H42.0395C50.0071 28.6144 57.0311 30.152 63.1116 33.2272C69.2621 36.2325 74.0146 40.4959 77.3694 46.0173C80.7941 51.5386 82.5064 57.9686 82.5064 65.3072C82.5064 72.6458 80.7941 79.0757 77.3694 84.5971C74.0146 90.1185 69.2621 94.4168 63.1116 97.492C57.0311 100.497 50.0071 102 42.0395 102H8.70144V28.6144ZM41.2008 88.0567C48.5393 88.0567 54.3753 86.0299 58.7085 81.9762C63.1116 77.8526 65.3132 72.2963 65.3132 65.3072C65.3132 58.3181 63.1116 52.7967 58.7085 48.743C54.3753 44.6194 48.5393 42.5576 41.2008 42.5576H25.685V88.0567H41.2008Z" fill="url(#paint0_linear)"/>
<path d="M93.9516 28.6144H114.709V85.5407H149.725V102H93.9516V28.6144ZM185.306 102.944C179.226 102.944 173.739 101.685 168.847 99.1694C163.954 96.6533 160.11 93.1588 157.315 88.6858C154.589 84.2127 153.226 79.1456 153.226 73.4844C153.226 67.8932 154.589 62.861 157.315 58.388C160.11 53.9149 163.919 50.4553 168.742 48.0091C173.634 45.4931 179.156 44.235 185.306 44.235C191.456 44.235 196.978 45.4931 201.87 48.0091C206.763 50.4553 210.572 53.9149 213.297 58.388C216.023 62.7911 217.386 67.8233 217.386 73.4844C217.386 79.1456 216.023 84.2127 213.297 88.6858C210.572 93.1588 206.763 96.6533 201.87 99.1694C196.978 101.685 191.456 102.944 185.306 102.944ZM185.306 87.1132C188.801 87.1132 191.666 85.9251 193.903 83.5488C196.139 81.1026 197.257 77.7478 197.257 73.4844C197.257 69.291 196.139 66.0061 193.903 63.6298C191.666 61.2535 188.801 60.0654 185.306 60.0654C181.812 60.0654 178.946 61.2535 176.709 63.6298C174.473 66.0061 173.355 69.291 173.355 73.4844C173.355 77.7478 174.473 81.1026 176.709 83.5488C178.946 85.9251 181.812 87.1132 185.306 87.1132ZM249.602 44.235C259.037 44.235 266.236 46.4017 271.198 50.7349C276.161 54.9983 278.642 61.568 278.642 70.4442V102H260.086V94.6614C257.22 100.183 251.629 102.944 243.312 102.944C238.909 102.944 235.1 102.175 231.885 100.637C228.67 99.0995 226.223 97.0377 224.546 94.4518C222.939 91.7959 222.135 88.7906 222.135 85.4358C222.135 80.0542 224.197 75.8957 228.32 72.9603C232.444 69.9549 238.804 68.4523 247.4 68.4523H258.723C258.373 62.4417 254.355 59.4363 246.667 59.4363C243.941 59.4363 241.18 59.8906 238.385 60.7992C235.589 61.6379 233.213 62.8261 231.256 64.3637L224.546 50.8397C227.691 48.743 231.5 47.1355 235.973 46.0173C240.516 44.8291 245.059 44.235 249.602 44.235ZM248.868 90.3631C251.175 90.3631 253.201 89.804 254.949 88.6858C256.696 87.5675 257.954 85.9251 258.723 83.7584V78.8311H250.126C244.325 78.8311 241.425 80.7531 241.425 84.5971C241.425 86.3444 242.089 87.7422 243.417 88.7906C244.745 89.839 246.562 90.3631 248.868 90.3631ZM352.42 24.2112V102H333.444V96.3388C329.74 100.742 324.184 102.944 316.775 102.944C311.603 102.944 306.886 101.755 302.622 99.3791C298.359 96.9329 294.969 93.4733 292.453 89.0003C290.007 84.5272 288.784 79.3553 288.784 73.4844C288.784 67.6136 290.007 62.4766 292.453 58.0735C294.969 53.6004 298.359 50.1758 302.622 47.7995C306.886 45.4232 311.603 44.235 316.775 44.235C323.555 44.235 328.797 46.192 332.501 50.1059V24.2112H352.42ZM320.969 87.1132C324.393 87.1132 327.224 85.9251 329.46 83.5488C331.697 81.1026 332.815 77.7478 332.815 73.4844C332.815 69.291 331.697 66.0061 329.46 63.6298C327.294 61.2535 324.463 60.0654 320.969 60.0654C317.474 60.0654 314.609 61.2535 312.372 63.6298C310.136 66.0061 309.017 69.291 309.017 73.4844C309.017 77.7478 310.136 81.1026 312.372 83.5488C314.609 85.9251 317.474 87.1132 320.969 87.1132Z" fill="#111111"/>
<path d="M162.656 39.4847C162.656 38.3554 163.274 37.313 164.277 36.7926C179.523 28.8766 188.918 28.8358 204.818 36.8259C205.813 37.3257 206.43 38.3496 206.43 39.4627C206.43 41.7599 203.94 43.2012 201.887 42.1719C189.327 35.8769 180.485 35.9738 167.24 42.2926C165.142 43.2937 162.656 41.8095 162.656 39.4847Z" fill="url(#paint1_linear)"/>
<path d="M158.193 28.8129C158.193 27.5374 158.926 26.3714 160.085 25.8393C178.235 17.5066 189.404 17.4631 208.333 25.873C209.483 26.3842 210.215 27.5317 210.215 28.7908C210.215 31.1981 207.665 32.7564 205.471 31.7649C189.982 24.7638 179.317 24.8683 162.97 31.884C160.735 32.8428 158.193 31.2441 158.193 28.8129Z" fill="url(#paint2_linear)"/>
<path d="M155 17.9999C155 16.6754 155.805 15.4808 157.041 15.0036C177.72 7.01521 190.401 6.97248 211.966 15.0334C213.193 15.492 214 16.6707 214 17.9806C214 20.2553 211.671 21.7887 209.551 20.9645C191.174 13.8203 178.877 13.9227 159.466 21.0666C157.315 21.8581 155 20.2916 155 17.9999Z" fill="url(#paint3_linear)"/>
<defs>
<linearGradient id="paint0_linear" x1="184.5" y1="0" x2="184.5" y2="109" gradientUnits="userSpaceOnUse">
<stop stop-color="#FF4444"/>
<stop offset="0.5" stop-color="#FD772B"/>
<stop offset="1" stop-color="#FAA913"/>
</linearGradient>
<linearGradient id="paint1_linear" x1="184.5" y1="9" x2="184.5" y2="42.61" gradientUnits="userSpaceOnUse">
<stop stop-color="#FF4444"/>
<stop offset="0.5" stop-color="#FD772B"/>
<stop offset="1" stop-color="#FAA913"/>
</linearGradient>
<linearGradient id="paint2_linear" x1="184.5" y1="9" x2="184.5" y2="42.61" gradientUnits="userSpaceOnUse">
<stop stop-color="#FF4444"/>
<stop offset="0.5" stop-color="#FD772B"/>
<stop offset="1" stop-color="#FAA913"/>
</linearGradient>
<linearGradient id="paint3_linear" x1="184.5" y1="9" x2="184.5" y2="42.61" gradientUnits="userSpaceOnUse">
<stop stop-color="#FF4444"/>
<stop offset="0.5" stop-color="#FD772B"/>
<stop offset="1" stop-color="#FAA913"/>
</linearGradient>
</defs>
</svg>
