<svg width="116" height="154" viewBox="0 0 116 154" fill="none" xmlns="http://www.w3.org/2000/svg">
<path d="M8.70144 49.6144H42.0395C50.0071 49.6144 57.0311 51.152 63.1116 54.2272C69.2621 57.2325 74.0146 61.4959 77.3694 67.0173C80.7941 72.5386 82.5064 78.9686 82.5064 86.3072C82.5064 93.6458 80.7941 100.076 77.3694 105.597C74.0146 111.119 69.2621 115.417 63.1116 118.492C57.0311 121.497 50.0071 123 42.0395 123H8.70144V49.6144ZM41.2008 109.057C48.5393 109.057 54.3753 107.03 58.7085 102.976C63.1116 98.8526 65.3132 93.2963 65.3132 86.3072C65.3132 79.3181 63.1116 73.7967 58.7085 69.743C54.3753 65.6194 48.5393 63.5576 41.2008 63.5576H25.685V109.057H41.2008Z" fill="url(#paint0_linear)"/>
<path d="M43.9721 35.8808C44.6601 34.7244 45.9287 34.0338 47.272 34.1115C67.7075 35.2944 77.3523 40.9759 88.7665 58.845C89.4804 59.9627 89.4889 61.3873 88.8107 62.5271C87.4112 64.8795 83.9838 64.8386 82.5079 62.5334C73.482 48.4356 64.3685 43.1478 46.9558 41.549C44.1972 41.2957 42.5558 38.2614 43.9721 35.8808Z" fill="url(#paint1_linear)"/>
<path d="M45.9043 22.2341C46.6814 20.928 48.1414 20.1801 49.6527 20.3414C73.3155 22.8667 84.7791 29.6266 99.0383 49.7703C99.9051 50.9948 99.9553 52.6156 99.1883 53.9049C97.7216 56.3701 94.1613 56.4124 92.519 54.0606C80.923 37.4547 69.9381 31.064 48.9241 28.2888C46.0521 27.9095 44.4231 24.7237 45.9043 22.2341Z" fill="url(#paint2_linear)"/>
<path d="M49.2218 9.21599C50.0288 7.85965 51.5814 7.12717 53.1374 7.39116C79.1798 11.8095 92.1914 19.4915 109.363 40.8843C110.34 42.1015 110.448 43.7998 109.65 45.1412C108.264 47.4705 104.945 47.6219 103.277 45.4862C88.8108 26.9746 76.1563 19.5877 51.9268 15.0772C49.2424 14.5775 47.8257 11.5627 49.2218 9.21599Z" fill="url(#paint3_linear)"/>
<defs>
<linearGradient id="paint0_linear" x1="46.5" y1="21" x2="46.5" y2="154" gradientUnits="userSpaceOnUse">
<stop stop-color="#FF4444"/>
<stop offset="0.5" stop-color="#FD772B"/>
<stop offset="1" stop-color="#FAA913"/>
</linearGradient>
<linearGradient id="paint1_linear" x1="71.6487" y1="40.3675" x2="63.2522" y2="54.4804" gradientUnits="userSpaceOnUse">
<stop stop-color="#FF4444"/>
<stop offset="0.5" stop-color="#FD772B"/>
<stop offset="1" stop-color="#FAA913"/>
</linearGradient>
<linearGradient id="paint2_linear" x1="78.1659" y1="28.6239" x2="69.3496" y2="43.4425" gradientUnits="userSpaceOnUse">
<stop stop-color="#FF4444"/>
<stop offset="0.5" stop-color="#FD772B"/>
<stop offset="1" stop-color="#FAA913"/>
</linearGradient>
<linearGradient id="paint3_linear" x1="84.9132" y1="17.9725" x2="76.5167" y2="32.0854" gradientUnits="userSpaceOnUse">
<stop stop-color="#FF4444"/>
<stop offset="0.5" stop-color="#FD772B"/>
<stop offset="1" stop-color="#FAA913"/>
</linearGradient>
</defs>
</svg>
