<svg width="624" height="496" viewBox="0 0 624 496" fill="none" xmlns="http://www.w3.org/2000/svg">
<g clip-path="url(#clip0)">
<path opacity="0.18" d="M105.316 481.508C82.6769 477.791 61.3652 468.345 43.4069 454.067C22.2855 437.436 -0.706902 415.026 -8.35303e-05 387.211C0.748312 357.732 11.7664 329.335 23.6991 302.767C39.8312 266.885 62.2831 229.05 56.3375 189.094C50.3919 149.138 58.3748 101.324 79.413 67.4794C112.675 14.1771 170.884 1.24643 229.092 -0.000893265C267.551 -0.790866 307.133 1.4959 342.183 17.3369C379.021 33.968 408.707 64.7353 446.127 78.9964C471.073 88.3929 498.348 90.2639 522.754 100.825C553.48 114.171 577.179 140.614 592.521 170.384C607.863 200.153 615.68 233.207 621.626 266.012C631.355 321.477 608.238 390.745 574.934 436.147C552.732 466.333 515.561 501.299 477.352 493.982C282.81 457.061 320.188 516.392 105.316 481.508Z" fill="#FD772B"/>
<path d="M367.961 88.3105L498.307 105.648L406.711 115.378L367.961 88.3105Z" fill="#FD772B"/>
<path d="M406.711 115.377L413.655 156.29L424.756 122.321L498.307 105.648L406.711 115.377Z" fill="#FD772B"/>
<path d="M406.711 115.377L413.655 156.29L424.756 122.321L498.307 105.648L406.711 115.377Z" fill="url(#paint0_linear)"/>
<path d="M452.488 159.782L424.756 122.321L498.307 105.648L452.488 159.782Z" fill="#FD772B"/>
<path d="M413.655 156.29L440.306 143.276L424.756 122.321L413.655 156.29Z" fill="white"/>
<path opacity="0.59" d="M413.655 156.29L440.306 143.276L424.756 122.321L413.655 156.29Z" fill="#FD772B"/>
<path d="M391.66 160.239L390.455 154.793C391.861 154.516 393.249 154.155 394.612 153.712L396.525 158.909C394.934 159.458 393.309 159.902 391.66 160.239Z" fill="#FD772B"/>
<path d="M222.772 413.738C219.737 412.74 216.785 411.742 213.916 410.661L215.829 405.464C218.615 406.503 221.525 407.501 224.477 408.457L222.772 413.738ZM196.579 403.385C193.668 401.971 190.841 400.516 188.263 399.227L190.882 394.196C193.419 395.61 196.121 397.023 198.948 398.354L196.579 403.385ZM421.097 399.975H411.742V394.404L420.931 394.654L421.097 399.975ZM439.807 399.643L439.516 394.113C442.634 394.113 445.711 393.739 448.663 393.448L449.12 398.978C446.21 399.269 443.092 399.477 439.89 399.643H439.807ZM393.157 398.354L383.885 397.398L384.509 391.868C387.586 392.242 390.621 392.533 393.656 392.824L393.157 398.354ZM467.997 396.358L467.04 390.912C470.076 390.371 473.111 389.747 475.98 389.082L477.227 394.487C474.109 395.36 470.99 395.984 467.83 396.525L467.997 396.358ZM495.313 389.041L493.359 383.885C496.269 382.762 499.055 381.598 501.674 380.351L504.086 385.34C501.134 386.837 498.182 388.084 495.147 389.207L495.313 389.041ZM172.63 388.292C170.14 386.28 167.78 384.114 165.562 381.806L169.719 377.981C171.782 380.125 173.976 382.139 176.289 384.01L172.63 388.292ZM520.384 375.403L516.975 370.996C518.43 369.873 519.844 368.668 521.133 367.42L523.503 365.092L527.369 369.042L524.792 371.495C523.503 372.992 521.798 374.322 520.218 375.569L520.384 375.403ZM154.502 365.923C153.087 362.995 151.973 359.93 151.176 356.776L156.581 355.571C157.199 358.437 158.134 361.226 159.367 363.886L154.502 365.923ZM258.03 364.593L249.091 360.934L251.336 355.862C254.122 357.067 256.949 358.273 259.652 359.437L258.03 364.593ZM540.009 354.656L535.477 351.455C537.18 349.037 538.722 346.509 540.092 343.887L544.998 346.424C543.459 349.338 541.723 352.144 539.801 354.822L540.009 354.656ZM232.335 353.076C229.508 351.704 226.722 350.29 224.02 348.918L226.514 344.303C229.217 345.717 231.961 347.13 234.83 348.461L232.335 353.076ZM207.513 340.145C204.811 338.565 202.108 336.944 199.531 335.281L202.483 330.583C205.019 332.204 207.68 333.826 210.341 335.406L207.513 340.145ZM156.373 338.524L150.926 337.484C151.568 334.315 152.457 331.201 153.587 328.171L158.785 330.084C157.801 332.765 157.022 335.517 156.456 338.316L156.373 338.524ZM550.528 328.213L544.998 327.631C545.157 326.25 545.24 324.862 545.248 323.473C545.243 322.083 545.159 320.695 544.998 319.315L550.528 318.733C550.694 320.349 550.777 321.973 550.778 323.598C550.789 325.068 550.733 326.539 550.611 328.005L550.528 328.213ZM184.022 324.803C181.486 322.932 178.95 321.061 176.538 319.149L179.948 314.783C182.317 316.654 184.771 318.484 187.265 320.313L184.022 324.803ZM167.183 314.118L162.568 311.041C164.314 308.505 166.227 305.969 168.264 303.432L172.422 306.925C170.634 309.295 168.805 311.748 167.183 314.118ZM162.36 306.883C160.032 304.721 157.787 302.476 155.666 300.273L159.824 296.406C161.903 298.568 163.982 300.564 166.31 302.85L162.36 306.883ZM539.843 302.435C538.452 299.834 536.882 297.333 535.144 294.951L539.635 291.666C541.523 294.321 543.231 297.099 544.749 299.982L539.843 302.435ZM185.02 293.703L181.236 289.546C183.482 287.467 185.852 285.388 188.305 283.309L191.839 287.467C189.469 289.629 187.182 291.666 185.02 293.703ZM143.442 285.72C141.53 283.143 139.7 280.523 138.079 277.904L142.777 274.952C144.316 277.447 146.062 279.941 147.891 282.394L143.442 285.72ZM523.045 281.563C520.925 279.609 518.596 277.654 516.143 275.742L519.553 271.584C522.131 273.58 524.542 275.742 526.787 277.696L523.045 281.563ZM206.391 276.573L203.356 272C205.892 270.254 208.553 268.507 211.172 266.803L214.166 271.501C211.671 273.122 208.886 274.827 206.391 276.573ZM501.134 265.306C498.598 263.726 495.937 262.188 493.234 260.691L495.937 255.826C498.722 257.365 501.467 258.986 504.044 260.566L501.134 265.306ZM229.841 262.229L227.221 257.365C229.924 255.868 232.751 254.413 235.537 253.207L238.031 258.196C235.287 259.277 232.46 260.732 229.841 262.188V262.229ZM129.389 261.148C128.225 258.155 127.186 255.078 126.354 252.084L131.718 250.629C132.508 253.415 133.464 256.284 134.545 258.945L129.389 261.148ZM476.894 252.458L468.579 248.758L470.741 243.644C473.61 244.891 476.52 246.139 479.306 247.428L476.894 252.458ZM254.662 250.338L252.5 245.224C255.328 244.018 258.28 242.812 261.148 241.69L263.186 246.845C260.358 247.802 257.406 249.007 254.662 250.213V250.338ZM451.366 242.022C448.497 241.025 445.586 240.027 442.634 239.07L444.339 233.79C447.333 234.746 450.326 235.786 453.195 236.784L451.366 242.022ZM280.482 240.359L278.736 235.079C281.729 234.123 284.723 233.166 287.716 232.293L289.296 237.615C286.511 238.613 283.392 239.528 280.482 240.359ZM424.964 233.749C422.012 233 418.977 232.252 416.025 231.587L417.272 226.181C420.266 226.847 423.342 227.595 426.378 228.385L424.964 233.749ZM123.568 232.959C123.568 231.462 123.568 230.007 123.568 228.551C123.568 227.096 123.568 225.142 123.568 223.479L129.098 223.728C129.098 225.308 129.098 226.888 129.098 228.551C129.098 230.214 129.098 231.337 129.098 232.709L123.568 232.959ZM307.05 232.959L305.803 227.886C308.838 227.179 311.915 226.514 314.95 225.89L316.031 231.337C313.037 231.711 310.002 232.376 307.05 233.042V232.959ZM398.022 228.136L394.612 227.886L389.041 227.221L389.623 221.691L395.402 222.398L398.936 222.938L398.022 228.136ZM334.159 228.136L333.41 222.647C336.528 222.232 339.647 221.899 342.724 221.608L343.264 227.096C340.229 227.346 337.194 227.886 334.159 228.094V228.136ZM361.558 225.974V220.444C364.677 220.444 367.795 220.444 370.913 220.444V226.015C367.67 225.849 364.593 225.89 361.558 225.932V225.974ZM131.427 205.975L126.022 204.769C126.687 201.651 127.56 198.574 128.516 195.58L133.796 197.327C132.851 200.164 132.059 203.051 131.427 205.975ZM141.073 181.028L136.291 178.243C137.901 175.495 139.65 172.83 141.53 170.26L146.02 173.544C144.206 175.929 142.526 178.414 140.989 180.987L141.073 181.028ZM372.493 161.778C369.302 161.617 366.123 161.269 362.972 160.738L363.887 155.25C366.832 155.747 369.802 156.08 372.784 156.248L372.493 161.778ZM158.036 160.198L154.294 156.04C156.623 153.961 159.076 151.882 161.653 149.97L164.98 154.419C162.568 156.29 160.198 158.202 158.036 160.198ZM344.719 155.333C341.775 154.108 338.902 152.72 336.113 151.176L338.774 146.311C341.396 147.734 344.088 149.024 346.84 150.178L344.719 155.333ZM180.28 144.731L177.661 139.825C180.405 138.411 183.274 136.998 185.976 135.667L188.221 140.74C185.644 142.07 182.858 143.401 180.28 144.731ZM320.313 140.573C317.942 138.952 315.422 137.56 312.788 136.416L315.116 131.385C318.032 132.747 320.815 134.375 323.432 136.249L320.313 140.573ZM205.518 134.503L203.896 129.181C206.848 128.308 209.925 127.476 213.002 126.686L214.291 132.091C211.339 132.798 208.387 133.63 205.518 134.503ZM295.741 130.636C292.914 129.971 289.92 129.389 286.843 128.89L287.716 123.443C290.918 123.942 294.036 124.566 297.03 125.273L295.741 130.636ZM232.46 128.641L231.67 123.152C234.747 122.737 237.907 122.362 241.025 122.071L241.524 127.601C238.281 128.1 235.246 128.1 232.46 128.641ZM268.923 127.019C265.93 127.019 262.853 126.77 259.776 126.77V121.24C262.936 121.24 266.096 121.24 269.173 121.489L268.923 127.019Z" fill="#FD772B"/>
<path d="M245.432 420.183L240.775 419.143L242.148 413.738C243.644 414.154 245.1 414.528 246.596 414.861L245.432 420.183Z" fill="#FD772B"/>
<path d="M303.641 197.785C303.513 199.659 303.077 201.499 302.352 203.231C301.719 204.195 300.88 205.004 299.894 205.602C298.909 206.199 297.802 206.568 296.656 206.682C294.369 207.057 292.041 206.89 289.754 207.098C287.467 207.306 284.972 208.637 285.222 210.757C285.339 211.407 285.61 212.02 286.012 212.545L288.798 217.243C289.158 217.704 289.336 218.281 289.296 218.865C289.296 219.655 288.257 220.07 287.509 220.403C285.623 221.364 283.958 222.707 282.62 224.346C281.281 225.985 280.299 227.885 279.734 229.924C278.599 234.005 278.599 238.317 279.734 242.398C279.768 242.683 279.86 242.959 280.003 243.209C280.145 243.459 280.337 243.678 280.565 243.853C280.947 244.06 281.378 244.161 281.812 244.144C283.117 244.366 284.364 244.848 285.479 245.562C286.593 246.277 287.552 247.208 288.299 248.302C289.742 250.57 291.034 252.931 292.165 255.37C295.28 261.212 299.83 266.167 305.387 269.767C310.944 273.367 317.325 275.495 323.931 275.951C325.012 276.057 326.104 275.93 327.132 275.576C328.362 274.954 329.355 273.947 329.959 272.708C332.828 267.469 331.997 261.191 332.204 255.453C332.192 252.605 332.728 249.782 333.784 247.137C334.45 245.641 335.073 245.557 336.03 244.684C336.485 244.385 336.859 243.978 337.12 243.499C337.381 243.021 337.521 242.485 337.526 241.94C337.305 240.526 336.957 239.134 336.487 237.782C336.142 235.17 336.731 232.519 338.15 230.298C339.559 228.124 340.85 225.876 342.017 223.563C342.828 221.413 343.332 219.16 343.514 216.869C344.701 211.024 343.71 204.946 340.728 199.781C339.561 198.13 338.057 196.747 336.315 195.722C334.574 194.697 332.634 194.054 330.625 193.835C328.975 193.787 327.333 193.592 325.718 193.253C323.265 192.463 322.434 189.927 319.856 189.095C317.625 188.316 315.221 188.172 312.912 188.679C310.663 189.163 308.597 190.275 306.956 191.887C305.314 193.499 304.165 195.545 303.641 197.785Z" fill="#473F47"/>
<path d="M316.156 447.666C317.677 448.993 318.982 450.55 320.022 452.281C320.227 452.602 320.315 452.984 320.272 453.362C320.272 453.944 319.482 454.277 318.858 454.443C316.28 455.108 313.554 454.893 311.113 453.831C308.672 452.768 306.657 450.92 305.387 448.581C303.462 445.823 302.418 442.547 302.393 439.184L303.1 433.779C303.186 432.939 303.381 432.114 303.682 431.326C304.084 430.557 304.603 429.855 305.221 429.247C306.247 428.089 307.49 427.143 308.879 426.461C309.041 426.404 309.217 426.404 309.378 426.461C309.711 426.461 309.877 426.877 309.961 427.168C310.192 428.555 310.107 429.977 309.711 431.326C309.227 435.286 310.155 439.291 312.33 442.635C313.382 444.471 314.668 446.162 316.156 447.666Z" fill="#F89659"/>
<path d="M330.084 417.064C330.163 417.484 330.333 417.882 330.583 418.229C330.802 418.515 331.087 418.743 331.414 418.894C332.833 419.483 334.383 419.684 335.905 419.476C337.776 419.476 339.605 419.102 341.435 418.811C341.955 418.816 342.469 418.689 342.927 418.442C343.385 418.194 343.773 417.835 344.054 417.397C344.188 416.904 344.15 416.379 343.946 415.911C343.742 415.442 343.384 415.057 342.931 414.819C342.025 414.355 341.036 414.073 340.021 413.988C338.998 413.856 338.047 413.388 337.318 412.657C336.279 411.368 336.736 409.331 335.655 408.084C334.992 407.587 334.219 407.256 333.402 407.119C332.585 406.981 331.747 407.041 330.957 407.294C327.589 408.333 329.377 414.694 330.084 417.064Z" fill="#F89659"/>
<path d="M344.719 367.545C344.511 368.418 344.345 369.291 344.179 370.165C342.308 380.975 340.021 391.743 337.901 402.512C337.636 404.882 336.682 407.123 335.156 408.956C334.739 409.473 334.205 409.882 333.597 410.15C332.989 410.418 332.327 410.536 331.664 410.495H331.29C329.543 409.913 328.546 407.46 328.546 405.007L329.46 360.934C329.604 360.418 329.604 359.871 329.46 359.354C329.116 358.887 328.658 358.515 328.13 358.273C326.883 357.608 325.677 356.901 324.471 356.195C320.771 354.074 317.153 351.787 313.619 349.417C308.879 346.216 304.264 342.848 299.816 339.231C296.583 337.262 294.018 334.364 292.456 330.915C290.976 326.675 289.283 322.512 287.384 318.442C285.186 313.304 282.572 308.353 279.567 303.641C279.193 303.1 277.779 300.356 276.989 300.231L307.216 303.557C309.897 303.44 312.519 304.364 314.534 306.135C317.828 309.98 320.83 314.066 323.515 318.359C329.793 326.675 335.988 335.281 342.391 343.721C345.019 346.544 346.691 350.123 347.172 353.949C346.816 358.552 345.994 363.108 344.719 367.545Z" fill="#473F47"/>
<path d="M310.376 429.953C309.968 430.521 309.478 431.026 308.921 431.45C308.065 432.196 307.115 432.825 306.094 433.321H305.803C304.644 433.799 303.344 433.799 302.185 433.321C299.15 432.032 300.065 424.59 299.899 421.679C299.608 417.106 299.358 412.574 299.067 408C298.568 399.103 298.028 390.205 297.529 381.266C297.279 377.108 296.988 372.951 296.78 368.793L295.242 366.09L294.535 364.884L293.704 363.429L292.831 361.808C292.332 360.976 291.833 360.061 291.292 359.105C290.419 357.484 289.587 355.779 288.714 354.116C288.17 352.999 287.559 351.916 286.885 350.873C286.662 350.521 286.412 350.187 286.137 349.875C284.472 348.072 282.679 346.39 280.773 344.844C275.022 339.487 271.194 332.386 269.88 324.637C269.535 322.521 269.396 320.377 269.464 318.234C269.509 314.904 270.041 311.598 271.044 308.422C271.83 306.155 272.833 303.969 274.037 301.895C274.984 300.05 276.251 298.389 277.779 296.988C278.495 296.327 279.308 295.78 280.191 295.367C285.929 292.747 291.75 299.275 295.741 302.726C299.732 306.177 306.634 311.042 308.796 316.239C310.958 321.436 315.033 365.092 315.033 365.092C315.033 375.819 315.033 386.546 314.409 397.232C314.16 403.593 313.869 409.954 313.245 416.274C313.217 420.98 312.241 425.632 310.376 429.953Z" fill="#473F47"/>
<path d="M306.094 433.321H305.803C304.644 433.799 303.344 433.799 302.185 433.321C299.15 432.032 300.065 424.589 299.899 421.679C299.608 417.105 299.358 412.573 299.067 408C298.568 399.102 298.028 390.205 297.529 381.265C297.279 377.108 296.988 372.95 296.78 368.792L295.242 366.09L294.535 364.884L293.704 363.429L292.831 361.807C292.332 360.976 291.833 360.061 291.292 359.105L288.34 353.824L286.137 349.667C284.472 347.863 282.679 346.182 280.773 344.636C275.062 339.333 271.237 332.311 269.88 324.637C269.535 322.521 269.396 320.377 269.464 318.234C269.509 314.904 270.041 311.598 271.044 308.422C271.83 306.155 272.833 303.969 274.037 301.894C274.984 300.049 276.251 298.388 277.779 296.988C278.114 297.295 278.408 297.645 278.653 298.027C281.813 302.559 281.646 308.505 281.979 314.035C282.188 320.933 283.595 327.742 286.137 334.158L287.259 336.445C287.409 336.772 287.576 337.091 287.758 337.401C292.092 344.275 295.941 351.444 299.275 358.855C305.803 375.486 303.433 393.697 304.264 411.326C304.521 416.202 305.049 421.06 305.844 425.878C306.334 428.329 306.419 430.843 306.094 433.321Z" fill="url(#paint1_linear)"/>
<path d="M399.227 297.113C397.523 297.113 395.818 297.113 394.155 297.113C392.408 296.974 390.695 296.553 389.083 295.865C387.544 295.159 386.255 294.078 384.675 293.412C381.432 291.999 377.898 291.334 374.738 289.712C369.957 287.301 365.342 284.556 360.768 281.854L349.709 275.285C345.972 273.147 342.35 270.815 338.857 268.3L336.82 266.72C335.822 265.888 334.574 264.973 333.327 265.348C332.821 265.587 332.368 265.927 331.997 266.345C330.55 268.327 329.634 270.646 329.336 273.081C328.788 275.203 327.963 277.244 326.883 279.151C324.845 282.893 322.933 286.718 320.729 290.336C319.128 293.874 316.871 297.076 314.077 299.774C312.241 300.745 310.145 301.109 308.09 300.813C303.694 300.224 299.253 300.057 294.826 300.314C292.801 300.792 290.745 301.125 288.673 301.312C285.471 301.244 282.371 300.167 279.817 298.235C277.572 296.489 278.569 294.078 279.484 291.791C282.977 282.685 286.428 277.363 282.353 268.009C283.143 269.838 266.221 276.324 264.1 276.324C255.244 276.324 249.964 269.838 243.312 264.807C239.356 261.904 235.186 259.305 230.838 257.032C229.517 256.263 228.125 255.622 226.681 255.12C225.309 254.662 223.521 254.704 222.523 253.747C222.107 253.368 221.744 252.934 221.442 252.459C220.891 251.6 220.444 250.679 220.111 249.714C219.832 248.565 219.243 247.515 218.407 246.679C217.153 245.945 215.664 245.721 214.249 246.056C213.489 246.138 212.722 246.138 211.962 246.056C211.818 246.051 211.676 246.015 211.547 245.951C211.418 245.886 211.304 245.794 211.214 245.681C211.109 245.544 211.053 245.376 211.053 245.203C211.053 245.031 211.109 244.863 211.214 244.725C211.504 244.528 211.828 244.387 212.17 244.309L217.866 243.104C216.245 241.69 213.709 242.064 211.713 241.399C211.444 241.327 211.2 241.183 211.006 240.983C210.908 240.751 210.906 240.491 211 240.257C211.093 240.024 211.274 239.836 211.505 239.736C211.993 239.588 212.514 239.588 213.002 239.736L219.155 240.443C217.326 238.197 213.417 238.863 211.546 236.659C212.274 236.172 213.111 235.875 213.983 235.795C214.854 235.715 215.732 235.855 216.536 236.202C218.931 236.543 221.25 237.289 223.396 238.405C224.7 239.164 225.901 240.087 226.972 241.149C231.082 245.611 235.5 249.779 240.193 253.623C243.474 255.762 247.026 257.454 250.754 258.654C252.376 259.236 254.08 259.61 255.702 260.15C257.323 260.691 259.361 261.689 261.148 262.437C261.814 262.791 262.556 262.977 263.31 262.978C263.915 262.862 264.492 262.637 265.015 262.312C268.769 260.012 272.09 257.071 274.827 253.623C277.779 250.13 281.23 247.053 284.349 243.727C285.558 242.3 287.061 241.151 288.756 240.359C291.916 239.278 295.284 240.858 298.651 240.983C300.056 241.052 301.459 240.825 302.77 240.317C304.081 239.808 305.27 239.03 306.26 238.031C308.214 235.744 308.131 232.335 310.418 230.048C311.702 228.831 313.3 227.996 315.033 227.637C316.934 227.022 318.783 226.257 320.563 225.35C321.976 224.685 323.764 224.061 325.012 225.017C325.205 225.143 325.364 225.316 325.473 225.519C325.582 225.723 325.638 225.951 325.635 226.182C325.627 226.585 325.496 226.976 325.261 227.304C324.377 229.035 323.586 230.811 322.891 232.626C321.996 234.457 321.649 236.507 321.893 238.53C322.475 241.399 326.051 243.02 328.462 244.06C331.955 245.557 335.822 245.806 339.314 247.22C342.797 248.828 345.921 251.118 348.503 253.955C352.661 258.113 356.112 262.271 359.895 266.429C361.808 268.507 363.762 270.586 365.882 272.54C368.699 274.529 371.675 276.281 374.78 277.779C378.212 280.034 381.812 282.022 385.548 283.725C388.216 284.92 391.004 285.826 393.864 286.427C395.027 286.763 396.207 287.041 397.398 287.259C398.645 287.259 399.311 286.843 400.35 286.219C401.936 285.392 403.768 285.17 405.506 285.596C409.257 286.429 412.77 288.107 415.775 290.502C416.648 291.084 417.605 291.957 417.438 292.997C417.483 293.132 417.483 293.277 417.438 293.412C417.106 293.703 416.607 293.412 416.233 293.121C414.946 292.192 413.364 291.763 411.784 291.916C412.948 292.83 414.195 293.953 414.071 295.408C414.112 295.515 414.112 295.634 414.071 295.741C414.013 295.77 413.949 295.785 413.884 295.785C413.819 295.785 413.754 295.77 413.696 295.741C412.408 295.741 411.451 294.535 410.245 293.953C409.075 293.418 407.787 293.189 406.504 293.288C405.921 293.288 404.05 293.288 404.05 294.036C404.015 294.158 404.015 294.288 404.05 294.41C404.399 294.863 404.804 295.268 405.256 295.616C405.482 295.786 405.653 296.018 405.749 296.284C405.845 296.55 405.862 296.838 405.797 297.113C405.506 297.695 404.716 297.778 404.05 297.736C402.304 297.653 400.807 297.279 399.227 297.113Z" fill="#F89659"/>
<path d="M393.989 296.531C393.533 296.814 393.023 296.998 392.492 297.072C390.771 296.952 389.143 296.248 387.877 295.076C383.599 292.949 379.182 291.115 374.655 289.588C369.874 287.176 365.259 284.432 360.685 281.73L349.709 275.285C345.972 273.147 342.35 270.816 338.857 268.3C339.813 269.007 343.763 263.02 344.428 262.479C348.295 259.319 346.923 266.096 346.84 268.383C346.756 268.837 346.756 269.302 346.84 269.755C347.14 270.347 347.62 270.827 348.212 271.127C355.197 275.701 362.39 279.942 369.791 283.85C373.533 285.804 377.399 287.592 381.183 289.505C384.301 291.084 387.669 291.999 390.912 293.288C392.284 293.829 393.822 294.66 393.864 296.115C393.927 296.247 393.969 296.387 393.989 296.531Z" fill="#D57439"/>
<path d="M308.339 232.419C308.438 233.874 308.09 235.325 307.341 236.576C306.26 238.032 313.495 239.944 315.657 237.865C317.912 235.332 319.995 232.652 321.893 229.841L308.339 232.419Z" fill="#D57439"/>
<path d="M316.904 232.917C314.587 233.819 312.053 234.007 309.628 233.458C308.427 233.161 307.308 232.6 306.351 231.816C305.394 231.032 304.625 230.045 304.098 228.926C303.575 227.404 303.363 225.792 303.474 224.186C303.738 216.402 306.411 208.891 311.125 202.69C311.819 201.663 312.726 200.798 313.786 200.154C315.222 199.46 316.863 199.312 318.401 199.738C321.361 200.52 323.987 202.242 325.885 204.644C327.763 207.012 329.354 209.594 330.624 212.336C331.539 214.041 333.244 216.744 332.454 218.739C331.301 220.584 329.903 222.262 328.296 223.729C325.411 227.777 321.471 230.955 316.904 232.917Z" fill="#F89659"/>
<path d="M319.191 300.398C318.217 301.946 316.839 303.199 315.205 304.02C313.57 304.84 311.742 305.198 309.919 305.054C302.726 305.637 295.492 303.766 288.34 305.054C286.137 305.429 284.182 306.094 281.771 306.26H281.147C279.937 306.374 278.717 306.204 277.584 305.764C276.45 305.324 275.436 304.625 274.62 303.724C272.374 300.772 273.788 296.531 275.243 293.08C277.946 286.885 283.018 279.775 280.108 272.873C279.734 272.125 279.235 271.46 278.902 270.711C278.56 269.899 278.323 269.047 278.195 268.175L277.114 262.853C276.366 259.319 275.659 255.785 274.911 252.209C274.744 251.498 274.744 250.758 274.911 250.047C275.277 249.118 275.933 248.33 276.782 247.802L284.307 241.815C285.772 240.442 287.537 239.431 289.463 238.863C291.506 238.684 293.563 238.796 295.575 239.196C298.252 239.098 300.906 238.665 303.474 237.907C303.807 237.907 304.181 237.907 304.431 237.907C304.69 238.158 304.839 238.502 304.847 238.863C305.135 240.032 305.674 241.124 306.426 242.064C306.965 242.728 307.548 243.353 308.173 243.935L308.963 244.684L313.495 248.842C314.447 249.846 315.556 250.689 316.779 251.336C320.937 253.207 323.889 248.218 323.681 244.518C323.442 242.44 322.822 240.424 321.852 238.572C323.764 239.32 325.677 240.152 327.589 241.025C329.322 242.058 331.129 242.961 332.995 243.728C335.905 244.518 338.691 243.728 341.31 245.557C344.771 247.807 347.953 250.459 350.79 253.457L348.877 257.864C346.341 263.186 343.389 268.924 337.984 271.252C336.57 271.834 335.115 272.208 333.826 272.873C331.498 274.038 331.248 275.867 330.209 277.946C328.421 281.563 326.633 285.18 325.012 288.839C323.387 292.843 321.441 296.709 319.191 300.398Z" fill="white"/>
<path d="M326.716 248.384C327.053 247.973 327.48 247.646 327.964 247.428C328.359 247.324 328.774 247.324 329.169 247.428C334.408 247.843 339.647 248.426 344.844 249.132C338.399 243.395 328.213 243.644 321.311 238.78C320.355 240.567 321.311 242.646 321.81 244.6C322.102 246.362 322.102 248.16 321.81 249.922C322.691 250.126 323.61 250.091 324.472 249.821C325.335 249.55 326.11 249.054 326.716 248.384Z" fill="url(#paint2_linear)"/>
<path d="M225.059 252.834C223.909 253.134 222.691 253.031 221.608 252.543C221.049 251.689 220.602 250.766 220.278 249.799C219.999 248.65 219.409 247.6 218.573 246.764C217.317 246.033 215.83 245.81 214.415 246.14C215.201 245.644 216.106 245.37 217.035 245.35C217.534 245.334 218.022 245.198 218.457 244.951C218.891 244.705 219.26 244.357 219.529 243.936C219.529 243.604 219.529 243.188 219.945 242.897C220.361 242.606 221.026 242.523 221.608 242.606C222.783 242.889 223.926 243.293 225.018 243.812C225.801 244.1 226.521 244.537 227.138 245.1C227.436 245.323 227.685 245.603 227.87 245.925C228.056 246.247 228.175 246.603 228.219 246.971C227.845 246.971 227.304 246.556 226.93 246.348C226.454 246.1 225.952 245.905 225.433 245.766C224.377 245.484 223.28 245.386 222.19 245.475C222.19 245.475 221.858 245.475 221.816 245.475C221.775 245.475 221.816 245.849 222.066 245.974C223.604 247.179 225.558 247.761 227.055 249.05C227.299 249.193 227.488 249.412 227.595 249.674C227.739 250.02 227.739 250.409 227.595 250.755C227.392 251.293 227.05 251.769 226.605 252.134C226.16 252.498 225.627 252.74 225.059 252.834Z" fill="#D57439"/>
<path d="M346.881 415.234C346.253 414.882 345.557 414.67 344.839 414.613C344.121 414.555 343.4 414.654 342.724 414.902C342.1 415.322 341.503 415.78 340.936 416.274C339.146 416.982 337.154 416.982 335.364 416.274C333.399 415.66 331.381 415.228 329.336 414.985C329.336 414.985 329.336 419.142 330.084 419.517C331.062 419.858 332.085 420.054 333.119 420.099C337.26 420.632 341.452 420.632 345.593 420.099C346.757 419.849 350.665 419.226 351.205 417.937C351.746 416.648 347.962 415.608 346.881 415.234Z" fill="#FD772B"/>
<path d="M322.808 453.071C323.559 453.906 324.037 454.95 324.18 456.064C324.199 456.452 324.081 456.835 323.847 457.145C323.569 457.355 323.238 457.484 322.891 457.519C320.159 458.121 317.339 458.205 314.576 457.769C311.85 457.343 309.355 455.992 307.507 453.944C306.302 452.488 305.512 450.742 304.389 449.245C303.267 447.749 302.227 446.792 301.354 445.42C300.481 444.048 301.354 441.595 302.019 440.098C302.768 440.098 302.518 441.554 302.851 442.219C303.983 444.663 305.594 446.855 307.591 448.663C308.444 449.642 309.49 450.435 310.663 450.993C311.836 451.551 313.111 451.862 314.409 451.906C314.882 451.907 315.347 451.793 315.767 451.576C316.187 451.359 316.548 451.045 316.821 450.659C317.237 449.994 316.821 448.455 317.528 448.206C318.234 447.957 322.143 452.405 322.808 453.071Z" fill="#FD772B"/>
<path d="M331.83 410.495H331.456C329.71 409.913 328.712 407.46 328.712 405.007L329.46 360.935C329.604 360.418 329.604 359.872 329.46 359.355C329.116 358.887 328.658 358.515 328.13 358.274C326.883 357.609 325.677 356.902 324.471 356.195C320.771 354.075 317.153 351.788 313.619 349.418L311.457 331.831C311.457 331.831 333.369 346.341 335.655 353.16C337.942 359.979 331.83 410.495 331.83 410.495Z" fill="url(#paint3_linear)"/>
<path d="M321.394 214.166C323.047 214.777 324.742 215.263 326.467 215.621C328.171 216.203 329.876 217.492 329.918 219.239C331.373 219.239 332.163 217.576 332.579 216.203C333.421 213.91 333.979 211.523 334.242 209.094C334.477 206.659 333.891 204.215 332.579 202.15C330.209 198.782 321.436 192.463 318.65 198.367C316.53 202.94 316.28 211.505 321.394 214.166Z" fill="#473F47"/>
<path d="M365.508 395.029C362.431 394.53 359.355 394.031 356.278 393.449L357.276 388.002C360.311 388.542 363.346 389.083 366.381 389.54L365.508 395.029Z" fill="#FD772B"/>
<path d="M337.859 389.789C334.824 389.124 331.83 388.417 328.795 387.669L330.084 382.305L339.065 384.384L337.859 389.789Z" fill="#FD772B"/>
<path d="M310.709 382.97L301.728 380.351L303.35 375.029C306.302 375.944 309.254 376.775 312.206 377.607L310.709 382.97Z" fill="#FD772B"/>
<path d="M283.975 374.614C281.064 373.616 278.112 372.577 275.202 371.496L277.114 366.298L285.804 369.375L283.975 374.614Z" fill="#FD772B"/>
<path d="M420.182 300.481L462.966 209.925L539.385 228.136L495.854 319.69L420.182 300.481Z" fill="#FD772B"/>
<path d="M100.077 105.649L231.462 63.6971L264.308 199.489L154.336 255.785L100.077 105.649Z" fill="white"/>
<path d="M92.4684 374.614L154.959 413.738L175.956 344.096L107.021 297.072L92.4684 374.614Z" fill="#FD772B"/>
<path d="M421.222 449.08L433.113 371.205L523.503 365.259L504.086 440.598L421.222 449.08Z" fill="white"/>
<path d="M450.825 287.509L442.925 285.721L449.121 273.456L457.062 275.243L450.825 287.509Z" fill="white"/>
<path d="M460.596 289.671L452.655 287.924L465.336 262.936L473.277 264.683L460.596 289.671Z" fill="#FD772B"/>
<path d="M470.366 291.875L462.425 290.087L470.159 274.869L478.058 276.657L470.366 291.875Z" fill="white"/>
<path d="M480.096 294.078L472.196 292.29L488.91 259.402L496.81 261.19L480.096 294.078Z" fill="#FD772B"/>
<path d="M460.596 289.671L452.655 287.924L465.336 262.936L473.277 264.683L460.596 289.671Z" fill="url(#paint4_linear)"/>
<path d="M480.096 294.078L472.196 292.29L488.91 259.402L496.81 261.19L480.096 294.078Z" fill="url(#paint5_linear)"/>
<path d="M489.866 296.281L481.967 294.493L503.337 252.417L511.237 254.205L489.866 296.281Z" fill="white"/>
<path d="M166.643 150.012C166.624 146.394 167.405 142.816 168.929 139.534L153.463 131.011C150.52 136.912 148.997 143.418 149.014 150.012C149.045 159.563 152.252 168.833 158.131 176.36C164.01 183.888 172.227 189.246 181.486 191.589L184.646 174.002C179.474 172.455 174.934 169.29 171.694 164.972C168.453 160.654 166.683 155.41 166.643 150.012Z" fill="#473F47"/>
<path opacity="0.18" d="M228.801 172.131C224.957 178.49 219.532 183.747 213.056 187.39C206.579 191.032 199.27 192.938 191.839 192.92C188.277 192.921 184.729 192.474 181.278 191.59L184.438 174.002C186.839 174.722 189.332 175.086 191.839 175.083C196.08 175.091 200.255 174.029 203.976 171.994C207.697 169.959 210.845 167.017 213.126 163.442L228.801 172.131Z" fill="#FD772B"/>
<path d="M234.913 150.012C234.924 157.803 232.811 165.45 228.801 172.131L213.126 163.608C215.018 160.69 216.286 157.414 216.851 153.984C217.416 150.553 217.267 147.043 216.412 143.673C215.557 140.304 214.015 137.147 211.883 134.401C209.751 131.655 207.074 129.379 204.021 127.716C200.968 126.053 197.605 125.039 194.141 124.737C190.678 124.435 187.189 124.852 183.895 125.962C180.6 127.071 177.57 128.849 174.995 131.185C172.419 133.521 170.355 136.363 168.93 139.534L153.463 131.011C157.749 122.284 164.864 115.265 173.649 111.099C182.434 106.933 192.371 105.865 201.841 108.068C211.311 110.272 219.755 115.617 225.799 123.234C231.842 130.85 235.128 140.289 235.121 150.012H234.913Z" fill="#FD772B"/>
<path d="M448.663 425.047C448.652 424.809 448.69 424.572 448.776 424.35C448.862 424.128 448.994 423.926 449.162 423.758C449.936 422.97 450.494 421.996 450.784 420.931C450.961 420.26 450.924 419.551 450.678 418.902C450.432 418.253 449.989 417.698 449.412 417.313C448.702 416.779 447.898 416.384 447.042 416.149C446.617 416.033 446.248 415.766 446.004 415.4C445.759 415.033 445.655 414.591 445.711 414.153C445.711 413.613 445.711 413.031 445.711 412.49C445.727 412.239 445.792 411.993 445.903 411.767C446.014 411.541 446.169 411.339 446.358 411.173C446.548 411.007 446.768 410.88 447.006 410.799C447.245 410.718 447.497 410.686 447.748 410.703C448.568 410.691 449.375 410.507 450.118 410.162C450.919 409.853 451.573 409.253 451.951 408.482C452.329 407.711 452.402 406.827 452.156 406.004C451.954 405.276 451.69 404.566 451.366 403.884C451.174 403.489 451.128 403.04 451.234 402.614C451.341 402.188 451.593 401.814 451.948 401.555C452.381 401.246 452.798 400.913 453.195 400.558C453.565 400.274 454.018 400.121 454.484 400.121C454.95 400.121 455.403 400.274 455.773 400.558C456.382 401.172 457.101 401.666 457.893 402.013C458.615 402.321 459.421 402.373 460.177 402.161C460.933 401.95 461.594 401.487 462.051 400.849C462.6 400.096 463.008 399.251 463.257 398.354C463.399 397.936 463.688 397.584 464.071 397.362C464.453 397.14 464.902 397.064 465.336 397.148H466.999C467.444 397.19 467.857 397.396 468.157 397.727C468.457 398.058 468.622 398.489 468.62 398.936C468.665 400.011 468.949 401.062 469.452 402.013C469.821 402.629 470.368 403.118 471.022 403.415C471.676 403.712 472.404 403.803 473.111 403.676C473.921 403.505 474.704 403.226 475.439 402.844C475.866 402.595 476.373 402.521 476.854 402.637C477.334 402.753 477.751 403.051 478.017 403.468C478.308 403.967 478.765 404.383 479.098 404.882C479.322 405.232 479.424 405.647 479.386 406.061C479.348 406.475 479.174 406.865 478.89 407.168C478.26 407.812 477.765 408.575 477.435 409.414C477.066 410.231 477.034 411.16 477.345 412C477.657 412.84 478.286 413.524 479.098 413.904C479.703 414.262 480.344 414.554 481.01 414.777C481.405 414.889 481.751 415.13 481.992 415.462C482.234 415.793 482.356 416.197 482.341 416.607C482.341 417.272 482.341 417.937 482.091 418.644C482.03 419.081 481.809 419.48 481.472 419.764C481.134 420.048 480.703 420.197 480.262 420.182C479.282 420.225 478.32 420.465 477.435 420.889C476.763 421.207 476.215 421.738 475.877 422.4C475.538 423.062 475.428 423.817 475.564 424.548C475.698 425.402 475.965 426.229 476.354 427.001C476.49 427.207 476.583 427.438 476.628 427.681C476.673 427.924 476.667 428.173 476.613 428.414C476.559 428.655 476.456 428.882 476.311 429.082C476.167 429.283 475.983 429.451 475.772 429.579L474.608 430.452C474.265 430.792 473.801 430.983 473.319 430.983C472.836 430.983 472.372 430.792 472.03 430.452C471.351 429.805 470.543 429.309 469.66 428.997C468.92 428.705 468.101 428.678 467.344 428.921C466.586 429.163 465.936 429.66 465.502 430.327C464.988 431.043 464.608 431.846 464.379 432.697C464.255 433.103 463.99 433.452 463.632 433.68C463.274 433.909 462.846 434.003 462.425 433.944L460.471 433.695C460.073 433.622 459.71 433.42 459.439 433.119C459.168 432.818 459.005 432.436 458.974 432.032C458.961 431.026 458.734 430.034 458.309 429.121C457.969 428.351 457.357 427.734 456.589 427.389C455.821 427.043 454.953 426.994 454.151 427.25C453.368 427.465 452.603 427.744 451.865 428.082C451.491 428.273 451.064 428.336 450.651 428.261C450.237 428.186 449.86 427.977 449.578 427.666C449.162 427.126 448.746 426.627 448.372 426.045C448.184 425.72 448.044 425.37 447.956 425.005L448.663 425.047ZM464.213 409.455C463.011 409.447 461.833 409.796 460.829 410.458C459.826 411.12 459.041 412.065 458.575 413.174C458.109 414.282 457.983 415.504 458.213 416.684C458.442 417.864 459.017 418.95 459.864 419.803C460.712 420.656 461.793 421.238 462.972 421.476C464.151 421.714 465.373 421.596 466.485 421.138C467.596 420.679 468.547 419.901 469.216 418.902C469.885 417.903 470.242 416.728 470.242 415.526C470.242 414.721 470.082 413.925 469.772 413.183C469.462 412.441 469.007 411.768 468.435 411.203C467.862 410.639 467.183 410.193 466.437 409.893C465.691 409.593 464.893 409.444 464.088 409.455H464.213Z" fill="#FD772B"/>
<path d="M494.648 407.418C494.668 407.653 494.668 407.89 494.648 408.125C494.635 408.413 494.525 408.689 494.337 408.907C494.148 409.126 493.892 409.275 493.608 409.331L492.361 409.663C492.035 409.752 491.688 409.721 491.383 409.576C491.078 409.431 490.835 409.182 490.698 408.873C490.407 408.374 490.116 407.875 489.783 407.418C489.564 407.126 489.288 406.883 488.971 406.703C488.654 406.523 488.303 406.409 487.94 406.37C487.578 406.331 487.211 406.367 486.863 406.476C486.515 406.585 486.193 406.764 485.917 407.002C485.499 407.315 485.11 407.662 484.752 408.042C484.536 408.292 484.238 408.458 483.911 408.511C483.585 408.564 483.25 408.501 482.965 408.333L481.967 407.751C481.619 407.58 481.351 407.281 481.219 406.916C481.087 406.552 481.102 406.15 481.26 405.796C481.464 405.22 481.59 404.619 481.634 404.009C481.681 403.344 481.469 402.688 481.043 402.176C480.617 401.665 480.009 401.338 479.347 401.264C478.697 401.223 478.044 401.223 477.393 401.264C477.068 401.256 476.758 401.128 476.52 400.906C476.283 400.684 476.135 400.383 476.104 400.059C476.046 399.707 475.962 399.36 475.855 399.019C475.753 398.682 475.777 398.319 475.922 397.998C476.067 397.677 476.324 397.419 476.645 397.273C477.269 396.973 477.843 396.581 478.35 396.109C478.802 395.701 479.09 395.142 479.159 394.537C479.228 393.932 479.073 393.323 478.724 392.824C478.386 392.376 478.025 391.946 477.643 391.535C477.468 391.424 477.319 391.277 477.206 391.103C477.093 390.93 477.018 390.734 476.987 390.53C476.955 390.325 476.968 390.116 477.024 389.917C477.079 389.717 477.177 389.532 477.31 389.373L477.809 388.459C477.991 388.156 478.278 387.93 478.614 387.823C478.951 387.716 479.315 387.735 479.638 387.877C480.347 388.174 481.119 388.289 481.884 388.209C482.407 388.195 482.912 388.008 483.318 387.677C483.724 387.346 484.009 386.89 484.129 386.38C484.282 385.698 484.352 385 484.337 384.301C484.309 383.981 484.387 383.66 484.56 383.39C484.733 383.119 484.991 382.913 485.293 382.804L486.748 382.471C487.079 382.38 487.432 382.419 487.734 382.582C488.037 382.745 488.264 383.018 488.37 383.345C488.692 384.091 489.191 384.748 489.825 385.257C490.29 385.65 490.879 385.865 491.488 385.865C492.097 385.865 492.686 385.65 493.151 385.257C493.526 384.971 493.874 384.651 494.191 384.301C494.408 384.04 494.707 383.862 495.04 383.794C495.372 383.726 495.718 383.772 496.02 383.927L497.226 384.633C497.505 384.806 497.713 385.073 497.812 385.386C497.911 385.698 497.895 386.036 497.766 386.338C497.502 387.013 497.374 387.734 497.392 388.459C497.396 389.086 497.624 389.691 498.036 390.164C498.448 390.637 499.016 390.947 499.637 391.036H501.383C501.735 391.001 502.087 391.101 502.365 391.318C502.644 391.535 502.829 391.851 502.88 392.201C502.88 392.616 503.088 393.032 503.171 393.448C503.264 393.757 503.233 394.089 503.086 394.376C502.939 394.663 502.686 394.882 502.381 394.986C501.706 395.274 501.097 395.699 500.594 396.234C500.2 396.615 499.945 397.116 499.87 397.659C499.795 398.201 499.903 398.753 500.178 399.227C500.538 399.807 500.971 400.338 501.467 400.807C501.762 401.038 501.96 401.371 502.021 401.74C502.083 402.11 502.004 402.489 501.799 402.803L501.217 403.759C501.138 403.925 501.026 404.073 500.888 404.195C500.75 404.317 500.588 404.409 500.414 404.468C500.239 404.526 500.055 404.548 499.871 404.534C499.688 404.519 499.509 404.468 499.346 404.383C498.454 404.094 497.494 404.094 496.602 404.383C496.15 404.52 495.744 404.778 495.429 405.13C495.113 405.482 494.901 405.914 494.814 406.379C494.771 406.849 494.771 407.322 494.814 407.792L494.648 407.418ZM489.492 391.452C488.894 391.447 488.3 391.56 487.745 391.785C487.191 392.01 486.686 392.343 486.261 392.765C485.836 393.186 485.498 393.688 485.268 394.24C485.037 394.793 484.919 395.385 484.919 395.984C484.911 396.89 485.172 397.779 485.669 398.536C486.167 399.294 486.878 399.887 487.713 400.239C488.548 400.592 489.469 400.688 490.359 400.516C491.249 400.345 492.068 399.912 492.711 399.274C493.355 398.636 493.795 397.822 493.975 396.933C494.155 396.045 494.066 395.123 493.722 394.285C493.377 393.447 492.791 392.73 492.038 392.226C491.285 391.722 490.399 391.452 489.492 391.452Z" fill="#FD772B"/>
<path d="M128.433 374.78C139.294 374.78 148.099 365.975 148.099 355.113C148.099 344.252 139.294 335.447 128.433 335.447C117.572 335.447 108.767 344.252 108.767 355.113C108.767 365.975 117.572 374.78 128.433 374.78Z" fill="#473F47"/>
<path d="M128.516 331.83V355.862L149.679 340.603C149.679 340.603 139.908 329.959 128.516 331.83Z" fill="white"/>
<path d="M265.639 421.97L239.57 429.288L248.592 446.709L267.094 441.512L265.639 421.97Z" fill="#FD772B"/>
<path d="M265.639 421.97L239.57 429.288L248.592 446.709L267.094 441.512L265.639 421.97Z" fill="url(#paint6_linear)"/>
<path d="M223.313 385.548C223.078 387.042 223.221 388.572 223.729 389.997C225.215 396.696 227.86 403.084 231.545 408.873C237.324 417.189 246.347 422.386 255.078 427.417C254.33 426.793 254.454 422.178 254.33 421.138L253.706 414.985C253.174 411.735 251.909 408.65 250.006 405.963C246.197 399.695 240.952 394.422 234.705 390.579C231.164 388.372 227.329 386.678 223.313 385.548Z" fill="#FD772B"/>
<path d="M223.313 385.548C223.078 387.042 223.221 388.572 223.729 389.997C225.215 396.696 227.86 403.084 231.545 408.873C237.324 417.189 246.347 422.386 255.078 427.417C254.33 426.793 254.454 422.178 254.33 421.138L253.706 414.985C253.174 411.735 251.909 408.65 250.006 405.963C246.197 399.695 240.952 394.422 234.705 390.579C231.164 388.372 227.329 386.678 223.313 385.548Z" fill="url(#paint7_linear)"/>
<path d="M259.236 398.355C260.124 392.856 260.278 387.263 259.693 381.724C259.033 376.087 256.162 370.942 251.71 367.421L245.183 390.372C243.694 394.725 242.895 399.285 242.813 403.885C243.158 408.414 244.445 412.821 246.593 416.824C248.741 420.826 251.702 424.335 255.286 427.126C257.365 423.842 256.908 417.938 257.365 414.071L259.236 398.355Z" fill="#FD772B"/>
<path d="M259.236 398.355C260.124 392.856 260.278 387.263 259.693 381.724C259.033 376.087 256.162 370.942 251.71 367.421L245.183 390.372C243.694 394.725 242.895 399.285 242.813 403.885C243.158 408.414 244.445 412.821 246.593 416.824C248.741 420.826 251.702 424.335 255.286 427.126C257.365 423.842 256.908 417.938 257.365 414.071L259.236 398.355Z" fill="url(#paint8_linear)"/>
<path d="M264.837 415.317L236.863 423.196C234.52 423.855 233.153 426.281 233.81 428.613C234.467 430.944 236.898 432.3 239.241 431.64L267.215 423.761C269.558 423.101 270.925 420.676 270.268 418.344C269.612 416.012 267.18 414.657 264.837 415.317Z" fill="#FD772B"/>
</g>
<defs>
<linearGradient id="paint0_linear" x1="406.711" y1="130.969" x2="498.307" y2="130.969" gradientUnits="userSpaceOnUse">
<stop offset="0.01"/>
<stop offset="0.08" stop-opacity="0.69"/>
<stop offset="0.21" stop-opacity="0.32"/>
<stop offset="1" stop-opacity="0"/>
</linearGradient>
<linearGradient id="paint1_linear" x1="-9941.14" y1="11967.5" x2="180.364" y2="15259.9" gradientUnits="userSpaceOnUse">
<stop offset="0.01"/>
<stop offset="0.08" stop-opacity="0.69"/>
<stop offset="0.21" stop-opacity="0.32"/>
<stop offset="1" stop-opacity="0"/>
</linearGradient>
<linearGradient id="paint2_linear" x1="-4293.96" y1="114.595" x2="-3280.18" y2="2307.09" gradientUnits="userSpaceOnUse">
<stop offset="0.01"/>
<stop offset="0.08" stop-opacity="0.69"/>
<stop offset="0.21" stop-opacity="0.32"/>
<stop offset="1" stop-opacity="0"/>
</linearGradient>
<linearGradient id="paint3_linear" x1="-5104.39" y1="9632.46" x2="-4117.06" y2="9703.11" gradientUnits="userSpaceOnUse">
<stop offset="0.01"/>
<stop offset="0.08" stop-opacity="0.69"/>
<stop offset="0.21" stop-opacity="0.32"/>
<stop offset="1" stop-opacity="0"/>
</linearGradient>
<linearGradient id="paint4_linear" x1="-9206.48" y1="1024.57" x2="-8818.21" y2="2040.69" gradientUnits="userSpaceOnUse">
<stop offset="0.01"/>
<stop offset="0.08" stop-opacity="0.69"/>
<stop offset="0.21" stop-opacity="0.32"/>
<stop offset="1" stop-opacity="0"/>
</linearGradient>
<linearGradient id="paint5_linear" x1="-11590.9" y1="1349.66" x2="-11065.2" y2="2603.84" gradientUnits="userSpaceOnUse">
<stop offset="0.01"/>
<stop offset="0.08" stop-opacity="0.69"/>
<stop offset="0.21" stop-opacity="0.32"/>
<stop offset="1" stop-opacity="0"/>
</linearGradient>
<linearGradient id="paint6_linear" x1="13292.2" y1="28.0659" x2="13622.5" y2="463.794" gradientUnits="userSpaceOnUse">
<stop offset="0.01"/>
<stop offset="0.08" stop-opacity="0.69"/>
<stop offset="0.21" stop-opacity="0.32"/>
<stop offset="1" stop-opacity="0"/>
</linearGradient>
<linearGradient id="paint7_linear" x1="263.59" y1="394.465" x2="192.153" y2="428.776" gradientUnits="userSpaceOnUse">
<stop offset="0.01"/>
<stop offset="0.13" stop-opacity="0.69"/>
<stop offset="0.25" stop-opacity="0.32"/>
<stop offset="1" stop-opacity="0"/>
</linearGradient>
<linearGradient id="paint8_linear" x1="-12785.8" y1="53029.9" x2="-12111.6" y2="53028" gradientUnits="userSpaceOnUse">
<stop offset="0.01"/>
<stop offset="0.13" stop-opacity="0.69"/>
<stop offset="0.25" stop-opacity="0.32"/>
<stop offset="1" stop-opacity="0"/>
</linearGradient>
<clipPath id="clip0">
<rect width="623.788" height="495.272" fill="white"/>
</clipPath>
</defs>
</svg>
