<svg width="53" height="41" viewBox="0 0 53 41" fill="none" xmlns="http://www.w3.org/2000/svg">
<path d="M26.4113 0.83252C21.9165 0.832634 17.5009 2.0159 13.6083 4.26338C9.7157 6.51087 6.48328 9.74339 4.23592 13.6361C1.98855 17.5287 0.80543 21.9444 0.805458 26.4392C0.805487 30.934 1.98867 35.3496 4.23608 39.2423C4.57564 39.8331 5.13601 40.2649 5.7939 40.4425C6.4518 40.6202 7.15333 40.5293 7.74417 40.1897C8.33501 39.8502 8.76676 39.2898 8.94444 38.6319C9.12212 37.974 9.03117 37.2725 8.69161 36.6816C6.87724 33.5733 5.92274 30.0381 5.92611 26.439C5.92733 23.2976 6.65104 20.1985 8.04127 17.3814C9.4315 14.5643 11.451 12.1047 13.9436 10.1928C16.4363 8.28081 19.3352 6.96775 22.4163 6.35511C25.4975 5.74248 28.6782 5.84668 31.7127 6.65965C34.7471 7.47263 37.5539 8.9726 39.9161 11.0436C42.2782 13.1146 44.1324 15.7011 45.3353 18.6031C46.5382 21.5051 47.0575 24.645 46.8531 27.7798C46.6487 30.9145 45.7261 33.9603 44.1566 36.6816C43.9873 36.9739 43.8775 37.2967 43.8335 37.6316C43.7895 37.9665 43.8122 38.3068 43.9002 38.6329C43.9883 38.9589 44.14 39.2644 44.3466 39.5315C44.5532 39.7987 44.8106 40.0224 45.1041 40.1897C45.692 40.5236 46.3882 40.6113 47.0406 40.4338C47.693 40.2563 48.2487 39.828 48.5865 39.2423C50.834 35.3496 52.0171 30.934 52.0172 26.4392C52.0172 21.9444 50.8341 17.5287 48.5867 13.6361C46.3393 9.74339 43.1069 6.51087 39.2143 4.26338C35.3217 2.0159 30.9061 0.832634 26.4113 0.83252ZM33.6836 15.5819L29.7146 19.5253C28.6872 19.0187 27.5568 18.7558 26.4113 18.7571C24.892 18.7571 23.4067 19.2076 22.1434 20.0517C20.8802 20.8958 19.8955 22.0956 19.3141 23.4993C18.7327 24.903 18.5806 26.4475 18.877 27.9377C19.1734 29.4279 19.905 30.7966 20.9793 31.871C22.0537 32.9453 23.4225 33.677 24.9126 33.9734C26.4028 34.2698 27.9474 34.1176 29.3511 33.5362C30.7548 32.9548 31.9545 31.9702 32.7986 30.7069C33.6427 29.4436 34.0933 27.9584 34.0933 26.439C34.0915 25.3021 33.8287 24.1807 33.3251 23.1614L37.2941 19.218C37.5341 18.9799 37.7246 18.6967 37.8546 18.3847C37.9846 18.0727 38.0515 17.738 38.0515 17.3999C38.0515 17.0619 37.9846 16.7272 37.8546 16.4152C37.7246 16.1031 37.5341 15.8199 37.2941 15.5819C36.8143 15.1049 36.1653 14.8372 35.4888 14.8372C34.8123 14.8372 34.1633 15.1049 33.6836 15.5819ZM26.4113 28.9997C25.7322 28.9997 25.0809 28.7299 24.6007 28.2497C24.1204 27.7695 23.8507 27.1182 23.8507 26.439C23.8507 25.7599 24.1204 25.1086 24.6007 24.6284C25.0809 24.1482 25.7322 23.8784 26.4113 23.8784C27.0795 23.8744 27.7227 24.1317 28.2038 24.5954C28.4488 24.8355 28.6431 25.1225 28.775 25.4392C28.907 25.7559 28.974 26.0959 28.972 26.439C28.972 27.1182 28.7022 27.7695 28.222 28.2497C27.7417 28.7299 27.0904 28.9997 26.4113 28.9997Z" fill="url(#paint0_linear)"/>
<defs>
<linearGradient id="paint0_linear" x1="26.4113" y1="0.83252" x2="26.4113" y2="40.5314" gradientUnits="userSpaceOnUse">
<stop stop-color="#FAA913"/>
<stop offset="0.5" stop-color="#FD772B"/>
<stop offset="1" stop-color="#FF4444"/>
</linearGradient>
</defs>
</svg>
