<svg width="36" height="41" viewBox="0 0 36 41" fill="none" xmlns="http://www.w3.org/2000/svg">
<path d="M16.7791 25.7246C16.3757 26.0946 16.1483 26.594 16.1459 27.1152C16.1465 27.3815 16.2059 27.645 16.3206 27.89C16.5177 28.311 16.8684 28.6571 17.3136 28.87C17.7587 29.0829 18.271 29.1494 18.7638 29.0583C19.2566 28.9672 19.6997 28.7241 20.0183 28.3701C20.3369 28.0161 20.5115 27.5728 20.5124 27.1152C20.51 26.594 20.2826 26.0946 19.8793 25.7246C19.6763 25.5384 19.4348 25.3906 19.1688 25.2897C18.9027 25.1889 18.6174 25.1369 18.3292 25.1369C18.041 25.1369 17.7556 25.1889 17.4895 25.2897C17.2235 25.3906 16.982 25.5384 16.7791 25.7246ZM34.9874 3.8716C34.7338 3.6849 34.4374 3.5523 34.12 3.48354C33.8026 3.41478 33.4724 3.41161 33.1535 3.47428C30.8205 3.91917 28.4122 3.92484 26.0767 3.49093C23.7413 3.05702 21.5282 2.19273 19.5736 0.951251C19.2082 0.720548 18.774 0.596924 18.3292 0.596924C17.8844 0.596924 17.4502 0.720548 17.0847 0.951251C15.1285 2.18932 12.9146 3.05008 10.5792 3.48056C8.24383 3.91104 5.83633 3.90214 3.50485 3.45441C3.18596 3.39175 2.85569 3.39491 2.53833 3.46367C2.22096 3.53243 1.92456 3.66504 1.67092 3.85174C1.41761 4.03871 1.21357 4.27496 1.07378 4.54312C0.933987 4.81127 0.862002 5.10452 0.863111 5.40131V20.2017C0.86117 23.0501 1.60711 25.8576 3.0388 28.3906C4.4705 30.9235 6.54652 33.1086 9.09399 34.7638L17.0629 39.929C17.4326 40.1686 17.8753 40.2973 18.3292 40.2973C18.7831 40.2973 19.2257 40.1686 19.5955 39.929L27.5643 34.7638C30.1118 33.1086 32.1878 30.9235 33.6195 28.3906C35.0512 25.8576 35.7972 23.0501 35.7952 20.2017V5.40131C35.7963 5.10452 35.7243 4.81127 35.5846 4.54312C35.4448 4.27496 35.2407 4.03871 34.9874 3.85174V3.8716ZM31.4287 20.2017C31.4304 22.4163 30.8508 24.5993 29.7381 26.5689C28.6254 28.5386 27.0119 30.2379 25.0318 31.5255L18.3292 35.8763L11.6266 31.5255C9.64643 30.2379 8.03289 28.5386 6.92023 26.5689C5.80756 24.5993 5.22795 22.4163 5.22962 20.2017V7.68594C9.80667 8.04241 14.3907 7.07609 18.3292 4.92452C22.2677 7.07609 26.8517 8.04241 31.4287 7.68594V20.2017ZM18.3292 11.2221C17.1787 11.2215 16.0484 11.4965 15.0519 12.0197C14.0554 12.5428 13.2279 13.2955 12.6527 14.2021C12.3917 14.6561 12.3336 15.1844 12.4904 15.6765C12.6473 16.1686 13.0071 16.5865 13.4946 16.8429C13.9822 17.0993 14.5597 17.1744 15.1067 17.0525C15.6536 16.9306 16.1276 16.6212 16.4297 16.1887C16.6212 15.887 16.8964 15.6364 17.2279 15.4621C17.5594 15.2877 17.9355 15.1958 18.3183 15.1954C18.7012 15.1951 19.0774 15.2864 19.4093 15.4601C19.7412 15.6339 20.017 15.884 20.2091 16.1853C20.4012 16.4867 20.5028 16.8287 20.5037 17.1771C20.5047 17.5255 20.4049 17.868 20.2145 18.1702C20.024 18.4725 19.7496 18.7238 19.4187 18.8991C19.0878 19.0743 18.712 19.1673 18.3292 19.1687C17.7501 19.1687 17.1948 19.378 16.7854 19.7506C16.3759 20.1231 16.1459 20.6284 16.1459 21.1553C16.1459 21.6822 16.3759 22.1875 16.7854 22.5601C17.1948 22.9326 17.7501 23.1419 18.3292 23.1419C20.0663 23.1419 21.7322 22.514 22.9606 21.3963C24.1889 20.2786 24.8789 18.7627 24.8789 17.182C24.8789 15.6014 24.1889 14.0855 22.9606 12.9678C21.7322 11.8501 20.0663 11.2221 18.3292 11.2221Z" fill="url(#paint0_linear)"/>
<defs>
<linearGradient id="paint0_linear" x1="18.3292" y1="0.596924" x2="18.3292" y2="40.2973" gradientUnits="userSpaceOnUse">
<stop stop-color="#FAA913"/>
<stop offset="0.5" stop-color="#FD772B"/>
<stop offset="1" stop-color="#FF4444"/>
</linearGradient>
</defs>
</svg>
