<svg width="35" height="40" viewBox="0 0 35 40" fill="none" xmlns="http://www.w3.org/2000/svg">
<path d="M34.2905 11.2203C34.2791 11.1678 34.2791 11.1134 34.2905 11.0609C34.2808 11.0149 34.2808 10.9674 34.2905 10.9214V10.7421L34.1709 10.4433C34.1223 10.3617 34.0619 10.2878 33.9916 10.2241L33.8123 10.0647H33.7126L25.8624 5.1035L18.4505 0.520868C18.279 0.384843 18.0828 0.283349 17.8727 0.222001H17.7133C17.5352 0.192276 17.3534 0.192276 17.1753 0.222001H16.9761C16.7446 0.273191 16.5227 0.360607 16.3186 0.481019L1.435 9.7459L1.25568 9.88537L1.07636 10.0448L0.877117 10.1842L0.777494 10.3038L0.657947 10.6026V10.782V10.9015C0.638594 11.0336 0.638594 11.1679 0.657947 11.3V28.6941C0.65727 29.0327 0.742897 29.3659 0.906747 29.6622C1.0706 29.9585 1.30726 30.2082 1.5944 30.3876L16.5377 39.6326L16.8366 39.7521H16.996C17.3331 39.8591 17.695 39.8591 18.0321 39.7521H18.1915L18.4903 39.6326L33.3142 30.5271C33.6013 30.3477 33.838 30.098 34.0018 29.8017C34.1657 29.5053 34.2513 29.1721 34.2506 28.8335V11.4395C34.2506 11.4395 34.2905 11.3 34.2905 11.2203ZM17.3746 4.54561L20.9211 6.7373L9.78335 13.6312L6.21687 11.4395L17.3746 4.54561ZM15.3821 34.4323L4.42367 27.7377V15.006L15.3821 21.7803V34.4323ZM17.3746 18.2736L13.569 15.9823L24.7068 9.06847L28.5323 11.4395L17.3746 18.2736ZM30.3255 27.6779L19.367 34.4921V21.7803L30.3255 15.006V27.6779Z" fill="white"/>
</svg>
