<svg width="41" height="41" viewBox="0 0 41 41" fill="none" xmlns="http://www.w3.org/2000/svg">
<path d="M25.7344 14.0752L17.3049 22.6108L14.0627 19.3355C13.8866 19.1277 13.6698 18.9589 13.426 18.8398C13.1823 18.7206 12.9167 18.6537 12.6461 18.6431C12.3755 18.6326 12.1057 18.6786 11.8535 18.7784C11.6014 18.8782 11.3724 19.0296 11.1809 19.223C10.9894 19.4165 10.8395 19.6478 10.7407 19.9026C10.642 20.1573 10.5964 20.4299 10.6068 20.7033C10.6173 20.9767 10.6835 21.2449 10.8015 21.4912C10.9194 21.7374 11.0865 21.9564 11.2922 22.1344L15.9098 26.819C16.0934 27.003 16.3111 27.1485 16.5505 27.2473C16.7899 27.3461 17.0463 27.3962 17.3049 27.3947C17.8203 27.3925 18.3143 27.1857 18.6803 26.819L28.505 16.8939C28.6891 16.7094 28.8353 16.4898 28.9351 16.248C29.0348 16.0061 29.0862 15.7466 29.0862 15.4846C29.0862 15.2225 29.0348 14.9631 28.9351 14.7212C28.8353 14.4793 28.6891 14.2597 28.505 14.0752C28.1368 13.7055 27.6388 13.498 27.1197 13.498C26.6006 13.498 26.1026 13.7055 25.7344 14.0752ZM20.3898 0.596924C16.5035 0.596924 12.7045 1.76112 9.47323 3.94228C6.24192 6.12345 3.72341 9.22362 2.2362 12.8508C0.748992 16.4779 0.35987 20.4691 1.11804 24.3197C1.87622 28.1702 3.74763 31.7072 6.49564 34.4833C9.24365 37.2594 12.7448 39.1499 16.5564 39.9159C20.368 40.6818 24.3188 40.2887 27.9093 38.7863C31.4997 37.2839 34.5685 34.7396 36.7276 31.4753C38.8867 28.2109 40.0391 24.3731 40.0391 20.4471C40.0391 17.8403 39.5309 15.2591 38.5434 12.8508C37.5559 10.4424 36.1086 8.25417 34.284 6.41091C32.4594 4.56765 30.2932 3.10549 27.9093 2.10793C25.5253 1.11036 22.9702 0.596924 20.3898 0.596924ZM20.3898 36.3272C17.2808 36.3272 14.2416 35.3959 11.6565 33.651C9.07149 31.906 7.05669 29.4259 5.86692 26.5242C4.67716 23.6225 4.36586 20.4295 4.9724 17.349C5.57894 14.2686 7.07607 11.439 9.27447 9.21815C11.4729 6.99727 14.2738 5.48483 17.3231 4.87209C20.3724 4.25935 23.533 4.57383 26.4054 5.77576C29.2777 6.97769 31.7328 9.01309 33.4601 11.6246C35.1873 14.236 36.1093 17.3063 36.1093 20.4471C36.1093 24.6588 34.4531 28.698 31.5051 31.6761C28.5572 34.6542 24.5589 36.3272 20.3898 36.3272Z" fill="url(#paint0_linear)"/>
<defs>
<linearGradient id="paint0_linear" x1="20.3898" y1="0.596924" x2="20.3898" y2="40.2973" gradientUnits="userSpaceOnUse">
<stop stop-color="#FAA913"/>
<stop offset="0.5" stop-color="#FD772B"/>
<stop offset="1" stop-color="#FF4444"/>
</linearGradient>
</defs>
</svg>
