<svg width="278" height="311" viewBox="0 0 278 311" fill="none" xmlns="http://www.w3.org/2000/svg">
<rect x="4" y="311" width="9" height="51.75" rx="4.5" transform="rotate(-90 4 311)" fill="url(#paint0_linear)"/>
<path d="M68.5 311C66.0147 311 64 308.985 64 306.5C64 304.015 66.0147 302 68.5 302H69.25C71.7353 302 73.75 304.015 73.75 306.5C73.75 308.985 71.7353 311 69.25 311H68.5Z" fill="url(#paint1_linear)"/>
<g clip-path="url(#clip0)">
<path opacity="0.18" d="M258.736 161.716C246.299 181.386 230.433 198.614 214.491 215.58C198.752 232.331 182.447 249.196 162.038 259.75C137.463 272.473 108.6 274.961 81.1298 271.723C48.7932 267.905 9.93579 256.423 6.81854 217.648C6.06786 208.258 7.97001 198.874 8.5044 189.472C10.1457 160.997 -8.615 127.489 20.1845 106.769C36.1397 95.3182 58.9465 95.8781 73.5276 82.7157C84.457 72.8486 88.4776 57.1606 98.9299 46.791C106.24 39.5704 116.221 35.4798 126.349 33.5777C139.709 31.0712 153.323 32.3053 166.803 31.6056C181.092 30.8867 195.545 30.3332 209.688 32.9606C220.433 34.9649 230.729 38.8938 240.078 44.558C245.774 48.0162 251.023 52.1612 255.708 56.8998C268.018 69.4133 276.028 86.31 276.963 103.824C278.063 124.366 269.717 144.335 258.736 161.716Z" fill="#FD772B"/>
<path d="M62.3243 230.364C56.2043 230.065 48.9647 230.256 45.4403 235.256C47.6542 238.011 51.1659 239.327 54.5948 240.263C64.0611 242.858 73.9345 243.494 83.7315 244.118C95.2335 244.856 107.143 245.53 117.926 241.459C119.911 240.708 122.023 239.607 122.735 237.61C119.364 234.613 114.516 234.111 110.012 233.755C94.2156 232.501 78.1777 230.364 62.3243 230.364Z" fill="url(#paint2_linear)"/>
<path d="M83.4516 237.317C83.4516 238.589 83.5343 240.059 84.5077 240.905C85.1165 241.358 85.8387 241.633 86.5943 241.7C89.8351 242.183 93.1461 241.728 96.1369 240.39C96.3766 240.311 96.5828 240.155 96.7222 239.944C96.7824 239.793 96.8085 239.63 96.7985 239.467C96.7697 238.648 96.4467 237.867 95.8888 237.266C95.0534 236.51 94.0436 235.972 92.9497 235.701L88.2865 234.155C87.0142 233.723 85.4301 233.328 84.0942 233.774C83.3689 234.015 83.458 233.697 83.4198 234.715C83.4007 235.574 83.4516 236.452 83.4516 237.317Z" fill="#2E2E3F"/>
<path d="M83.4516 237.317C83.4516 238.589 83.5343 240.059 84.5077 240.905C85.1165 241.358 85.8387 241.633 86.5943 241.7C89.8351 242.183 93.1461 241.728 96.1369 240.39C96.3766 240.311 96.5828 240.155 96.7222 239.944C96.7824 239.793 96.8085 239.63 96.7985 239.467C96.7697 238.648 96.4467 237.867 95.8888 237.266C95.0534 236.51 94.0436 235.972 92.9497 235.701L88.2865 234.155C87.0142 233.723 85.4301 233.328 84.0942 233.774C83.3689 234.015 83.458 233.697 83.4198 234.715C83.4007 235.574 83.4516 236.452 83.4516 237.317Z" fill="url(#paint3_linear)"/>
<path d="M68.5461 175.984C69.6021 193.199 70.6836 210.655 67.1401 227.514C66.8478 228.586 66.7276 229.699 66.7839 230.809C66.8185 231.364 66.9922 231.902 67.2891 232.372C67.5859 232.842 67.9963 233.23 68.4825 233.5C69.0845 233.725 69.7395 233.767 70.3654 233.621C70.9912 233.475 71.56 233.147 72.0005 232.679C72.8676 231.73 73.5187 230.603 73.909 229.378C76.3964 222.94 77.9487 216.177 79.4055 209.427C81.2716 200.771 82.9957 192.077 84.5776 183.344C85.7991 176.588 86.9378 169.692 86.0599 162.879L75.633 163.941C73.0883 164.196 69.5894 164.743 68.4825 167.504C67.5473 169.807 68.3998 173.605 68.5461 175.984Z" fill="#2E2E3F"/>
<path d="M68.5461 175.984C69.6021 193.199 70.6836 210.655 67.1401 227.514C66.8478 228.586 66.7276 229.699 66.7839 230.809C66.8185 231.364 66.9922 231.902 67.2891 232.372C67.5859 232.842 67.9963 233.23 68.4825 233.5C69.0845 233.725 69.7395 233.767 70.3654 233.621C70.9912 233.475 71.56 233.147 72.0005 232.679C72.8676 231.73 73.5187 230.603 73.909 229.378C76.3964 222.94 77.9487 216.177 79.4055 209.427C81.2716 200.771 82.9957 192.077 84.5776 183.344C85.7991 176.588 86.9378 169.692 86.0599 162.879L75.633 163.941C73.0883 164.196 69.5894 164.743 68.4825 167.504C67.5473 169.807 68.3998 173.605 68.5461 175.984Z" fill="url(#paint4_linear)"/>
<path d="M66.3385 235.072C66.2809 235.882 66.4862 236.69 66.9238 237.374C67.2742 237.771 67.7089 238.084 68.1961 238.291C70.6458 239.452 73.4128 239.763 76.0592 239.175C76.7903 239.04 77.483 238.747 78.0886 238.316C78.3875 238.096 78.6299 237.809 78.7958 237.477C78.9617 237.145 79.0464 236.778 79.0429 236.407C78.9982 236.056 78.8807 235.718 78.6977 235.414C78.5148 235.111 78.2705 234.849 77.9805 234.645C77.3983 234.246 76.7756 233.909 76.1229 233.64C73.7308 232.501 71.6696 229.995 68.9977 229.626C66.0904 229.238 66.294 233.131 66.3385 235.072Z" fill="#2E2E3F"/>
<path d="M66.3385 235.072C66.2809 235.882 66.4862 236.69 66.9238 237.374C67.2742 237.771 67.7089 238.084 68.1961 238.291C70.6458 239.452 73.4128 239.763 76.0592 239.175C76.7903 239.04 77.483 238.747 78.0886 238.316C78.3875 238.096 78.6299 237.809 78.7958 237.477C78.9617 237.145 79.0464 236.778 79.0429 236.407C78.9982 236.056 78.8807 235.718 78.6977 235.414C78.5148 235.111 78.2705 234.849 77.9805 234.645C77.3983 234.246 76.7756 233.909 76.1229 233.64C73.7308 232.501 71.6696 229.995 68.9977 229.626C66.0904 229.238 66.294 233.131 66.3385 235.072Z" fill="url(#paint5_linear)"/>
<path d="M97.0975 190.005C97.0123 194.777 96.6235 199.539 95.9333 204.261C95.2971 208.39 94.2792 212.455 93.2741 216.508L88.9927 233.933C88.9303 234.383 88.7252 234.803 88.4074 235.129C88.1326 235.321 87.8168 235.448 87.4849 235.498L85.1247 236.019C84.818 236.117 84.4904 236.131 84.1768 236.057C83.5025 235.822 83.3689 234.95 83.3562 234.238C83.1081 222.151 83.9414 210.025 83.2035 197.976C82.6945 189.668 81.4477 181.436 80.697 173.127C80.4934 170.85 80.3534 168.419 81.4476 166.409C82.72 164.087 85.2647 162.955 87.6249 162.14C89.5334 161.504 93.2041 159.71 95.1063 161.065C97.0084 162.42 96.6585 165.938 96.773 167.853C96.9893 171.344 97.1293 174.836 97.1929 178.331C97.2396 182.216 97.2078 186.107 97.0975 190.005Z" fill="#2E2E3F"/>
<path d="M97.0975 190.005C97.0123 194.777 96.6235 199.539 95.9333 204.261C95.2971 208.39 94.2792 212.455 93.2741 216.508L88.9927 233.933C88.9303 234.383 88.7252 234.803 88.4074 235.129C88.1326 235.321 87.8168 235.448 87.4849 235.498L85.1247 236.019C84.818 236.117 84.4904 236.131 84.1768 236.057C83.5025 235.822 83.3689 234.95 83.3562 234.238C83.1081 222.151 83.9414 210.025 83.2035 197.976C82.6945 189.668 81.4477 181.436 80.697 173.127C80.4934 170.85 80.3534 168.419 81.4476 166.409C82.72 164.087 85.2647 162.955 87.6249 162.14C89.5334 161.504 93.2041 159.71 95.1063 161.065C97.0084 162.42 96.6585 165.938 96.773 167.853C96.9893 171.344 97.1293 174.836 97.1929 178.331C97.2396 182.216 97.2078 186.107 97.0975 190.005Z" fill="url(#paint6_linear)"/>
<path d="M90.0232 99.1405C90.1059 100.133 90.1886 101.227 90.8821 101.946C91.3337 102.417 92.0399 102.735 92.1544 103.377C92.2689 104.02 91.6773 104.65 91.3337 105.222C90.5513 106.59 91.1175 108.403 90.4686 109.822C90.0549 110.629 89.383 111.274 88.56 111.654C87.7377 112.037 86.8869 112.356 86.0154 112.608C85.2054 112.795 84.4884 113.264 83.9923 113.931C83.2035 115.274 84.2913 117.112 83.6488 118.525C83.1526 119.632 81.8103 120.058 80.6079 120.242C79.9787 120.375 79.3286 120.375 78.6994 120.242C78.2376 120.095 77.8113 119.854 77.4468 119.534C77.0823 119.214 76.7876 118.823 76.5809 118.385C76.1725 117.505 75.9042 116.567 75.7857 115.605C75.2513 112.494 74.9587 109.338 74.7106 106.189C74.5706 104.408 74.4561 102.531 75.2386 100.928C75.8242 99.8602 76.6336 98.9314 77.6115 98.2053C78.6834 97.2452 79.9575 96.5386 81.3395 96.1377C82.5853 95.9129 83.8593 95.8914 85.112 96.0741L87.2177 96.2713C87.7551 96.2402 88.2942 96.2808 88.8209 96.3922C89.8069 96.7803 89.9533 98.3134 90.0232 99.1405Z" fill="#98646A"/>
<path d="M89.3362 97.2638C89.2251 97.4755 89.0764 97.6653 88.8972 97.8236C86.6007 100.069 83.0763 100.597 80.627 102.665C80.4659 102.785 80.328 102.934 80.2198 103.104C80.0719 103.448 80.0212 103.827 80.0735 104.198C80.1063 105.169 80.0403 106.141 79.8763 107.099C79.6128 106.802 79.4482 106.431 79.4055 106.037C79.3037 105.649 79.0747 105.229 78.6803 105.19C78.5364 105.189 78.3951 105.229 78.2732 105.306C78.1514 105.383 78.0542 105.493 77.9932 105.623C77.8704 105.882 77.8032 106.164 77.796 106.45C77.6973 107.033 77.6973 107.629 77.796 108.212C77.8495 108.508 77.9766 108.785 78.1657 109.019C78.3547 109.252 78.5995 109.434 78.8775 109.548C78.9603 109.561 79.0353 109.604 79.0875 109.669C79.1702 109.803 79.0175 109.955 78.8839 110.044L75.334 112.316C75.2063 112.412 75.0544 112.472 74.8951 112.487C74.6215 112.487 74.4307 112.22 74.2589 111.991C73.3499 110.675 72.6164 109.247 72.0768 107.742C71.7842 106.787 71.6442 105.795 71.3643 104.841C71.1607 104.141 70.8808 103.466 70.7281 102.748C70.621 102.117 70.5911 101.477 70.6391 100.839C70.676 100.128 70.761 99.4202 70.8936 98.7206C71.1602 97.0882 71.8147 95.5436 72.8021 94.2165C73.5564 93.312 74.4893 92.5728 75.5423 92.0452C76.5954 91.5176 77.7459 91.2129 78.922 91.1502C81.287 91.0418 83.6254 91.6855 85.6019 92.9887C86.8551 93.7203 90.3223 95.2217 89.3362 97.2638Z" fill="#3D3D54"/>
<path d="M89.3362 97.2638C89.2251 97.4755 89.0764 97.6653 88.8972 97.8236C86.6007 100.069 83.0763 100.597 80.627 102.665C80.4659 102.785 80.328 102.934 80.2198 103.104C80.0719 103.448 80.0212 103.827 80.0735 104.198C80.1063 105.169 80.0403 106.141 79.8763 107.099C79.6128 106.802 79.4482 106.431 79.4055 106.037C79.3037 105.649 79.0747 105.229 78.6803 105.19C78.5364 105.189 78.3951 105.229 78.2732 105.306C78.1514 105.383 78.0542 105.493 77.9932 105.623C77.8704 105.882 77.8032 106.164 77.796 106.45C77.6973 107.033 77.6973 107.629 77.796 108.212C77.8495 108.508 77.9766 108.785 78.1657 109.019C78.3547 109.252 78.5995 109.434 78.8775 109.548C78.9603 109.561 79.0353 109.604 79.0875 109.669C79.1702 109.803 79.0175 109.955 78.8839 110.044L75.334 112.316C75.2063 112.412 75.0544 112.472 74.8951 112.487C74.6215 112.487 74.4307 112.22 74.2589 111.991C73.3499 110.675 72.6164 109.247 72.0768 107.742C71.7842 106.787 71.6442 105.795 71.3643 104.841C71.1607 104.141 70.8808 103.466 70.7281 102.748C70.621 102.117 70.5911 101.477 70.6391 100.839C70.676 100.128 70.761 99.4202 70.8936 98.7206C71.1602 97.0882 71.8147 95.5436 72.8021 94.2165C73.5564 93.312 74.4893 92.5728 75.5423 92.0452C76.5954 91.5176 77.7459 91.2129 78.922 91.1502C81.287 91.0418 83.6254 91.6855 85.6019 92.9887C86.8551 93.7203 90.3223 95.2217 89.3362 97.2638Z" fill="url(#paint7_linear)"/>
<path d="M118.626 104.669C119.269 103.808 120.052 103.059 120.941 102.455C121.838 101.846 122.927 101.588 124.001 101.73C123.772 103.002 122.239 103.562 121.628 104.694C121.564 104.798 121.527 104.916 121.52 105.038C121.562 105.272 121.695 105.48 121.889 105.617C122.591 106.208 123.177 106.924 123.619 107.729C123.84 108.13 123.98 108.571 124.03 109.026C124.08 109.481 124.04 109.942 123.912 110.382C123.463 111.404 122.658 112.229 121.647 112.704C120.646 113.17 119.706 113.757 118.848 114.453C118.339 114.943 117.83 115.598 117.131 115.56C116.921 115.534 116.721 115.459 116.547 115.339C116.373 115.219 116.231 115.06 116.132 114.873C115.939 114.502 115.826 114.095 115.801 113.677C115.64 112.063 115.808 110.432 116.293 108.884C116.779 107.336 117.572 105.903 118.626 104.669Z" fill="#98646A"/>
<path d="M120.318 116.991C119.557 120.699 118.24 124.27 116.412 127.584C115.823 128.738 115.083 129.807 114.211 130.765C112.194 132.832 109.248 133.78 106.36 133.945C103.472 134.111 97.1865 134.015 94.3556 133.468C94.3556 133.659 94.3556 133.844 94.3556 134.041C94.311 144.035 100.425 162.172 96.2641 165.786C95.8824 166.123 92.9242 166.664 89.139 167.268C83.7124 168.14 76.6 169.132 72.9229 169.813C71.6506 170.055 70.0856 170.214 69.2013 169.247C69.1313 169.17 69.0741 169.088 69.0105 169.005C68.624 168.228 68.4072 167.378 68.3743 166.511C68.0626 164.399 67.0129 162.497 66.2431 160.512C63.8002 154.22 64.1374 147.229 62.865 140.6C62.3879 138.087 61.6754 135.625 61.3255 133.093C61.0086 130.674 60.9553 128.227 61.1665 125.796C61.3637 123.251 62.1144 120.331 64.4746 119.434L64.57 119.396C65.2761 119.161 66.0841 119.072 66.5739 118.506C67.2101 117.799 66.9938 116.724 67.2101 115.815C67.2101 115.732 67.2546 115.655 67.2801 115.573C67.8081 114.046 69.6339 113.194 71.2752 113.289C72.7448 113.378 73.8581 114.084 75.175 114.638C76.231 115.083 77.2298 114.93 78.3558 114.981C81.2504 115.127 82.5737 114.746 85.1756 116.12C85.5573 116.323 85.0865 118.283 85.4555 118.518C86.4861 119.154 89.9533 118.957 91.0029 119.587C93.4188 120.945 96.0147 121.953 98.7134 122.583C100.832 123.143 103.167 123.627 105.164 122.749C106.914 121.979 108.078 120.338 109.159 118.766C110.597 116.661 112.041 114.568 113.479 112.468C113.867 111.902 114.363 111.272 115.05 111.253C115.466 111.288 115.864 111.435 116.202 111.679L118.626 113.155C119.262 113.468 119.803 113.948 120.191 114.542C120.508 115.321 120.553 116.184 120.318 116.991Z" fill="#FD772B"/>
<path d="M68.9977 168.986C68.5475 168.741 68.1429 168.42 67.8017 168.038C66.7266 166.842 66.135 165.277 65.098 164.036C64.3982 163.19 63.5076 162.51 62.8778 161.613C62.3164 160.746 61.8975 159.794 61.6372 158.794C58.8826 149.678 58.3737 140.04 58.2591 130.51C58.1398 128.656 58.3246 126.795 58.8063 125.001C59.2227 123.755 59.9116 122.617 60.8227 121.671C61.7339 120.725 62.8445 119.993 64.0738 119.53C64.2244 119.469 64.3797 119.42 64.5382 119.384L64.4427 119.422C62.0825 120.312 61.3319 123.239 61.1346 125.783C60.9314 128.217 60.9933 130.666 61.3191 133.087C61.669 135.631 62.3815 138.081 62.8587 140.594C64.131 147.222 63.7938 154.214 66.2368 160.506C67.0065 162.491 68.0562 164.393 68.3679 166.505C68.4006 167.367 68.6153 168.213 68.9977 168.986Z" fill="#FD772B"/>
<path d="M68.9977 168.986C68.5475 168.741 68.1429 168.42 67.8017 168.038C66.7266 166.842 66.135 165.277 65.098 164.036C64.3982 163.19 63.5076 162.51 62.8778 161.613C62.3164 160.746 61.8975 159.794 61.6372 158.794C58.8826 149.678 58.3737 140.04 58.2591 130.51C58.1398 128.656 58.3246 126.795 58.8063 125.001C59.2227 123.755 59.9116 122.617 60.8227 121.671C61.7339 120.725 62.8445 119.993 64.0738 119.53C64.2244 119.469 64.3797 119.42 64.5382 119.384L64.4427 119.422C62.0825 120.312 61.3319 123.239 61.1346 125.783C60.9314 128.217 60.9933 130.666 61.3191 133.087C61.669 135.631 62.3815 138.081 62.8587 140.594C64.131 147.222 63.7938 154.214 66.2368 160.506C67.0065 162.491 68.0562 164.393 68.3679 166.505C68.4006 167.367 68.6153 168.213 68.9977 168.986Z" fill="url(#paint8_linear)"/>
<path d="M82.4273 126.82C82.0584 129.702 80.8942 132.419 80.0481 135.205C76.8672 145.791 78.2731 157.681 73.2283 167.516C72.9733 168.104 72.5857 168.624 72.0959 169.037C71.6285 169.325 71.0884 169.473 70.5394 169.464C69.9904 169.455 69.4554 169.289 68.9977 168.986C68.6113 168.209 68.3945 167.359 68.3616 166.492C68.0498 164.38 67.0002 162.478 66.2304 160.493C63.7875 154.201 64.1247 147.21 62.8523 140.581C62.3752 138.068 61.6627 135.606 61.3128 133.074C60.9959 130.655 60.9426 128.208 61.1537 125.777C61.3509 123.232 62.1016 120.312 64.4618 119.415L64.5573 119.377C65.2634 119.142 66.0713 119.053 66.5612 118.486C67.1974 117.78 66.9811 116.705 67.1974 115.795C67.1974 115.713 67.2419 115.636 67.2673 115.554C67.0701 118.028 66.0586 122.011 65.995 122.889C65.9187 124.797 67.6554 126.388 69.513 126.789C71.3707 127.189 73.2919 126.68 75.105 126.095C78.0311 125.248 80.7019 123.69 82.879 121.559C83.2098 123.054 82.6309 125.255 82.4273 126.82Z" fill="url(#paint9_linear)"/>
<path d="M96.2514 165.748C95.8697 166.085 92.9115 166.625 89.1262 167.23C89.4125 165.162 90.4813 163.26 91.0984 161.256C92.0526 158.145 91.9127 154.805 91.5628 151.567C90.8757 145.307 89.438 139.156 88.5155 132.927C88.4583 132.565 92.797 133.564 94.3556 133.43C94.311 143.424 100.444 162.134 96.2514 165.748Z" fill="url(#paint10_linear)"/>
<path d="M258.736 161.714C246.299 181.385 230.433 198.612 214.49 215.579H146C143.338 215.58 140.702 215.056 138.242 214.038C135.782 213.02 133.547 211.527 131.664 209.645C129.781 207.763 128.288 205.528 127.269 203.069C126.25 200.609 125.725 197.973 125.725 195.311V64.8253C125.725 62.1631 126.25 59.527 127.269 57.0675C128.288 54.608 129.781 52.3733 131.664 50.4911C133.547 48.6089 135.782 47.1161 138.242 46.0979C140.702 45.0797 143.338 44.5561 146 44.5569H240.077C245.773 48.0151 251.023 52.16 255.708 56.8986C268.018 69.4121 276.027 86.3089 276.963 103.823C278.063 124.365 269.717 144.334 258.736 161.714Z" fill="#FD772B"/>
<path d="M276.517 116.266C276.203 118.811 275.779 121.32 275.245 123.792C272.312 137.184 266.128 150.034 258.749 161.702C248.831 177.383 236.737 191.519 224.167 205.197C220.973 208.675 217.752 212.131 214.503 215.566H146C143.338 215.567 140.702 215.044 138.242 214.025C135.782 213.007 133.547 211.514 131.664 209.632C129.781 207.75 128.288 205.515 127.269 203.056C126.25 200.596 125.725 197.96 125.725 195.298V64.8253C125.725 62.1631 126.25 59.527 127.269 57.0675C128.288 54.608 129.781 52.3733 131.664 50.4911C133.547 48.6089 135.782 47.1161 138.242 46.0979C140.702 45.0797 143.338 44.5561 146 44.5569H240.077C245.773 48.0151 251.023 52.16 255.708 56.8986C263.211 64.5221 269.015 73.6477 272.738 83.6751C275.15 90.1407 276.574 96.9328 276.963 103.823C277.179 107.976 277.03 112.139 276.517 116.266Z" fill="url(#paint11_linear)"/>
<path d="M276.517 116.266H153.812V83.675H272.738C275.15 90.1407 276.574 96.9327 276.963 103.823C277.179 107.976 277.03 112.139 276.517 116.266Z" fill="url(#paint12_linear)"/>
<path d="M175.569 73.3628H140.3C136.744 73.3628 133.862 76.2452 133.862 79.8009V91.2202C133.862 94.7758 136.744 97.6582 140.3 97.6582H175.569C179.125 97.6582 182.007 94.7758 182.007 91.2202V79.8009C182.007 76.2452 179.125 73.3628 175.569 73.3628Z" fill="url(#paint13_linear)"/>
<path d="M275.232 123.792C272.299 137.183 266.116 150.034 258.736 161.702C248.818 177.383 236.725 191.519 224.154 205.197H153.812V123.767L275.232 123.792Z" fill="url(#paint14_linear)"/>
<path d="M115.693 55.9188L127.061 67.9552L129.065 66.4538L122.551 51.2429L115.693 55.9188Z" fill="#FD772B"/>
<path d="M134.415 46.7262L137.259 63.7756L139.937 63.6102L141.941 45.2249L134.415 46.7262Z" fill="#FD772B"/>
<path d="M108.51 70.6335L124.72 73.808V77.6505L107.836 77.8223L108.51 70.6335Z" fill="#FD772B"/>
<path d="M173.953 73.3628H138.684C135.128 73.3628 132.246 76.2452 132.246 79.8009V91.2202C132.246 94.7758 135.128 97.6582 138.684 97.6582H173.953C177.509 97.6582 180.392 94.7758 180.392 91.2202V79.8009C180.392 76.2452 177.509 73.3628 173.953 73.3628Z" fill="#FD772B"/>
<path d="M172.948 73.3628H137.679C134.123 73.3628 131.241 76.2452 131.241 79.8009V91.2202C131.241 94.7758 134.123 97.6582 137.679 97.6582H172.948C176.504 97.6582 179.386 94.7758 179.386 91.2202V79.8009C179.386 76.2452 176.504 73.3628 172.948 73.3628Z" fill="url(#paint15_linear)"/>
<path d="M180.392 79.1328H132.246V92.1998H180.392V79.1328Z" fill="url(#paint16_linear)"/>
<path d="M155.314 87.5684L152.807 87.7401L158.488 109.803L160.995 109.637L166.345 104.287L172.866 117.831L175.372 117.659L181.053 113.982L170.022 101.946L177.713 97.6008L155.314 87.5684Z" fill="url(#paint17_linear)"/>
<path d="M152.807 87.7402L158.488 109.803L163.838 104.452L172.866 117.831L178.547 114.148L167.515 102.111L175.207 97.7663L152.807 87.7402Z" fill="white"/>
</g>
<ellipse cx="28" cy="38.7894" rx="28" ry="28.2105" fill="#FD772B"/>
<path d="M25.0559 58V30.1376H19.2316V25.3102C23.1145 25.3102 25.5107 23.9634 26.4202 21.2699H31.3525V58H25.0559Z" fill="white"/>
<defs>
<linearGradient id="paint0_linear" x1="8.5" y1="311" x2="8.5" y2="362.75" gradientUnits="userSpaceOnUse">
<stop stop-color="#FAA913"/>
<stop offset="0.5" stop-color="#FD772B"/>
<stop offset="1" stop-color="#FF4444"/>
</linearGradient>
<linearGradient id="paint1_linear" x1="64" y1="306.5" x2="73.75" y2="306.5" gradientUnits="userSpaceOnUse">
<stop stop-color="#FAA913"/>
<stop offset="0.5" stop-color="#FD772B"/>
<stop offset="1" stop-color="#FF4444"/>
</linearGradient>
<linearGradient id="paint2_linear" x1="98.9997" y1="205.267" x2="59.8114" y2="287.257" gradientUnits="userSpaceOnUse">
<stop offset="0.01"/>
<stop offset="0.23" stop-opacity="0.11"/>
<stop offset="0.32" stop-opacity="0.08"/>
<stop offset="1" stop-opacity="0"/>
</linearGradient>
<linearGradient id="paint3_linear" x1="89.9787" y1="237.482" x2="87.8094" y2="245.008" gradientUnits="userSpaceOnUse">
<stop offset="0.01"/>
<stop offset="0.54" stop-opacity="0.11"/>
<stop offset="0.6" stop-opacity="0.08"/>
<stop offset="1" stop-opacity="0"/>
</linearGradient>
<linearGradient id="paint4_linear" x1="93.6749" y1="195.094" x2="57.1204" y2="201.558" gradientUnits="userSpaceOnUse">
<stop offset="0.01"/>
<stop offset="0.13" stop-opacity="0.69"/>
<stop offset="1" stop-opacity="0"/>
</linearGradient>
<linearGradient id="paint5_linear" x1="1590.26" y1="3325.15" x2="1560.13" y2="3484.31" gradientUnits="userSpaceOnUse">
<stop offset="0.01"/>
<stop offset="0.13" stop-opacity="0.69"/>
<stop offset="1" stop-opacity="0"/>
</linearGradient>
<linearGradient id="paint6_linear" x1="2617.8" y1="20620.1" x2="2045.45" y2="20616.2" gradientUnits="userSpaceOnUse">
<stop offset="0.01"/>
<stop offset="0.54" stop-opacity="0.11"/>
<stop offset="0.6" stop-opacity="0.08"/>
<stop offset="1" stop-opacity="0"/>
</linearGradient>
<linearGradient id="paint7_linear" x1="2311.95" y1="2612.24" x2="2803.59" y2="2668.11" gradientUnits="userSpaceOnUse">
<stop offset="0.01"/>
<stop offset="0.54" stop-opacity="0.11"/>
<stop offset="0.6" stop-opacity="0.08"/>
<stop offset="1" stop-opacity="0"/>
</linearGradient>
<linearGradient id="paint8_linear" x1="1262.41" y1="9325.09" x2="1075.42" y2="9323.84" gradientUnits="userSpaceOnUse">
<stop offset="0.01"/>
<stop offset="0.13" stop-opacity="0.69"/>
<stop offset="1" stop-opacity="0"/>
</linearGradient>
<linearGradient id="paint9_linear" x1="2128.01" y1="6358.44" x2="4267.55" y2="8633.18" gradientUnits="userSpaceOnUse">
<stop offset="0.01"/>
<stop offset="0.13" stop-opacity="0.69"/>
<stop offset="1" stop-opacity="0"/>
</linearGradient>
<linearGradient id="paint10_linear" x1="1872.8" y1="7828.96" x2="711.684" y2="7641.2" gradientUnits="userSpaceOnUse">
<stop offset="0.01"/>
<stop offset="0.13" stop-opacity="0.69"/>
<stop offset="1" stop-opacity="0"/>
</linearGradient>
<linearGradient id="paint11_linear" x1="47.7432" y1="-39.9904" x2="263.049" y2="215.433" gradientUnits="userSpaceOnUse">
<stop offset="0.02" stop-color="white" stop-opacity="0.05"/>
<stop offset="0.03" stop-color="white" stop-opacity="0.16"/>
<stop offset="0.04" stop-color="white" stop-opacity="0.24"/>
<stop offset="0.06" stop-color="white" stop-opacity="0.31"/>
<stop offset="0.07" stop-color="white" stop-opacity="0.36"/>
<stop offset="0.1" stop-color="white" stop-opacity="0.38"/>
<stop offset="0.16" stop-color="white" stop-opacity="0.39"/>
<stop offset="0.84" stop-color="white" stop-opacity="0.68"/>
<stop offset="1" stop-color="white"/>
</linearGradient>
<linearGradient id="paint12_linear" x1="26958.7" y1="3862.61" x2="50836.5" y2="3862.61" gradientUnits="userSpaceOnUse">
<stop offset="0.02" stop-color="white" stop-opacity="0.05"/>
<stop offset="0.03" stop-color="white" stop-opacity="0.16"/>
<stop offset="0.04" stop-color="white" stop-opacity="0.24"/>
<stop offset="0.06" stop-color="white" stop-opacity="0.31"/>
<stop offset="0.07" stop-color="white" stop-opacity="0.36"/>
<stop offset="0.1" stop-color="white" stop-opacity="0.38"/>
<stop offset="0.16" stop-color="white" stop-opacity="0.39"/>
<stop offset="0.84" stop-color="white" stop-opacity="0.68"/>
<stop offset="1" stop-color="white"/>
</linearGradient>
<linearGradient id="paint13_linear" x1="9961.81" y1="2155" x2="13605" y2="2155" gradientUnits="userSpaceOnUse">
<stop offset="0.01"/>
<stop offset="0.13" stop-opacity="0.69"/>
<stop offset="1" stop-opacity="0"/>
</linearGradient>
<linearGradient id="paint14_linear" x1="24012.8" y1="17824.2" x2="47188.2" y2="17824.2" gradientUnits="userSpaceOnUse">
<stop offset="0.02" stop-color="white" stop-opacity="0.05"/>
<stop offset="0.03" stop-color="white" stop-opacity="0.16"/>
<stop offset="0.04" stop-color="white" stop-opacity="0.24"/>
<stop offset="0.06" stop-color="white" stop-opacity="0.31"/>
<stop offset="0.07" stop-color="white" stop-opacity="0.36"/>
<stop offset="0.1" stop-color="white" stop-opacity="0.38"/>
<stop offset="0.16" stop-color="white" stop-opacity="0.39"/>
<stop offset="0.84" stop-color="white" stop-opacity="0.68"/>
<stop offset="1" stop-color="white"/>
</linearGradient>
<linearGradient id="paint15_linear" x1="11582.7" y1="2814.86" x2="11582.7" y2="1776.23" gradientUnits="userSpaceOnUse">
<stop offset="0.01"/>
<stop offset="0.13" stop-opacity="0.69"/>
<stop offset="1" stop-opacity="0"/>
</linearGradient>
<linearGradient id="paint16_linear" x1="11916.3" y1="2054.99" x2="11883.8" y2="590.186" gradientUnits="userSpaceOnUse">
<stop offset="0.01"/>
<stop offset="0.13" stop-opacity="0.69"/>
<stop offset="1" stop-opacity="0"/>
</linearGradient>
<linearGradient id="paint17_linear" x1="8134.29" y1="2692.28" x2="5325.04" y2="5045.52" gradientUnits="userSpaceOnUse">
<stop offset="0.01"/>
<stop offset="0.13" stop-opacity="0.69"/>
<stop offset="1" stop-opacity="0"/>
</linearGradient>
<clipPath id="clip0">
<rect width="273.058" height="242" fill="white" transform="translate(4 31)"/>
</clipPath>
</defs>
</svg>
