<svg width="279" height="315" viewBox="0 0 279 315" fill="none" xmlns="http://www.w3.org/2000/svg">
<rect y="315" width="9" height="51.75" rx="4.5" transform="rotate(-90 0 315)" fill="url(#paint0_linear)"/>
<path d="M64.5 315C62.0147 315 60 312.985 60 310.5C60 308.015 62.0147 306 64.5 306H65.25C67.7353 306 69.75 308.015 69.75 310.5C69.75 312.985 67.7353 315 65.25 315H64.5Z" fill="url(#paint1_linear)"/>
<g clip-path="url(#clip0)">
<path opacity="0.18" d="M277.802 205.99C277.269 215.993 276.186 226.151 272.423 235.315C265.549 252.078 250.212 263.663 233.784 268.764C229.608 270.046 225.348 270.994 221.04 271.599C208.456 273.424 195.51 272.628 182.862 270.96C172.007 269.525 161.217 267.45 150.378 265.859C144.272 264.994 138.142 264.216 131.996 263.827C120.228 263.092 108.436 263.646 96.6769 264.554C96.1277 264.554 95.5704 264.631 95.0616 264.683C84.3763 265.548 73.5214 266.646 62.9492 265.262C60.5029 264.955 58.0758 264.493 55.6803 263.879C54.4473 263.568 53.2278 263.205 52.0217 262.79C39.8665 258.666 29.2054 250.012 19.8285 241.081C10.1771 231.892 5.6542 217.644 5.21807 204.105C4.70117 188.163 2.68203 161.544 53.2089 117.886C63.8215 108.67 62.925 90.6096 67.9728 77.0018C75.2417 57.4893 90.1349 40.8471 108.848 34.5101C116.925 31.7608 125.51 30.9395 133.999 31.0519C144.79 31.1474 155.53 32.6512 165.982 35.5302C185.721 40.9335 209.143 51.9045 224.028 68.7542C226.602 71.6449 228.927 74.7786 230.974 78.1171C243.654 98.935 242.224 126.021 255.276 146.709C260.93 155.64 269.006 162.746 273.497 172.403C278.286 182.604 278.415 194.561 277.802 205.99Z" fill="#FD772B"/>
<path d="M96.6769 264.553C96.1277 264.553 95.5704 264.631 95.0616 264.683C84.3763 265.548 73.5214 266.646 62.9492 265.262C60.5029 264.955 58.0757 264.493 55.6803 263.879C54.4473 263.568 53.2278 263.205 52.0217 262.79C50.9394 225.909 80.5238 177.063 84.1259 171.201L95.215 171.703L130.259 173.285C98.5749 205.48 95.6027 244.202 96.6769 264.553Z" fill="#FD772B"/>
<path d="M96.6769 264.553C96.1277 264.553 95.5704 264.631 95.0616 264.683C84.3763 265.548 73.5214 266.646 62.9492 265.262C60.5029 264.955 58.0757 264.493 55.6803 263.879C54.4473 263.568 53.2278 263.205 52.0217 262.79C50.9394 225.909 80.5238 177.063 84.1259 171.201L95.215 171.703L130.259 173.285C98.5749 205.48 95.6027 244.202 96.6769 264.553Z" fill="url(#paint2_linear)"/>
<path d="M96.2408 170.631C95.8854 170.985 95.5381 171.34 95.1989 171.703C62.6989 205.592 61.3743 246.269 62.9089 265.245C60.4626 264.938 58.0354 264.476 55.64 263.862C54.4069 263.551 53.1874 263.188 51.9813 262.773C50.9394 225.909 80.5238 177.063 84.1259 171.201L84.4894 170.631H96.2408Z" fill="#FD772B"/>
<path d="M177.063 92.3385C175.738 94.9321 176.15 98.0617 175.569 100.923C175.396 101.733 175.175 102.53 174.906 103.309C173.889 106.439 172.605 109.655 170.157 111.687C169.404 112.153 168.782 112.828 168.356 113.641C168.233 114.062 168.206 114.509 168.278 114.944C168.35 115.378 168.518 115.788 168.768 116.139C169.282 116.814 169.893 117.398 170.577 117.868C170.44 119.364 170.48 121.136 170.335 122.623C170.02 125.917 169.818 129.626 171.853 132.133C173.469 134.061 175.956 134.727 178.315 135.021C180.673 135.314 183.161 135.47 185.277 136.75C189.735 139.404 190.93 146.147 195.364 148.853C196.685 149.601 198.132 150.056 199.621 150.193C202.762 150.67 205.963 150.039 208.739 148.395C211.445 146.666 220.297 143.847 217.898 141.66C215.281 139.283 211.267 132.539 209.393 128.951C207.307 124.963 205.889 120.616 205.201 116.105C204.636 112.344 204.58 108.523 204.055 104.762C203.53 101.001 202.439 97.1972 200.186 94.2751C196.786 89.9524 191.229 88.2234 185.947 87.9035C184.472 87.7446 182.983 87.8616 181.545 88.2493C180.825 88.4442 180.15 88.7959 179.562 89.2822C178.974 89.7686 178.487 90.3793 178.129 91.0763" fill="#F9BA9F"/>
<path d="M229.108 110.01C228.898 112.008 228.383 113.957 227.582 115.776C227.121 117.002 226.462 118.132 225.635 119.113C224.02 120.652 223.971 123.254 222.978 125.286C222.299 126.584 221.358 127.703 220.224 128.562C217.954 130.356 215.306 131.524 212.514 131.963C209.722 132.402 206.872 132.098 204.216 131.078L203.408 130.75C201.036 129.564 198.787 128.116 196.697 126.427C196.566 126.334 196.46 126.206 196.39 126.055C196.253 125.692 196.543 125.329 196.802 125.044C197.655 124.106 198.327 122.997 198.779 121.78C199.231 120.564 199.454 119.264 199.435 117.955C199.476 116.835 199.154 115.736 198.522 114.842C198.195 114.41 197.74 114.11 197.232 113.99C196.725 113.871 196.194 113.94 195.728 114.185C194.92 114.678 194.112 115.854 193.418 115.223C193.214 114.984 193.089 114.68 193.062 114.358C192.831 112.434 192.355 110.552 191.649 108.765C190.699 107.039 189.53 105.462 188.176 104.079C185.028 100.366 182.499 96.1023 180.697 91.474C180.589 91.0573 180.349 90.6937 180.019 90.4452C179.709 90.2997 179.367 90.2517 179.033 90.3069C177.561 90.3992 176.084 90.3703 174.616 90.2204C173.867 90.22 173.139 89.9523 172.548 89.4596C171.546 88.4308 171.999 86.598 172.806 85.3963C174.64 82.6385 177.701 81.1947 180.616 79.8893C179.865 79.3619 178.678 78.2034 177.927 77.6761C177.667 77.5309 177.458 77.3007 177.329 77.019C177.168 76.483 177.652 75.9643 178.137 75.7049C178.982 75.2467 179.938 75.0806 180.875 75.2294C180.738 72.8433 178.347 70.6301 179.26 68.4515C179.881 67.0164 181.683 66.6446 183.12 67.025C184.558 67.4054 185.802 68.3478 187.199 68.8492C187.514 67.8031 186.642 66.7138 186.803 65.6245C186.89 65.2342 187.078 64.8781 187.345 64.5967C187.612 64.3154 187.947 64.1203 188.313 64.0337C189.058 63.8767 189.828 63.9243 190.551 64.1721C192.242 64.6569 193.81 65.5434 195.138 66.7657C195.914 67.6436 196.791 68.4134 197.747 69.0567C199.637 70.1028 201.906 69.5235 204.03 69.5235C206.534 69.6314 208.999 70.2322 211.299 71.2958C212.826 71.9093 214.32 72.6136 215.774 73.4053C217.713 74.4381 219.522 75.7277 221.161 77.2438C225.296 81.1342 227.88 86.6759 229.019 92.4336C230.034 98.2391 230.064 104.193 229.108 110.01Z" fill="#FF681C"/>
<path d="M41.0133 82.3446L45.1324 77.728L143.028 82.3446L165.788 168.66L161.669 173.276H59.4521L41.0133 82.3446Z" fill="#FD772B"/>
<path d="M41.0133 82.3446L45.1324 77.728L143.028 82.3446L165.788 168.66L161.669 173.276H59.4521L41.0133 82.3446Z" fill="url(#paint3_linear)"/>
<path d="M45.1324 77.728H147.147L165.788 168.66H63.5711L45.1324 77.728Z" fill="#FD772B"/>
<path d="M49.2514 80.8315H144.304L161.669 165.556H66.4302L49.2514 80.8315Z" fill="white"/>
<path d="M123.443 200.457C123.375 201.068 123.167 201.652 122.835 202.155C122.504 202.657 122.06 203.064 121.545 203.336C120.058 204.27 118.241 204.322 116.513 204.348C115.314 204.461 114.107 204.292 112.975 203.855C112.01 203.297 111.143 202.563 110.415 201.685C106.215 197.362 100.634 194.086 98.5507 188.284C97.5411 185.466 97.4926 182.38 97.4603 179.38C97.4603 176.19 97.4603 172.688 99.4391 170.294C100.982 168.4 103.534 167.441 104.535 165.167C102.849 164.151 101.319 162.866 99.9963 161.354C99.3443 160.59 98.8607 159.68 98.5811 158.689C98.3016 157.699 98.2332 156.654 98.381 155.631C100.721 156.466 102.962 157.589 105.06 158.977C108.887 161.509 112.2 164.837 114.803 168.765C117.405 172.693 119.245 177.141 120.212 181.844C121.02 186.002 121.1 190.325 122.166 194.431C122.643 196.333 123.653 198.546 123.443 200.457Z" fill="#F9BA9F"/>
<path d="M123.443 200.457C123.058 200.641 122.714 200.909 122.433 201.244C121.343 202.973 118.653 202.532 117.28 201.019C115.907 199.506 115.374 197.371 114.437 195.512C112.095 190.8 107.023 187.256 107.039 181.921C107.039 177.798 110.27 174.141 109.979 170.086C109.817 167.942 108.727 166.196 107.556 164.57C106.468 162.852 105.632 160.966 105.076 158.977C108.903 161.509 112.216 164.837 114.819 168.765C117.422 172.693 119.261 177.141 120.228 181.844C121.036 186.002 121.117 190.325 122.183 194.431C122.643 196.333 123.653 198.546 123.443 200.457Z" fill="url(#paint4_linear)"/>
<path d="M226.443 256.462C225.449 261.778 223.963 267.277 221.04 271.6C220.62 271.66 220.232 271.721 219.78 271.764C217.26 272.092 214.729 272.326 212.188 272.464C202.39 272.87 192.578 272.367 182.862 270.96C172.007 269.525 161.217 267.45 150.378 265.859C150.885 265.246 151.466 264.708 152.106 264.26C155.346 261.681 158.017 258.37 159.929 254.564C161.841 250.757 162.948 246.547 163.171 242.231C162.528 241.772 161.779 241.515 161.007 241.488C158.955 241.28 156.314 241.756 154.804 241.557C142.253 239.871 110.665 206.907 110.665 206.907L126.358 198.503L149.708 206.907C149.708 206.907 174.817 164.7 185.018 152.588C195.219 140.476 213.617 140.225 213.617 140.225C215.822 140.137 218.025 140.429 220.143 141.09C232.646 145.006 239.091 161.233 239.931 174.971C241.619 201.996 231.321 230.396 226.443 256.462Z" fill="white"/>
<path d="M229.108 110.01C228.898 112.008 228.383 113.957 227.582 115.776C227.121 117.002 226.462 118.132 225.635 119.113C224.02 120.652 223.971 123.254 222.978 125.286C222.299 126.584 221.358 127.703 220.224 128.562C217.954 130.356 215.306 131.524 212.514 131.963C209.722 132.402 206.872 132.098 204.216 131.078L203.408 130.75C203.061 130.167 202.789 129.535 202.601 128.874L205.831 128.753C205.769 127.541 205.312 126.39 204.539 125.502L211.897 125.346C212.902 125.474 213.918 125.242 214.787 124.687C215.657 124.132 216.33 123.285 216.702 122.277C217.817 120.427 218.972 118.404 218.786 116.226C218.598 114.944 218.178 113.714 217.551 112.603C215.935 109.223 214.32 105.687 213.868 101.944C213.415 98.2001 214.457 93.9725 217.276 91.6383C217.87 91.2441 218.395 90.7408 218.827 90.1513C219.188 89.4415 219.313 88.6216 219.182 87.8257C218.81 84.212 216.186 81.4022 213.714 78.8951L208.246 73.3188C208.86 73.95 211.655 74.0278 212.567 74.339C214.104 74.9027 215.611 75.5549 217.082 76.2928C216.856 75.5753 216.274 74.5638 215.766 73.4053C217.704 74.4382 219.514 75.7278 221.153 77.2438C225.288 81.1342 227.872 86.6759 229.011 92.4337C230.029 98.2386 230.062 104.192 229.108 110.01Z" fill="#D45319"/>
<path d="M226.443 256.462C225.449 261.778 223.963 267.277 221.04 271.6C220.62 271.66 220.232 271.721 219.78 271.764C208.529 272.966 197.973 273.968 186.795 271.349C185.059 270.943 183.007 270.13 182.7 268.254C182.635 267.169 182.896 266.091 183.443 265.176C191.1 248.629 196.002 229.436 195.792 210.883C191.625 210.321 186.48 218.958 183.443 221.906L172.273 232.747C167.427 237.416 161.855 242.396 155.385 241.851C151.573 241.531 148.165 239.309 144.886 237.148L133.393 229.436C130.009 227.18 126.334 224.508 125.446 220.341C130.849 220.782 135.582 224.137 140.428 226.722C145.273 229.307 151.113 231.2 155.983 228.667C159.488 226.843 161.717 223.117 163.801 219.598C177.487 196.442 192.492 174.21 208.731 153.029C212.648 147.92 213.302 140.303 220.167 141.124C232.67 145.041 239.115 161.268 239.955 175.005C241.619 201.996 231.321 230.396 226.443 256.462Z" fill="url(#paint5_linear)"/>
<path opacity="0.18" d="M72.6734 97.5862C73.5234 96.4168 74.5904 95.4484 75.8071 94.7419C77.1977 93.8526 78.7273 93.2404 80.3219 92.935C82.3787 92.6522 84.469 92.9239 86.4028 93.7257C88.3366 94.5274 90.0526 95.8336 91.3948 97.5257C94.0558 100.987 95.4355 105.375 95.2716 109.854C95.8148 109.657 96.4052 109.668 96.9416 109.886C97.478 110.103 97.9269 110.514 98.2114 111.047C98.7424 112.142 98.9401 113.387 98.7768 114.609C98.7607 115.633 98.4813 116.632 97.9691 117.496C97.7047 117.922 97.3235 118.25 96.8781 118.434C96.4326 118.618 95.9447 118.65 95.4816 118.525C95.7575 119.784 95.7643 121.093 95.5014 122.355C95.2385 123.617 94.7126 124.799 93.9632 125.813C93.3332 126.678 92.5175 127.447 92.3479 128.511C92.1863 129.842 93.1555 131.052 94.3185 131.631C95.4971 132.086 96.6999 132.464 97.9207 132.764C100.562 133.849 102.735 135.944 104.018 138.643C105.282 141.322 106.229 144.16 106.837 147.089C106.983 147.677 107.096 148.395 106.676 148.818C106.374 149.051 106.004 149.159 105.634 149.121L73.6426 150.184C73.2791 146.216 73.0691 141.729 75.5648 138.764C77.4951 136.482 80.5319 135.781 83.3587 135.193C83.3241 133.444 82.9414 131.723 82.236 130.144C82.0528 129.652 81.7486 129.222 81.3557 128.9C80.9278 128.663 80.4668 128.502 79.9907 128.424C76.849 127.56 75.1448 123.937 74.3372 120.574C74.2342 119.965 74.0319 119.379 73.7395 118.845C73.2768 118.237 72.6914 117.749 72.0273 117.419C68.1263 115.024 67.3106 112.352 70.1212 108.773C72.6492 105.687 70.2181 101.209 72.6734 97.5862Z" fill="#FD772B"/>
<path opacity="0.32" d="M14.2073 50.4087L27.6547 121.672H67.8194L56.4395 50.4087H14.2073Z" fill="#FD772B"/>
<path opacity="0.32" d="M26.5078 147.487L39.9472 218.759H80.1119L68.732 147.487H26.5078Z" fill="#FD772B"/>
<path opacity="0.32" d="M108.436 50.4087L121.876 121.672H162.04L150.661 50.4087H108.436Z" fill="#FD772B"/>
<path d="M112.693 43.0947L126.132 114.358H166.297L154.917 43.0947H112.693Z" fill="url(#paint6_linear)"/>
<path d="M21.46 52.354L33.3325 115.301H68.8047L58.7575 52.354H21.46Z" fill="url(#paint7_linear)"/>
<path d="M29.5123 144.357L42.9517 215.621H83.1164L71.7365 144.357H29.5123Z" fill="url(#paint8_linear)"/>
</g>
<ellipse cx="28" cy="39.7896" rx="28" ry="28.2105" fill="#FD772B"/>
<path d="M15.2161 58C15.2161 49.3247 19.5538 42.6783 28.2291 38.0608C30.0131 37.1163 31.4124 36.1543 32.4268 35.1749C33.4413 34.1604 33.9485 32.9361 33.9485 31.5018C33.9485 30.0676 33.4238 28.8958 32.3744 27.9863C31.3599 27.0767 30.0131 26.622 28.334 26.622C25.0458 26.622 22.7546 28.1262 21.4603 31.1345L15.7933 28.5634C16.7728 26.1497 18.3819 24.2258 20.6207 22.7916C22.8595 21.3573 25.4131 20.6402 28.2816 20.6402C31.9546 20.6402 34.8755 21.6547 37.0443 23.6836C39.2131 25.7125 40.2976 28.3186 40.2976 31.5018C40.2976 34.3703 39.563 36.6441 38.0938 38.3232C36.6595 39.9673 34.4207 41.6289 31.3774 43.308C28.8238 44.7072 26.8648 46.0715 25.5006 47.4007C24.1363 48.73 23.2268 50.2342 22.7721 51.9133H40.6124V58H15.2161Z" fill="white"/>
<defs>
<linearGradient id="paint0_linear" x1="4.5" y1="315" x2="4.5" y2="366.75" gradientUnits="userSpaceOnUse">
<stop stop-color="#FAA913"/>
<stop offset="0.5" stop-color="#FD772B"/>
<stop offset="1" stop-color="#FF4444"/>
</linearGradient>
<linearGradient id="paint1_linear" x1="60" y1="310.5" x2="69.75" y2="310.5" gradientUnits="userSpaceOnUse">
<stop stop-color="#FAA913"/>
<stop offset="0.5" stop-color="#FD772B"/>
<stop offset="1" stop-color="#FF4444"/>
</linearGradient>
<linearGradient id="paint2_linear" x1="50.7375" y1="122.995" x2="163.251" y2="354.101" gradientUnits="userSpaceOnUse">
<stop offset="0.01"/>
<stop offset="0.13" stop-opacity="0.69"/>
<stop offset="0.25" stop-opacity="0.32"/>
<stop offset="1" stop-opacity="0"/>
</linearGradient>
<linearGradient id="paint3_linear" x1="18016" y1="7305.95" x2="8299.78" y2="26523" gradientUnits="userSpaceOnUse">
<stop offset="0.01"/>
<stop offset="0.13" stop-opacity="0.69"/>
<stop offset="0.25" stop-opacity="0.32"/>
<stop offset="1" stop-opacity="0"/>
</linearGradient>
<linearGradient id="paint4_linear" x1="3407.06" y1="7168.81" x2="1692.85" y2="7585.55" gradientUnits="userSpaceOnUse">
<stop offset="0.01"/>
<stop offset="0.13" stop-opacity="0.69"/>
<stop offset="0.25" stop-opacity="0.32"/>
<stop offset="1" stop-opacity="0"/>
</linearGradient>
<linearGradient id="paint5_linear" x1="66475.4" y1="23390.6" x2="-15239.5" y2="31183.7" gradientUnits="userSpaceOnUse">
<stop offset="0.01"/>
<stop offset="0.13" stop-opacity="0.69"/>
<stop offset="0.25" stop-opacity="0.32"/>
<stop offset="1" stop-opacity="0"/>
</linearGradient>
<linearGradient id="paint6_linear" x1="102.96" y1="49.0946" x2="493.192" y2="317.72" gradientUnits="userSpaceOnUse">
<stop offset="0.01" stop-color="white"/>
<stop offset="0.13" stop-color="white" stop-opacity="0.69"/>
<stop offset="0.15" stop-color="white" stop-opacity="0.61"/>
<stop offset="0.2" stop-color="white" stop-opacity="0.47"/>
<stop offset="0.25" stop-color="white" stop-opacity="0.34"/>
<stop offset="0.3" stop-color="white" stop-opacity="0.23"/>
<stop offset="0.36" stop-color="white" stop-opacity="0.15"/>
<stop offset="0.44" stop-color="white" stop-opacity="0.08"/>
<stop offset="0.52" stop-color="white" stop-opacity="0.03"/>
<stop offset="0.65" stop-color="white" stop-opacity="0.01"/>
<stop offset="1" stop-color="white" stop-opacity="0"/>
</linearGradient>
<linearGradient id="paint7_linear" x1="482.124" y1="1993" x2="23266" y2="14620.3" gradientUnits="userSpaceOnUse">
<stop offset="0.01" stop-color="white"/>
<stop offset="0.13" stop-color="white" stop-opacity="0.69"/>
<stop offset="0.15" stop-color="white" stop-opacity="0.61"/>
<stop offset="0.2" stop-color="white" stop-opacity="0.47"/>
<stop offset="0.25" stop-color="white" stop-opacity="0.34"/>
<stop offset="0.3" stop-color="white" stop-opacity="0.23"/>
<stop offset="0.36" stop-color="white" stop-opacity="0.15"/>
<stop offset="0.44" stop-color="white" stop-opacity="0.08"/>
<stop offset="0.52" stop-color="white" stop-opacity="0.03"/>
<stop offset="0.65" stop-color="white" stop-opacity="0.01"/>
<stop offset="1" stop-color="white" stop-opacity="0"/>
</linearGradient>
<linearGradient id="paint8_linear" x1="1010.47" y1="9982.99" x2="30212.1" y2="26168.2" gradientUnits="userSpaceOnUse">
<stop offset="0.01" stop-color="white"/>
<stop offset="0.13" stop-color="white" stop-opacity="0.69"/>
<stop offset="0.15" stop-color="white" stop-opacity="0.61"/>
<stop offset="0.2" stop-color="white" stop-opacity="0.47"/>
<stop offset="0.25" stop-color="white" stop-opacity="0.34"/>
<stop offset="0.3" stop-color="white" stop-opacity="0.23"/>
<stop offset="0.36" stop-color="white" stop-opacity="0.15"/>
<stop offset="0.44" stop-color="white" stop-opacity="0.08"/>
<stop offset="0.52" stop-color="white" stop-opacity="0.03"/>
<stop offset="0.65" stop-color="white" stop-opacity="0.01"/>
<stop offset="1" stop-color="white" stop-opacity="0"/>
</linearGradient>
<clipPath id="clip0">
<rect width="273.06" height="242" fill="white" transform="translate(5 31)"/>
</clipPath>
</defs>
</svg>
