<svg width="284" height="316" viewBox="0 0 284 316" fill="none" xmlns="http://www.w3.org/2000/svg">
<rect y="316" width="9" height="51.75" rx="4.5" transform="rotate(-90 0 316)" fill="url(#paint0_linear)"/>
<path d="M64.5 316C62.0147 316 60 313.985 60 311.5C60 309.015 62.0147 307 64.5 307H65.25C67.7353 307 69.75 309.015 69.75 311.5C69.75 313.985 67.7353 316 65.25 316H64.5Z" fill="url(#paint1_linear)"/>
<g clip-path="url(#clip0)">
<path opacity="0.18" d="M218.216 44.1303C212.081 41.6597 206.487 37.7595 200.381 35.2296C192.094 31.8037 183.14 30.9867 174.27 30.9999C145.668 30.9999 116.489 39.8348 94.1355 59.6061C85.2297 67.4659 77.2276 77.1441 66.5679 81.5253C58.1318 85.0039 48.2153 85.0895 41.3903 91.5922C33.7568 98.8392 32.8115 111.482 33.4952 122.616C34.1789 133.75 35.8138 145.51 31.5214 155.604C29.0006 161.533 24.6785 166.217 21.1352 171.462C16.3332 178.58 12.9638 186.757 11.2543 195.44C9.54473 204.124 9.53469 213.113 11.2249 221.801C12.915 230.489 16.2661 238.675 21.0523 245.806C25.8384 252.938 31.9485 258.85 38.9706 263.144C53.0071 271.709 69.6475 273.263 85.6815 272.967C100.318 272.697 115.627 270.793 127.773 261.734C135.597 255.89 141.744 247.325 150.24 242.78C160.483 237.311 172.433 238.51 183.806 238.431C197.278 238.326 211.082 236.112 222.836 228.812C234.589 221.513 244 208.448 245.071 193.572C245.885 182.154 241.932 170.249 245.386 159.464C246.7 155.36 249.012 151.743 251.491 148.37C260.611 135.911 272.686 125.594 278.447 110.836C281.568 102.851 282.608 94.0562 282.977 85.3662C283.429 74.4231 282.097 61.8132 273.994 55.528C266.646 49.8292 257.597 52.4645 249.315 51.1468C239.137 49.5063 227.913 48.0174 218.216 44.1303Z" fill="#FD772B"/>
<path d="M110.045 157.218C110.045 157.218 83.7435 150.07 66.1221 166.29C48.5007 182.51 68.6072 175.645 75.0398 177.846C81.4724 180.046 91.1689 184.17 91.1689 184.17C91.1689 184.17 117.987 170.131 110.045 157.218Z" fill="#3E3E54"/>
<path d="M110.045 157.218C110.045 157.218 83.7435 150.07 66.1221 166.29C48.5007 182.51 68.6072 175.645 75.0398 177.846C81.4724 180.046 91.1689 184.17 91.1689 184.17C91.1689 184.17 117.987 170.131 110.045 157.218Z" fill="url(#paint2_linear)"/>
<path d="M100.83 203.494C100.83 203.494 117.375 191.398 127.63 195.061L136.233 197.993C136.233 197.993 130.942 235.032 101.49 238.332C101.49 238.332 95.2057 239.064 102.156 226.23C109.105 213.396 100.83 203.494 100.83 203.494Z" fill="#3E3E54"/>
<path d="M100.83 203.494C100.83 203.494 117.375 191.398 127.63 195.061L136.233 197.993C136.233 197.993 130.942 235.032 101.49 238.332C101.49 238.332 95.2057 239.064 102.156 226.23C109.105 213.396 100.83 203.494 100.83 203.494Z" fill="url(#paint3_linear)"/>
<path d="M146.91 82.81C148.094 83.5079 149.367 84.0012 150.686 84.2726C152.63 84.5559 154.562 83.8707 156.447 83.2843C158.641 82.6045 160.866 82.0481 163.111 81.6175C164.348 81.3869 165.792 81.2617 166.678 82.2763C167.564 83.2909 167.386 85.0434 166.613 86.17C165.84 87.2966 164.645 87.9422 163.491 88.5549L156.726 92.1324C155.568 92.7939 154.358 93.3364 153.111 93.7531C147.957 95.2947 142.606 92.4354 138.118 89.2533C136.388 88.0147 134.515 86.3808 134.444 84.1013C134.466 83.1967 134.635 82.304 134.943 81.466C135.184 80.4262 135.673 79.4774 136.358 78.7187C138.403 76.762 144.848 81.7361 146.91 82.81Z" fill="#FD772B"/>
<path d="M146.768 82.8892C147.952 83.5872 149.225 84.0804 150.543 84.3518C152.487 84.6351 154.419 83.9499 156.304 83.3636C158.506 82.6819 160.738 82.1277 162.992 81.7033C164.223 81.4662 165.673 81.341 166.559 82.3622C167.445 83.3833 167.267 85.1226 166.494 86.2492C165.721 87.3758 164.526 88.0215 163.373 88.6342L156.607 92.2116C155.449 92.8732 154.239 93.4157 152.992 93.8323C147.838 95.374 142.487 92.5147 137.999 89.3325C136.269 88.1005 134.396 86.4601 134.325 84.1805C134.343 83.2754 134.512 82.3819 134.824 81.5452C135.055 80.5185 135.527 79.5776 136.191 78.8177C138.26 76.8412 144.681 81.8219 146.768 82.8892Z" fill="url(#paint4_linear)"/>
<path d="M160.358 110.632C158.438 113.926 155.971 116.832 153.521 119.685C151.072 122.537 148.623 125.344 145.365 126.681C143.76 127.34 141.857 127.564 140.395 126.563C138.807 125.482 138.153 123.17 138.451 121.127C138.848 119.092 139.762 117.225 141.084 115.745C142.098 114.358 143.225 113.077 144.449 111.917C145.793 110.784 147.22 110.843 148.973 110.705C152.763 110.401 156.566 110.377 160.358 110.632Z" fill="#3E3E54"/>
<path d="M160.358 110.632C158.438 113.926 155.971 116.832 153.521 119.685C151.072 122.537 148.623 125.344 145.365 126.681C143.76 127.34 141.857 127.564 140.395 126.563C138.807 125.482 138.153 123.17 138.451 121.127C138.848 119.092 139.762 117.225 141.084 115.745C142.098 114.358 143.225 113.077 144.449 111.917C145.793 110.784 147.22 110.843 148.973 110.705C152.763 110.401 156.566 110.377 160.358 110.632Z" fill="url(#paint5_linear)"/>
<path d="M261.491 81.1236C261.255 82.7157 260.941 84.2926 260.552 85.8474C258.492 93.9963 255.575 101.849 251.86 109.242C243.584 126.062 228.424 148.113 200.934 168.537C157.772 200.727 119.89 206.09 105.913 206.9C102.215 207.131 100.188 207.045 100.188 207.045L87.5305 185.304C87.5305 185.304 101.799 161.764 127.553 137.078C139.431 125.622 152.319 115.522 166.024 106.93C174.226 101.809 182.717 97.2799 191.445 93.3712C203.424 87.9278 215.921 84.0091 228.698 81.6902C249.393 78.1193 261.491 81.1236 261.491 81.1236Z" fill="#FD772B"/>
<path d="M160.049 116.45C159.455 117.669 161.304 121.556 162.314 122.379C163.325 123.203 164.562 123.697 165.287 124.843C165.433 125.043 165.536 125.276 165.591 125.525C165.645 125.775 165.649 126.035 165.602 126.286C165.412 127.024 164.651 127.353 163.991 127.604L146.251 133.652C145.759 133.767 145.304 134.024 144.931 134.396C144.217 135.24 144.574 136.715 145.389 137.42C146.271 138.048 147.316 138.336 148.361 138.237C154.098 138.237 160.4 135.602 165.204 139.054C166.57 140.136 167.755 141.474 168.705 143.007C172.093 147.988 174.687 153.574 176.375 159.524C176.892 161.355 177.32 163.352 176.725 165.157C173.918 163.885 171.505 161.736 169.781 158.97C167.629 155.492 166.523 151.025 163.39 148.64C161.102 146.894 158.141 146.664 155.37 146.921C152.6 147.177 149.871 147.948 147.095 147.988C140.912 148.073 135.205 144.694 129.759 141.4C128.623 140.741 127.333 139.759 127.309 138.323C127.307 137.928 127.392 137.539 127.559 137.19C139.437 125.734 152.325 115.634 166.03 107.042C174.232 101.921 182.723 97.3919 191.451 93.4832C193.806 97.1923 160.305 115.943 160.049 116.45Z" fill="url(#paint6_linear)"/>
<path d="M261.271 81.3606C261.271 81.3606 259.803 92.8901 251.64 109.479C249.015 108.568 246.435 107.504 243.911 106.291C233.555 101.376 229.286 85.307 228.501 81.9733C249.173 78.363 261.271 81.3606 261.271 81.3606Z" fill="url(#paint7_linear)"/>
<path opacity="0.31" d="M212.01 123.789C217.46 123.789 221.879 118.893 221.879 112.853C221.879 106.812 217.46 101.916 212.01 101.916C206.559 101.916 202.141 106.812 202.141 112.853C202.141 118.893 206.559 123.789 212.01 123.789Z" fill="#3E3E54"/>
<path opacity="0.31" d="M185.952 140.563C191.403 140.563 195.821 135.666 195.821 129.626C195.821 123.586 191.403 118.69 185.952 118.69C180.502 118.69 176.083 123.586 176.083 129.626C176.083 135.666 180.502 140.563 185.952 140.563Z" fill="#3E3E54"/>
<path opacity="0.31" d="M157.416 162.014C162.866 162.014 167.284 157.118 167.284 151.078C167.284 145.038 162.866 140.141 157.416 140.141C151.965 140.141 147.547 145.038 147.547 151.078C147.547 157.118 151.965 162.014 157.416 162.014Z" fill="#3E3E54"/>
<path d="M89.6826 178.096L106.228 207.427L97.2924 211.097L83.7256 185.798L89.6826 178.096Z" fill="#3E3E54"/>
<path d="M138.141 143.112C145.959 145.208 154.116 142.948 162.005 141.202C162.816 140.945 163.673 140.931 164.49 141.162C165.424 141.525 166.048 142.48 166.595 143.396C169.321 147.984 171.591 152.886 173.366 158.015C174.436 161.105 175.441 164.465 177.819 166.468C180.197 168.471 184.442 168.023 185.304 164.854C181.244 152.198 176.244 139.944 171.25 127.703C170.798 126.596 170.299 125.423 169.371 124.771C168.559 124.296 167.656 124.045 166.737 124.039L138.581 121.345C132.256 120.739 122.743 119.81 124.866 129.56C126.328 136.36 132.196 141.518 138.141 143.112Z" fill="#3E3E54"/>
<path d="M138.141 143.112C145.959 145.208 154.116 142.948 162.005 141.202C162.816 140.945 163.673 140.931 164.49 141.162C165.424 141.525 166.048 142.48 166.595 143.396C169.321 147.984 171.591 152.886 173.366 158.015C174.436 161.105 175.441 164.465 177.819 166.468C180.197 168.471 184.442 168.023 185.304 164.854C181.244 152.198 176.244 139.944 171.25 127.703C170.798 126.596 170.299 125.423 169.371 124.771C168.559 124.296 167.656 124.045 166.737 124.039L138.581 121.345C132.256 120.739 122.743 119.81 124.866 129.56C126.328 136.36 132.196 141.518 138.141 143.112Z" fill="url(#paint8_linear)"/>
<path d="M145.204 116.14C145.204 118.268 145.204 120.469 144.342 122.379C143.242 124.883 140.87 126.457 138.397 127.096C137.614 127.291 136.819 127.421 136.019 127.485C134.312 127.568 132.602 127.527 130.9 127.36C127.636 127.123 123.933 126.629 121.983 123.717C120.615 121.668 120.496 118.94 120.443 116.39C120.3 109.42 120.27 102.45 120.223 95.4792C120.223 91.4933 118.766 86.1173 119.278 82.3027C119.45 80.7278 120.004 79.234 120.88 77.9792C121.756 76.7243 122.921 75.7552 124.254 75.1742C129.075 72.8881 136.078 74.5681 139.497 78.9229C142.238 82.4015 143.296 87.1121 143.938 91.6778C145.109 99.7352 145.198 107.957 145.204 116.14Z" fill="#FD772B"/>
<path d="M134.479 102.858C134.788 108.129 134.955 113.399 134.979 118.67C134.941 120.123 135.004 121.576 135.169 123.018C135.329 124.118 135.965 125.133 136.078 126.174C136.127 126.613 136.115 127.057 136.043 127.492C134.336 127.575 132.626 127.533 130.924 127.367C127.66 127.129 123.956 126.635 122.006 123.723C120.639 121.674 120.52 118.947 120.467 116.397C120.324 109.427 120.294 102.456 120.247 95.4859C120.247 91.5 118.79 86.124 119.301 82.3094C119.474 80.7345 120.028 79.2407 120.904 77.9858C121.78 76.731 122.945 75.7619 124.277 75.1809C124.659 75.3197 125.029 75.4961 125.383 75.708C127.47 76.9334 129.045 79.0021 130.484 81.084C131.235 82.1199 131.873 83.2498 132.387 84.4506C132.931 86.0249 133.267 87.678 133.385 89.3588C133.754 92.8177 134.051 96.2897 134.295 99.7683C134.426 101.626 133.98 102.799 135.787 103.155C137.324 103.452 138.877 103.635 140.436 103.701C142.024 103.781 143.902 103.576 144.74 102.081C145.02 101.503 145.143 100.849 145.095 100.196C145.048 99.5427 144.832 98.9186 144.473 98.3979C143.735 97.3695 142.734 96.6118 141.601 96.2238C140.496 95.7758 139.33 95.5255 138.213 95.1104C137.077 94.7259 136.029 94.0767 135.139 93.2064C134.243 92.3277 133.678 91.1068 133.558 89.7871" fill="url(#paint9_linear)"/>
<path d="M127.357 74.0675C127.294 74.7004 127.318 75.3401 127.428 75.965C127.779 77.5132 129.111 78.5278 130.431 79.1669C131.245 79.5622 132.333 79.8257 132.922 79.068C133.379 78.4817 133.266 77.5988 133.124 76.8346L132.339 72.6774C132.195 71.7471 131.966 70.8354 131.655 69.9565C131.31 69.0671 129.033 65.4435 127.88 66.3659C127.399 66.748 127.601 69.3569 127.571 70.0092L127.357 74.0675Z" fill="url(#paint10_linear)"/>
<path d="M127.476 66.4845C127.801 68.2027 128.508 69.8038 129.533 71.1424C130.573 72.4846 132.04 73.3296 133.629 73.501C134.208 73.5758 134.794 73.4491 135.306 73.1386C135.934 72.5934 136.393 71.8451 136.619 70.9974C137.969 67.3673 139.336 63.3748 138.314 59.6063C138.057 58.4332 137.395 57.4185 136.471 56.78C135.481 56.3114 134.374 56.2437 133.344 56.5889C131.56 57.0369 128.885 58.0647 127.732 59.7513C126.578 61.4379 127.083 64.6332 127.476 66.4845Z" fill="url(#paint11_linear)"/>
<path d="M134.021 50.1256C132.715 49.4754 131.276 49.2189 129.851 49.382C128.426 49.5451 127.066 50.122 125.906 51.0546C124.408 52.2998 123.338 54.0918 121.81 55.2843C120.371 56.4108 118.629 56.9247 117.018 57.7153C116.822 57.8076 116.602 57.9459 116.567 58.1765C116.507 58.5323 116.882 58.7629 117.03 59.0857C117.256 59.5798 116.893 60.1464 116.555 60.5615L114.616 62.9069C114.379 63.1359 114.218 63.4468 114.159 63.7897C114.093 64.6923 115.247 64.9492 116.061 64.8702L118.748 64.6066C117.169 65.7844 115.801 67.2793 114.718 69.0142C115.312 69.7125 116.412 69.3831 117.143 68.8495C117.874 68.3158 118.57 67.5318 119.438 67.5845C118.136 69.9102 122.214 69.818 123.433 69.785C124.469 69.7139 125.48 69.409 126.406 68.889C126.85 68.6977 127.254 68.4086 127.595 68.0391C127.766 67.855 127.893 67.6271 127.966 67.3754C128.038 67.1238 128.054 66.8562 128.011 66.5963C127.943 66.3689 127.858 66.1485 127.755 65.9375C127.585 65.5226 127.5 65.0711 127.506 64.6154C127.512 64.1597 127.61 63.7112 127.791 63.3022C127.85 63.177 127.928 63.0386 128.058 63.0189C128.165 63.0148 128.269 63.0547 128.35 63.1309L129.247 63.7897C129.199 62.4527 129.629 61.1487 130.444 60.1615C131.259 59.1744 132.393 58.584 133.599 58.5191C135.454 58.4071 138.849 59.4217 138.403 56.0683C138.046 53.5515 136.049 51.1468 134.021 50.1256Z" fill="#3E3E54"/>
<path d="M136.994 58.4861C137.345 58.3077 137.642 58.0203 137.849 57.6586C138.056 57.297 138.163 56.8767 138.159 56.4485C138.155 56.0204 138.038 55.6029 137.824 55.2466C137.61 54.8903 137.307 54.6104 136.952 54.4409C136.096 53.934 135.127 53.7056 134.158 53.7821C132.531 53.7418 130.916 54.1136 129.438 54.8692C127.416 55.9892 125.954 58.0513 124.087 59.4809C122.504 60.5847 120.766 61.3884 118.945 61.8593C118.107 62.0157 117.313 62.3855 116.626 62.9398C116.519 63.0518 116.412 63.2033 116.459 63.3548C116.494 63.4239 116.543 63.4827 116.602 63.5261C116.831 63.6994 117.09 63.8156 117.364 63.8668C117.637 63.9179 117.916 63.9029 118.184 63.8226C118.493 63.7304 118.778 63.5459 119.063 63.4273C119.956 63.1836 120.888 63.1836 121.78 63.4273C123.031 63.6936 124.319 63.6554 125.556 63.3153C126.593 62.8773 127.589 62.3256 128.528 61.6682C128.898 61.4687 129.306 61.3736 129.717 61.3915C129.403 62.1306 129.246 62.9399 129.259 63.7567L128.362 63.0979C128.316 63.0588 128.263 63.0304 128.207 63.0146C128.15 62.9987 128.092 62.9957 128.035 63.0057C127.91 63.0057 127.827 63.1638 127.767 63.289C127.587 63.6985 127.491 64.1468 127.485 64.6022C127.479 65.0576 127.563 65.5089 127.731 65.9243C127.834 66.1341 127.918 66.3548 127.981 66.5831C128.029 66.8419 128.017 67.1098 127.946 67.362C127.875 67.6143 127.748 67.8426 127.577 68.0259C127.232 68.3904 126.829 68.6808 126.388 68.8824C125.461 69.3968 124.45 69.6993 123.415 69.7718C122.226 69.7718 118.13 69.897 119.426 67.5713C118.558 67.5713 117.821 68.3422 117.131 68.8363C116.442 69.3304 115.348 69.6928 114.706 69.001C115.788 67.2646 117.155 65.7694 118.736 64.5934L116.049 64.857C115.229 64.936 114.081 64.6791 114.147 63.7765C114.206 63.4352 114.365 63.1249 114.599 62.8937L116.543 60.5482C116.882 60.1332 117.244 59.5666 117.018 59.0725C116.87 58.7496 116.495 58.5125 116.555 58.1633C116.59 57.9261 116.81 57.7943 117.006 57.6955C118.612 56.9115 120.359 56.3779 121.798 55.2776C123.332 54.0852 124.402 52.28 125.894 51.048C127.052 50.1119 128.413 49.5322 129.838 49.3679C131.264 49.2035 132.703 49.4604 134.01 50.1124C136.031 51.16 138.034 53.5383 138.367 56.0419C138.587 57.6692 137.939 58.2753 136.994 58.4861Z" fill="url(#paint12_linear)"/>
<path d="M170.596 78.5541C172.278 78.1259 174.24 78.5541 175.304 80.0694C175.439 80.2387 175.522 80.4508 175.542 80.6755C175.548 80.7268 175.544 80.7788 175.531 80.8284C175.519 80.8781 175.497 80.9243 175.467 80.9643C175.438 81.0043 175.401 81.0373 175.36 81.0613C175.319 81.0853 175.274 81.0997 175.227 81.1038H173.985C173.14 81.6787 172.358 82.3596 171.654 83.133C170.63 84.0592 169.415 84.6906 168.117 84.9711C166.393 85.3466 164.252 84.0487 165.59 81.9734C166.636 80.3461 168.872 78.9955 170.596 78.5541Z" fill="url(#paint13_linear)"/>
<path d="M167.611 95.5321C167.887 95.6792 168.128 95.8959 168.315 96.1647C168.502 96.4335 168.63 96.7471 168.687 97.0804C168.697 97.1914 168.678 97.3031 168.634 97.4032C168.473 97.7062 168.075 97.6338 167.76 97.5745C165.709 97.166 163.759 98.9382 161.672 98.8921C160.717 98.8648 159.809 98.4279 159.14 97.6733C158.545 96.9684 157.951 95.6375 158.284 94.6493C158.634 93.5161 159.823 93.4964 160.751 93.4634C163.174 93.3639 165.568 94.0856 167.611 95.5321Z" fill="url(#paint14_linear)"/>
<path d="M181.184 70.8327L189.27 64.0534C189.27 64.0534 191.255 63.3155 191.921 64.2378C192.587 65.1602 191.838 93.2657 191.838 93.2657L181.826 98.4902L181.184 70.8327Z" fill="#FD772B"/>
<path d="M181.303 70.9118L189.406 64.1325C189.406 64.1325 191.392 63.3946 192.058 64.3169C192.724 65.2393 191.856 93.3053 191.856 93.3053L181.963 98.5759L181.303 70.9118Z" fill="url(#paint15_linear)"/>
<path d="M183.699 70.7798L192.058 64.3233C192.058 64.3233 190.566 63.1308 189.406 64.1388C188.247 65.1468 181.303 70.9116 181.303 70.9116L183.699 70.7798Z" fill="url(#paint16_linear)"/>
<path d="M180.875 170.697C180.94 170.876 181.035 171.039 181.154 171.178C181.304 171.316 181.482 171.413 181.672 171.462C182.159 171.612 182.67 171.643 183.169 171.552C183.668 171.46 184.143 171.25 184.561 170.935C184.908 170.69 185.18 170.334 185.34 169.913C185.49 169.258 185.451 168.566 185.227 167.937L184.733 166.04C184.73 166.013 184.72 165.988 184.704 165.967C184.662 165.967 184.609 165.967 184.567 165.967C183.134 166.916 181.446 165.967 180.078 166.626C178.925 167.245 180.453 169.736 180.875 170.697Z" fill="url(#paint17_linear)"/>
<path d="M182.54 170.566C182.058 170.598 181.579 170.671 181.107 170.783C180.872 170.847 180.656 170.976 180.479 171.158C180.302 171.34 180.171 171.569 180.096 171.824C180.056 172.326 180.176 172.827 180.435 173.24C180.78 173.945 181.125 174.65 181.493 175.342C181.692 175.806 182.008 176.195 182.403 176.462C182.803 176.639 183.243 176.676 183.663 176.568C184.927 176.299 186.155 175.856 187.32 175.25C189.698 174.139 192.058 172.951 194.4 171.686C194.787 171.475 195.215 171.205 195.292 170.737C195.312 170.574 195.296 170.407 195.245 170.253C195.194 170.098 195.11 169.959 195.001 169.847C194.778 169.629 194.519 169.459 194.24 169.347C192.57 168.638 190.815 168.21 189.032 168.075C188.402 168.003 187.343 167.673 186.755 167.99C186.166 168.306 185.601 169.083 184.971 169.505C184.238 170.045 183.409 170.407 182.54 170.566Z" fill="#3E3E54"/>
<path d="M158.468 98.4571C157.432 99.1507 156.279 99.5993 155.079 99.7748L148.629 101.218C147.213 101.613 145.754 101.79 144.295 101.745C142.969 101.584 141.67 101.228 140.43 100.684C135.424 98.7075 127.488 96.3818 123.647 92.0731C120.74 88.779 121.453 82.2566 125.211 80.6227C125.926 80.3158 126.693 80.1898 127.458 80.2538C130.645 80.4778 132.809 83.7258 135.258 86.0119C140.513 90.9794 147.85 91.8425 154.758 92.4091H154.901H155.364C157.148 92.554 159.348 93.0679 159.835 94.9587C160.138 96.2962 159.461 97.6863 158.468 98.4571Z" fill="#FD772B"/>
<path d="M164.342 109.282L181.963 98.5823L183.699 70.8062C183.699 70.8062 181.024 69.5807 180.804 72.3939C180.584 75.2071 178.711 96.3488 178.711 96.3488L163.492 105.269C163.492 105.269 161.226 107.806 164.342 109.282Z" fill="#FD772B"/>
<path d="M96.8762 209.852C92.3097 217.643 85.4649 223.458 77.4891 226.322L80.5212 219.115C76.7163 224.332 72.8817 229.577 68.3753 234.063C63.8689 238.55 58.6074 242.272 52.7455 243.946C52.151 242.99 52.7871 241.712 53.4173 240.783C57.5892 234.629 62.221 228.875 67.2635 223.581C55.6527 231.072 43.9943 238.589 31.5035 244.071C39.5343 231.722 49.1477 220.738 60.0402 211.466L52.3829 213.653C61.389 202.057 72.2431 192.396 84.4033 185.152C89.3913 192.722 93.3686 201.359 96.8762 209.852Z" fill="#FD772B"/>
<path d="M96.8762 209.852C92.3097 217.643 85.4649 223.458 77.4891 226.322L80.5212 219.115C76.7163 224.332 72.8817 229.577 68.3753 234.063C63.8689 238.55 58.6074 242.272 52.7455 243.946C52.151 242.99 52.7871 241.712 53.4173 240.783C57.5892 234.629 62.221 228.875 67.2635 223.581C55.6527 231.072 43.9943 238.589 31.5035 244.071C39.5343 231.722 49.1477 220.738 60.0402 211.466L52.3829 213.653C61.389 202.057 72.2431 192.396 84.4033 185.152C89.3913 192.722 93.3686 201.359 96.8762 209.852Z" fill="url(#paint18_linear)"/>
<path d="M72.745 202.762C72.4655 203.191 72.1861 203.764 72.4299 204.218C72.6172 204.478 72.8798 204.657 73.173 204.726L75.4619 205.562C72.5137 208.436 69.7965 211.588 67.3408 214.984C66.9306 215.55 66.5323 216.413 67.002 216.921C67.2247 217.123 67.5045 217.233 67.7927 217.23C70.9733 217.546 73.9399 215.596 76.6509 213.725C76.1584 215.71 75.3046 217.562 74.1421 219.167C77.2098 218.508 79.9861 216.749 82.4653 214.7C84.9444 212.651 87.2808 210.306 89.8372 208.323L88.993 210.761C90.5576 209.619 91.9065 208.152 92.9644 206.439C93.2193 206.132 93.3802 205.744 93.424 205.33C93.4677 204.915 93.3922 204.496 93.2081 204.133C91.9329 200.304 90.108 196.729 87.804 193.545C87.4082 192.93 86.9023 192.412 86.3177 192.024C84.4509 190.937 80.5569 194.474 79.0587 195.693C76.6326 197.668 74.5019 200.054 72.745 202.762Z" fill="#FD772B"/>
<path d="M72.745 202.762C72.4655 203.191 72.1861 203.764 72.4299 204.218C72.6172 204.478 72.8798 204.657 73.173 204.726L75.4619 205.562C72.5137 208.436 69.7965 211.588 67.3408 214.984C66.9306 215.55 66.5323 216.413 67.002 216.921C67.2247 217.123 67.5045 217.233 67.7927 217.23C70.9733 217.546 73.9399 215.596 76.6509 213.725C76.1584 215.71 75.3046 217.562 74.1421 219.167C77.2098 218.508 79.9861 216.749 82.4653 214.7C84.9444 212.651 87.2808 210.306 89.8372 208.323L88.993 210.761C90.5576 209.619 91.9065 208.152 92.9644 206.439C93.2193 206.132 93.3802 205.744 93.424 205.33C93.4677 204.915 93.3922 204.496 93.2081 204.133C91.9329 200.304 90.108 196.729 87.804 193.545C87.4082 192.93 86.9023 192.412 86.3177 192.024C84.4509 190.937 80.5569 194.474 79.0587 195.693C76.6326 197.668 74.5019 200.054 72.745 202.762Z" fill="url(#paint19_linear)"/>
<path d="M157.404 94.9258C157.047 95.0806 156.662 95.1415 156.28 95.1037C152.309 95.1037 148.308 95.0378 144.39 94.267C140.472 93.4962 136.608 91.9545 133.516 89.194C131.334 87.2175 129.61 84.7733 127.422 82.8495C126.828 82.3027 125.282 81.6175 125.205 80.6227C125.92 80.3158 126.688 80.1898 127.452 80.2538C130.639 80.4778 132.803 83.7258 135.252 86.0119C140.508 90.9794 147.844 91.8425 154.752 92.4091H154.895C155.769 92.4897 156.618 92.7749 157.386 93.2458C157.624 93.374 157.809 93.5978 157.903 93.8717C157.942 94.0842 157.914 94.3052 157.823 94.4972C157.732 94.6893 157.584 94.8407 157.404 94.9258Z" fill="url(#paint20_linear)"/>
<path d="M261.277 81.354L260.546 85.8472C258.494 93.9982 255.579 101.851 251.86 109.242C243.578 126.062 228.424 148.08 200.94 168.536C157.772 200.727 119.89 206.09 105.913 206.906L101.157 199.587C210.476 163.819 236.302 106.58 239.31 106.106C242.318 105.632 251.367 81.3079 251.367 81.3079L261.277 81.354Z" fill="url(#paint21_linear)"/>
</g>
<ellipse cx="28" cy="39.7896" rx="28" ry="28.2105" fill="#FD772B"/>
<path d="M27.3371 58.6297C24.2238 58.6297 21.5477 57.8776 19.3089 56.3734C17.1051 54.8342 15.461 52.7354 14.3766 50.0768L20.1485 47.768C21.6876 51.0213 24.1188 52.6479 27.442 52.6479C29.296 52.6479 30.8177 52.1931 32.0071 51.2836C33.1964 50.3391 33.7911 49.0099 33.7911 47.2958C33.7911 45.7216 33.2664 44.4273 32.2169 43.4129C31.1675 42.3984 29.5759 41.8912 27.442 41.8912H24.2413V35.9095H27.442C28.9462 35.9095 30.1531 35.4897 31.0626 34.6501C32.0071 33.8106 32.4793 32.7087 32.4793 31.3444C32.4793 29.9102 32.0245 28.7733 31.115 27.9338C30.2405 27.0593 28.9812 26.622 27.3371 26.622C24.7135 26.622 22.7371 27.8638 21.4078 30.3475L15.6359 28.1437C16.6504 25.8349 18.172 24.0159 20.2009 22.6866C22.2298 21.3224 24.6435 20.6402 27.442 20.6402C30.7652 20.6402 33.4937 21.6197 35.6276 23.5786C37.7964 25.5026 38.8808 27.8988 38.8808 30.7672C38.8808 34.3703 37.3417 37.0114 34.2633 38.6905C36.0474 39.3901 37.4816 40.4745 38.566 41.9437C39.6504 43.4129 40.1926 45.162 40.1926 47.1909C40.1926 50.7939 39.0033 53.6099 36.6245 55.6388C34.2808 57.6327 31.185 58.6297 27.3371 58.6297Z" fill="white"/>
<defs>
<linearGradient id="paint0_linear" x1="4.5" y1="316" x2="4.5" y2="367.75" gradientUnits="userSpaceOnUse">
<stop stop-color="#FAA913"/>
<stop offset="0.5" stop-color="#FD772B"/>
<stop offset="1" stop-color="#FF4444"/>
</linearGradient>
<linearGradient id="paint1_linear" x1="60" y1="311.5" x2="69.75" y2="311.5" gradientUnits="userSpaceOnUse">
<stop stop-color="#FAA913"/>
<stop offset="0.5" stop-color="#FD772B"/>
<stop offset="1" stop-color="#FF4444"/>
</linearGradient>
<linearGradient id="paint2_linear" x1="59.0593" y1="169.894" x2="111.519" y2="169.894" gradientUnits="userSpaceOnUse">
<stop stop-opacity="0"/>
<stop offset="0.99"/>
</linearGradient>
<linearGradient id="paint3_linear" x1="6409.73" y1="12979.2" x2="8755.99" y2="12979.2" gradientUnits="userSpaceOnUse">
<stop stop-opacity="0"/>
<stop offset="0.99"/>
</linearGradient>
<linearGradient id="paint4_linear" x1="9058.39" y1="1178.43" x2="8323.88" y2="3079.61" gradientUnits="userSpaceOnUse">
<stop stop-opacity="0"/>
<stop offset="0.99"/>
</linearGradient>
<linearGradient id="paint5_linear" x1="5474.75" y1="2277.48" x2="5760.1" y2="2671.12" gradientUnits="userSpaceOnUse">
<stop stop-opacity="0"/>
<stop offset="0.99"/>
</linearGradient>
<linearGradient id="paint6_linear" x1="14879.6" y1="7400.61" x2="22994.9" y2="13943.9" gradientUnits="userSpaceOnUse">
<stop stop-opacity="0"/>
<stop offset="0.99"/>
</linearGradient>
<linearGradient id="paint7_linear" x1="13714.8" y1="2783.62" x2="14818.8" y2="3810.52" gradientUnits="userSpaceOnUse">
<stop stop-opacity="0"/>
<stop offset="0.99"/>
</linearGradient>
<linearGradient id="paint8_linear" x1="13010.1" y1="8590.69" x2="19216.1" y2="8590.69" gradientUnits="userSpaceOnUse">
<stop stop-opacity="0"/>
<stop offset="0.99"/>
</linearGradient>
<linearGradient id="paint9_linear" x1="7576.9" y1="5779.5" x2="1144.92" y2="6125.39" gradientUnits="userSpaceOnUse">
<stop stop-opacity="0"/>
<stop offset="0.99"/>
</linearGradient>
<linearGradient id="paint10_linear" x1="127.327" y1="72.8817" x2="133.249" y2="72.8817" gradientUnits="userSpaceOnUse">
<stop stop-color="#E5C5D5"/>
<stop offset="0.42" stop-color="#EAD4D1"/>
<stop offset="1" stop-color="#F0E9CB"/>
</linearGradient>
<linearGradient id="paint11_linear" x1="2647.17" y1="1101.68" x2="2875.16" y2="1101.68" gradientUnits="userSpaceOnUse">
<stop stop-color="#E5C5D5"/>
<stop offset="0.42" stop-color="#EAD4D1"/>
<stop offset="1" stop-color="#F0E9CB"/>
</linearGradient>
<linearGradient id="paint12_linear" x1="5371.9" y1="796.278" x2="5323.86" y2="1412.01" gradientUnits="userSpaceOnUse">
<stop stop-opacity="0"/>
<stop offset="0.99"/>
</linearGradient>
<linearGradient id="paint13_linear" x1="3074.81" y1="651.976" x2="3255.73" y2="651.976" gradientUnits="userSpaceOnUse">
<stop stop-color="#E5C5D5"/>
<stop offset="0.42" stop-color="#EAD4D1"/>
<stop offset="1" stop-color="#F0E9CB"/>
</linearGradient>
<linearGradient id="paint14_linear" x1="-12070" y1="-9451.17" x2="-11902.4" y2="-9369.95" gradientUnits="userSpaceOnUse">
<stop stop-color="#E5C5D5"/>
<stop offset="0.42" stop-color="#EAD4D1"/>
<stop offset="1" stop-color="#F0E9CB"/>
</linearGradient>
<linearGradient id="paint15_linear" x1="3671.65" y1="2044.1" x2="3513.31" y2="4716.96" gradientUnits="userSpaceOnUse">
<stop stop-opacity="0"/>
<stop offset="0.99"/>
</linearGradient>
<linearGradient id="paint16_linear" x1="3562.49" y1="511.607" x2="3602.29" y2="579.747" gradientUnits="userSpaceOnUse">
<stop stop-opacity="0"/>
<stop offset="0.99"/>
</linearGradient>
<linearGradient id="paint17_linear" x1="1939.67" y1="1397.64" x2="1995.85" y2="1397.64" gradientUnits="userSpaceOnUse">
<stop stop-color="#E5C5D5"/>
<stop offset="0.42" stop-color="#EAD4D1"/>
<stop offset="1" stop-color="#F0E9CB"/>
</linearGradient>
<linearGradient id="paint18_linear" x1="120.681" y1="212.553" x2="29.4144" y2="215.402" gradientUnits="userSpaceOnUse">
<stop offset="0.02" stop-color="white" stop-opacity="0"/>
<stop offset="0.58" stop-color="white" stop-opacity="0.39"/>
<stop offset="0.68" stop-color="white" stop-opacity="0.68"/>
<stop offset="1" stop-color="white"/>
</linearGradient>
<linearGradient id="paint19_linear" x1="6057.43" y1="6808.48" x2="2434.56" y2="8106.91" gradientUnits="userSpaceOnUse">
<stop offset="0.02" stop-color="white" stop-opacity="0"/>
<stop offset="0.58" stop-color="white" stop-opacity="0.39"/>
<stop offset="0.68" stop-color="white" stop-opacity="0.68"/>
<stop offset="1" stop-color="white"/>
</linearGradient>
<linearGradient id="paint20_linear" x1="8221.9" y1="1255.97" x2="7999.66" y2="2422.57" gradientUnits="userSpaceOnUse">
<stop offset="0.02" stop-color="white" stop-opacity="0"/>
<stop offset="0.58" stop-color="white" stop-opacity="0.39"/>
<stop offset="0.68" stop-color="white" stop-opacity="0.68"/>
<stop offset="1" stop-color="white"/>
</linearGradient>
<linearGradient id="paint21_linear" x1="48912.2" y1="19738.7" x2="50923.5" y2="38420" gradientUnits="userSpaceOnUse">
<stop stop-opacity="0"/>
<stop offset="0.99"/>
</linearGradient>
<clipPath id="clip0">
<rect width="273.06" height="242" fill="white" transform="translate(10 31)"/>
</clipPath>
</defs>
</svg>
