<svg width="378" height="274" viewBox="0 0 378 274" fill="none" xmlns="http://www.w3.org/2000/svg">
<g clip-path="url(#clip0)">
<path opacity="0.18" d="M60.2587 57.3673C49.0881 59.7355 37.477 62.3055 28.5093 69.3778C20.9368 75.3439 9.13751 86.3585 5.56238 95.3078C-9.58259 133.111 7.5404 179.11 40.7767 202.635C56.4082 213.7 75.8901 219.056 89.9382 232.081C98.8232 240.319 105.046 251.223 114.501 258.795C128.315 269.851 146.966 272.297 164.617 273.481C176.879 274.312 189.62 274.67 200.997 270.007C209.221 266.639 216.188 260.861 223.026 255.165L268.328 217.335C275.606 211.263 282.412 201.593 291.889 201.658C377.188 202.268 382.938 101.884 252.026 57.4224C240.488 53.5031 232.576 42.6079 221.736 37.0226C199.345 25.4803 173.575 29.2206 150.991 37.2062C122.316 47.3717 90.0162 51.0386 60.2587 57.3673Z" fill="url(#paint0_linear)"/>
<path opacity="0.05" d="M357.545 219.308C361.116 219.368 365.714 220.258 366.265 223.783C366.563 225.619 365.512 227.404 364.374 228.886C357.256 238.189 345.461 242.893 333.822 244.155C322.184 245.417 310.453 243.65 298.833 242.218C282.039 240.144 265.181 238.767 248.258 238.088C236.225 237.601 223.567 237.299 213.204 231.167C211.281 230.034 209.391 228.615 208.468 226.578C206.632 222.525 209.533 217.592 213.516 215.623C217.5 213.654 222.181 213.847 226.624 214.085C270.25 216.435 313.845 219.308 357.545 219.308Z" fill="#000405"/>
<path d="M357.696 58.0098C357.696 58.0098 342.171 78.0883 339.224 81.4523C333.85 87.5654 330.385 95.5831 330.385 95.5831L322.583 128.783L313.863 126.456L294.904 121.408C294.904 121.408 301.642 103.261 298.379 97.7538C294.028 90.4108 297.791 85.8214 298.782 82.6685C300.618 76.8262 291.242 66.1467 291.242 66.1467L285.235 39.2392L294.303 38.0276L300.884 59.8409L312.161 69.9055L320.192 70.3323C320.192 70.3323 326.25 71.5806 330.656 69.5429C334.869 67.5878 349.752 50.8044 349.752 50.8044L355.824 56.3117L357.696 58.0098Z" fill="url(#paint1_linear)"/>
<path d="M283.317 92.0584V211.639C283.316 213.138 283.021 214.621 282.447 216.005C281.873 217.389 281.032 218.647 279.972 219.706C278.912 220.765 277.654 221.605 276.269 222.177C274.885 222.75 273.401 223.045 271.903 223.044H93.0594C90.0334 223.044 87.1315 221.842 84.9918 219.702C82.8522 217.563 81.6501 214.661 81.6501 211.635V211.635V92.0584C81.6489 89.0341 82.8485 86.1331 84.9853 83.9928C87.1221 81.8526 90.0213 80.6483 93.0456 80.6447H271.903C273.402 80.6441 274.887 80.9389 276.272 81.5123C277.657 82.0856 278.915 82.9263 279.975 83.9863C281.035 85.0463 281.876 86.3048 282.449 87.6899C283.023 89.0749 283.317 90.5594 283.317 92.0584V92.0584Z" fill="url(#paint2_linear)"/>
<path d="M280.223 84.2932H84.4446L86.0325 83.077C86.1059 83.0134 86.1824 82.9537 86.262 82.898L179.39 11.5056L182.332 9.2522L277.089 81.893L280.223 84.2932Z" fill="url(#paint3_linear)"/>
<path d="M283.317 92.0585L280.935 93.7795L263.592 106.341L179.39 167.329L98.4106 104.964L81.6501 92.0585L81.8658 89.8418C82.2737 87.7634 83.2563 85.8411 84.7021 84.2932C85.1078 83.8515 85.5499 83.4447 86.0238 83.0771C86.0972 83.0135 86.1738 82.9537 86.2533 82.8981C88.2185 81.4304 90.6066 80.6397 93.0594 80.6447H271.903C274.739 80.6472 277.472 81.7042 279.571 83.6102C281.671 85.5162 282.986 88.1349 283.262 90.957C283.298 91.3242 283.317 91.6913 283.317 92.0585Z" fill="url(#paint4_linear)"/>
<path opacity="0.61" d="M86.0233 83.0679C85.5515 83.438 85.1096 83.8446 84.7016 84.2841H84.4446L86.0233 83.0679Z" fill="url(#paint5_linear)"/>
<path d="M283.317 92.0584L280.935 93.7841L263.592 106.341L179.39 167.329L98.4106 104.968L81.6501 92.0584L81.8658 89.8464C82.3964 87.1622 83.8716 84.7572 86.0238 83.0678L86.2533 82.8934L179.39 11.5056L182.332 9.2522L277.089 81.893C278.798 82.7631 280.259 84.0504 281.338 85.6356C282.417 87.2208 283.079 89.0527 283.262 90.9616C283.299 91.326 283.317 91.6921 283.317 92.0584Z" fill="url(#paint6_linear)"/>
<path d="M263.591 83.2238V106.345L232.516 128.833L225.389 134.01L179.39 167.329L136.126 134.01L129.421 128.851L98.4009 104.987V83.2238C98.4009 82.3337 98.5762 81.4522 98.9169 80.6298C99.2575 79.8074 99.7568 79.0601 100.386 78.4307C101.016 77.8012 101.763 77.3019 102.585 76.9613C103.408 76.6206 104.289 76.4453 105.179 76.4453H256.817C258.614 76.4477 260.336 77.1628 261.606 78.4337C262.876 79.7045 263.59 81.4272 263.591 83.2238Z" fill="white"/>
<path d="M240.819 103.495H118.282C117.944 103.495 117.608 103.428 117.295 103.299C116.982 103.169 116.698 102.979 116.459 102.74C116.219 102.5 116.029 102.216 115.899 101.903C115.77 101.59 115.703 101.255 115.703 100.916C115.703 100.577 115.77 100.242 115.899 99.9289C116.029 99.6159 116.219 99.3316 116.459 99.0921C116.698 98.8526 116.982 98.6626 117.295 98.533C117.608 98.4034 117.944 98.3367 118.282 98.3367H240.819C241.158 98.3367 241.493 98.4034 241.806 98.533C242.119 98.6626 242.403 98.8526 242.643 99.0921C242.882 99.3316 243.072 99.6159 243.202 99.9289C243.331 100.242 243.398 100.577 243.398 100.916C243.398 101.6 243.126 102.256 242.643 102.74C242.159 103.223 241.503 103.495 240.819 103.495Z" fill="url(#paint7_linear)"/>
<path d="M240.819 118.755H118.282C117.944 118.755 117.608 118.688 117.295 118.559C116.982 118.429 116.698 118.239 116.459 117.999C116.219 117.76 116.029 117.476 115.899 117.163C115.77 116.85 115.703 116.514 115.703 116.176C115.703 115.837 115.77 115.502 115.899 115.189C116.029 114.876 116.219 114.591 116.459 114.352C116.698 114.112 116.982 113.922 117.295 113.793C117.608 113.663 117.944 113.596 118.282 113.596H240.819C241.503 113.596 242.159 113.868 242.643 114.352C243.126 114.836 243.398 115.492 243.398 116.176C243.398 116.86 243.126 117.516 242.643 117.999C242.159 118.483 241.503 118.755 240.819 118.755Z" fill="url(#paint8_linear)"/>
<path d="M232.517 128.852L225.39 134.01H136.126L129.426 128.852H232.517Z" fill="url(#paint9_linear)"/>
<path opacity="0.05" d="M179.39 167.329L104.647 223.053H255.675L179.39 167.329Z" fill="#000405"/>
<path d="M114.918 41.3963C111.155 33.3236 97.0193 34.6499 97.0193 34.6499C105.739 29.5052 104.069 16.4392 103.963 15.6682C107.777 27.0591 120.944 24.5441 122.123 24.2963C113.38 26.4533 114.918 41.3963 114.918 41.3963Z" fill="url(#paint10_linear)"/>
<path d="M90.4112 57.9593C88.0201 52.8283 79.0295 53.6728 79.0295 53.6728C84.7204 50.2904 83.4308 41.5844 83.4308 41.5844V41.6348C85.8723 48.8356 94.225 47.2385 94.9685 47.0824C89.4337 48.4592 90.4112 57.9593 90.4112 57.9593Z" fill="url(#paint11_linear)"/>
<path d="M331.151 42.5437C332.26 41.6537 333.662 41.2116 335.08 41.3045C336.118 41.2623 337.134 41.613 337.925 42.2866C338.535 42.9706 338.922 43.8237 339.036 44.7328C339.26 45.8594 339.345 47.0092 339.288 48.1565C339.187 50.263 338.641 52.4934 339.55 54.398C339.766 54.8512 340.058 55.2641 340.413 55.6188C340.824 56.0784 341.396 56.3626 342.01 56.4128C342.315 56.4264 342.616 56.3302 342.856 56.1417C343.097 55.9531 343.263 55.6846 343.323 55.3847C343.06 55.9703 342.684 56.4981 342.216 56.938C341.749 57.3779 341.199 57.7211 340.599 57.9479C339.998 58.1748 339.359 58.2808 338.718 58.26C338.076 58.2391 337.445 58.0917 336.861 57.8263C336.48 57.6523 336.122 57.4318 335.796 57.17L336.594 58.7901C335.933 58.6204 335.293 58.3772 334.685 58.0649C332.735 57.0048 331.643 54.8524 331.124 52.677C330.665 50.6806 330.573 48.62 330.142 46.6144C329.825 45.0862 329.908 43.6543 331.151 42.5437Z" fill="#3F3D56"/>
<path d="M330.564 44.7465C330.961 44.7325 331.356 44.7932 331.73 44.9255C332.04 45.0544 332.309 45.2659 332.507 45.537C332.705 45.808 332.825 46.1283 332.854 46.4629C332.872 46.7993 332.791 47.1335 332.621 47.4245C332.452 47.7156 332.201 47.9508 331.9 48.1013C331.507 48.2616 331.084 48.3352 330.661 48.317C330.275 48.317 329.885 48.317 329.499 48.2803C329.379 48.2912 329.259 48.2581 329.161 48.1873C329.063 48.1164 328.994 48.0125 328.967 47.8948C328.715 47.3951 328.526 46.8664 328.403 46.3206C328.086 44.6318 329.224 44.7327 330.564 44.7465Z" fill="url(#paint12_linear)"/>
<path d="M323.093 60.8597C323.093 60.8597 323.019 62.1861 322.927 63.9117C322.849 65.3665 322.753 67.1243 322.675 68.5837C322.542 71.0526 321.481 73.3802 319.706 75.1006C318.668 76.1607 316.195 78.1388 314.308 77.4366C313.391 77.097 313.358 75.9405 313.551 75.2475C313.977 73.9842 314.213 72.6651 314.253 71.3327C314.284 70.2542 314.187 69.1759 313.964 68.1201C312.785 65.1692 323.093 60.8597 323.093 60.8597Z" fill="url(#paint13_linear)"/>
<path d="M323.092 60.8597C323.092 60.8597 323.019 62.1861 322.927 63.9117C322.202 65.5271 321.523 66.8443 321.151 67.5006C320.403 68.8269 317.328 70.9151 314.267 71.3327C314.297 70.2542 314.2 69.1759 313.978 68.1201C312.785 65.1692 323.092 60.8597 323.092 60.8597Z" fill="url(#paint14_linear)"/>
<path d="M314.116 43.2871C311.505 43.4454 309.064 44.6343 307.329 46.5923C305.595 48.5503 304.71 51.1171 304.868 53.7279C304.868 53.962 304.905 54.1868 304.937 54.4255C305.243 58.4352 306.273 62.3565 307.975 65.9999C311.188 71.5072 319.329 66.9775 320.619 64.7103C321.908 62.4431 326.856 52.218 324.777 49.3221C323.345 47.367 319.375 43.0759 314.116 43.2871Z" fill="url(#paint15_linear)"/>
<path d="M311.225 37.6926C314.679 36.6842 318.363 36.7918 321.753 38.0001C325.089 39.2667 327.967 41.8735 329.238 45.21C330.33 48.3022 330.225 51.6911 328.944 54.71C327.653 57.7039 325.595 60.3047 322.978 62.2504C322.304 60.1852 324.383 58.3494 325.19 56.3347C325.379 55.9626 325.42 55.5332 325.305 55.1322C325.011 54.3842 323.892 54.3016 323.254 54.788C322.616 55.2745 322.336 56.096 322.102 56.8624C322.721 53.581 323.18 49.726 320.858 47.3211C319.481 45.8984 317.402 45.366 315.42 45.3477C313.599 45.3423 311.796 45.7106 310.124 46.4297C308.451 47.1489 306.943 48.2036 305.695 49.5286C304.965 50.3134 303.928 51.2772 303.001 50.7356C302.712 50.5384 302.486 50.2629 302.349 49.9417C299.609 44.517 306.805 38.9042 311.225 37.6926Z" fill="#3F3D56"/>
<path d="M315.658 43.7552C313.363 42.7455 310.954 41.9194 308.462 41.9194C305.97 41.9194 303.386 42.7639 301.738 44.6364C300.878 45.6797 300.252 46.8958 299.903 48.2023C299.627 49.0199 299.518 49.8844 299.581 50.7448C299.681 51.3688 299.835 51.983 300.04 52.5806C300.472 54.0675 300.655 55.7931 299.715 57.0415C299.54 57.2901 299.311 57.4961 299.046 57.6439C298.78 57.7917 298.485 57.8776 298.182 57.8951C297.878 57.9004 297.582 57.7948 297.351 57.5979C297.119 57.4011 296.968 57.1265 296.924 56.8258C296.52 57.9685 297.181 59.3086 298.232 59.9098C298.774 60.1848 299.367 60.3422 299.974 60.3714C300.581 60.4007 301.187 60.3013 301.752 60.0796C302.228 59.9304 302.669 59.6887 303.051 59.3683C303.429 59.0048 303.74 58.5776 303.969 58.1062C304.928 56.3668 305.41 54.4347 306.126 52.5576C306.842 50.6806 307.879 48.8861 309.573 47.8306C310.914 47.0976 312.422 46.7229 313.951 46.7429C315.47 46.6924 316.998 46.8163 318.513 46.6786C320.027 46.5409 318.93 45.6414 318.279 45.1687C317.456 44.6093 316.578 44.1357 315.658 43.7552Z" fill="#3F3D56"/>
<path d="M377.298 27.3022C377.688 27.6051 374.035 30.4505 374.035 30.4505C374.035 30.4505 372.327 33.3923 370.593 34.2093C368.858 35.0262 355.824 56.3071 355.824 56.3071L350.679 51.6443L361.776 36.7151C361.776 36.7151 365.448 29.6795 365.039 26.6184C365.039 26.6184 365.26 23.002 366.366 24.6817C367.146 25.8795 366.646 27.7658 367.568 27.9677C367.67 27.9766 367.773 27.9542 367.862 27.9034C368.627 27.4393 369.329 26.8778 369.95 26.2329C371.786 24.4843 373.98 22.052 373.98 22.052C373.98 22.052 375.182 21.5425 375.03 22.052C374.879 22.5614 372.672 25.9988 372.548 26.1824C372.754 25.9943 376.141 22.9698 376.678 23.2039C377.215 23.438 374.053 26.9213 373.869 27.1232C374.067 26.9856 377.679 24.4706 377.949 24.6955C378.459 25.1223 375.196 27.9539 374.925 28.1696C375.131 28.0595 376.926 27.0085 377.298 27.3022Z" fill="url(#paint16_linear)"/>
<path d="M373.424 29.4821C373.151 29.5713 372.86 29.5949 372.575 29.551C371.65 29.4806 370.721 29.4653 369.794 29.5051C369.17 29.5326 367.881 29.964 367.848 28.9957C367.848 28.7387 367.913 28.4862 367.899 28.2292C367.893 28.118 367.877 28.0075 367.853 27.8988C368.618 27.4347 369.32 26.8732 369.941 26.2283C370.222 26.3222 370.488 26.4567 370.731 26.6275L372.539 27.7978C372.86 28.009 373.181 28.2201 373.489 28.4495C373.625 28.5347 373.733 28.6575 373.801 28.8029C373.829 28.9424 373.807 29.0876 373.738 29.2121C373.669 29.3367 373.558 29.4325 373.424 29.4821Z" fill="url(#paint17_linear)"/>
<path d="M283.808 3.40534C283.312 3.46041 284.918 7.80197 284.918 7.80197C284.918 7.80197 284.817 11.2027 285.836 12.809C286.855 14.4153 286.754 39.0373 286.754 39.0373L293.583 38.1194L292.032 19.5737C292.032 19.5737 292.624 11.6616 294.584 9.27975C294.584 9.27975 296.3 6.09013 294.478 6.93458C293.184 7.54037 292.61 9.40366 291.725 9.09159C291.631 9.04755 291.555 8.97315 291.509 8.88047C291.092 8.08539 290.783 7.23799 290.591 6.3609C289.944 3.90558 289.375 0.683835 289.375 0.683835C289.375 0.683835 288.64 -0.371724 288.521 0.137698C288.402 0.64712 288.443 4.72708 288.448 4.96114C288.37 4.69955 287.071 0.330452 286.497 0.252433C285.924 0.174413 286.768 4.79592 286.823 5.06211C286.722 4.84182 284.987 0.803159 284.629 0.849052C283.973 0.94543 285.276 5.08505 285.373 5.39254C285.244 5.19061 284.276 3.35945 283.808 3.40534Z" fill="url(#paint18_linear)"/>
<path d="M285.918 7.30176C286.11 7.52188 286.35 7.69336 286.621 7.802C287.443 8.23301 288.24 8.7111 289.007 9.23389C289.526 9.58727 290.384 10.6428 290.93 9.82592C291.077 9.61481 291.146 9.36698 291.293 9.15128C291.36 9.06005 291.432 8.9727 291.508 8.88969C291.091 8.0946 290.783 7.2472 290.59 6.37011C290.302 6.30227 290.005 6.27753 289.709 6.29668L287.557 6.33799C287.171 6.32961 286.784 6.34647 286.4 6.38847C286.237 6.38746 286.077 6.43542 285.941 6.52615C285.845 6.63101 285.789 6.76719 285.785 6.90967C285.781 7.05215 285.828 7.19137 285.918 7.30176Z" fill="url(#paint19_linear)"/>
<path d="M259.608 219.928C257.772 223.677 256.436 226.592 256.436 226.592L233.338 227.693C233.338 227.693 237.165 217.564 243.393 220.18C245.5 221.061 253.132 219.405 253.132 219.405L253.371 218.638L259.608 219.928Z" fill="#24285B"/>
<path d="M341.473 221.061L337.935 223.044L307.645 191.203L304.304 148.696L276.685 173.749C276.685 173.749 277.424 191.001 267.768 204.498C266.037 206.917 262.517 213.943 259.855 219.432C259.773 219.602 259.69 219.776 259.612 219.946L259.094 219.841L257.29 219.464L253.375 218.656L266.069 167.347L294.914 121.426L313.872 126.474L322.592 128.801C322.592 128.801 328.476 140.591 322.592 171.106L318.691 188.573C318.691 188.573 334.415 196.958 339.261 213.544L341.45 221.052L341.473 221.061Z" fill="#3F3D56"/>
<path d="M341.473 221.061L345.067 224.82L335.943 234.329H324.011C324.011 234.329 326.553 230.13 331.638 229.464C336.723 228.799 337.94 223.039 337.94 223.039L341.473 221.061Z" fill="#24285B"/>
<path opacity="0.22" d="M99.0433 33.989L97.0286 34.6499C105.748 29.5052 104.078 16.4392 103.972 15.6682C104.11 16.2878 106.138 24.9112 105.032 27.7429C103.651 31.2813 99.0433 33.989 99.0433 33.989Z" fill="white"/>
<path opacity="0.22" d="M84.6326 49.7672C83.5679 51.2404 79.3365 53.5122 79.0474 53.6636C84.7382 50.2813 83.4486 41.5752 83.4486 41.5752V41.6257C83.6735 42.2223 85.6698 48.3262 84.6326 49.7672Z" fill="white"/>
<path opacity="0.22" d="M81.9898 98.3368L175.462 170.257L179.39 167.329L81.6501 92.0585L81.9898 98.3368Z" fill="white"/>
<path opacity="0.22" d="M182.483 169.793L283.316 97.2168V92.2649L179.39 167.531L182.483 169.793Z" fill="white"/>
<path opacity="0.22" d="M283.261 91.1635L282.986 91.9346L280.935 93.986C282.376 91.4986 278.305 85.7251 278.305 85.7251L276.68 84.5089L271.802 80.8374L179.39 11.7121L182.332 9.45874L277.089 82.0949C278.797 82.9661 280.258 84.2536 281.337 85.8387C282.415 87.4237 283.077 89.255 283.261 91.1635Z" fill="white"/>
<path d="M357.696 58.0098C357.696 58.0098 342.171 78.0883 339.224 81.4524C333.85 87.5654 330.385 95.5831 330.385 95.5831L322.583 128.783L313.863 126.456C313.863 126.456 322.005 96.0145 325.277 89.5526C328.549 83.0908 355.815 56.3071 355.815 56.3071L357.696 58.0098Z" fill="url(#paint20_linear)"/>
<path d="M341.45 221.052C341.289 220.593 336.108 206.201 328.329 200.166C320.431 194.034 315.841 185.572 315.841 185.572C314.005 169.325 313.854 126.456 313.854 126.456L322.574 128.783C322.574 128.783 328.457 140.573 322.574 171.088L318.673 188.555C318.673 188.555 334.396 196.958 339.242 213.544L341.45 221.052Z" fill="#25233A"/>
<path d="M276.685 173.74C276.685 173.74 277.423 190.992 267.767 204.489C266.037 206.908 262.517 213.934 259.855 219.423L259.093 219.831L257.29 219.455L272.26 172.235C272.26 172.235 290.393 150.752 293.72 148.696C297.048 146.64 304.313 148.696 304.313 148.696L276.685 173.74Z" fill="#25233A"/>
</g>
<defs>
<linearGradient id="paint0_linear" x1="176.773" y1="29.7189" x2="176.773" y2="273.986" gradientUnits="userSpaceOnUse">
<stop stop-color="#FAA913"/>
<stop offset="0.5" stop-color="#FD772B"/>
<stop offset="1" stop-color="#FF4444"/>
</linearGradient>
<linearGradient id="paint1_linear" x1="321.466" y1="38.0276" x2="321.466" y2="128.783" gradientUnits="userSpaceOnUse">
<stop stop-color="#FAA913"/>
<stop offset="0.5" stop-color="#FD772B"/>
<stop offset="1" stop-color="#FF4444"/>
</linearGradient>
<linearGradient id="paint2_linear" x1="182.483" y1="80.6447" x2="182.483" y2="223.044" gradientUnits="userSpaceOnUse">
<stop stop-color="#FAA913"/>
<stop offset="0.5" stop-color="#FD772B"/>
<stop offset="1" stop-color="#FF4444"/>
</linearGradient>
<linearGradient id="paint3_linear" x1="182.334" y1="9.2522" x2="182.334" y2="84.2932" gradientUnits="userSpaceOnUse">
<stop stop-color="#FAA913"/>
<stop offset="0.5" stop-color="#FD772B"/>
<stop offset="1" stop-color="#FF4444"/>
</linearGradient>
<linearGradient id="paint4_linear" x1="182.483" y1="80.6447" x2="182.483" y2="167.329" gradientUnits="userSpaceOnUse">
<stop stop-color="#FAA913"/>
<stop offset="0.5" stop-color="#FD772B"/>
<stop offset="1" stop-color="#FF4444"/>
</linearGradient>
<linearGradient id="paint5_linear" x1="84.5042" y1="85.6471" x2="86.262" y2="80.8696" gradientUnits="userSpaceOnUse">
<stop offset="0.36" stop-color="#00272E"/>
<stop offset="0.75" stop-color="#3F80A1" stop-opacity="0.25"/>
<stop offset="1" stop-color="#69B9EB" stop-opacity="0"/>
</linearGradient>
<linearGradient id="paint6_linear" x1="204.086" y1="14.507" x2="148.554" y2="211.851" gradientUnits="userSpaceOnUse">
<stop stop-opacity="0"/>
<stop offset="0.91" stop-opacity="0.8"/>
<stop offset="1"/>
</linearGradient>
<linearGradient id="paint7_linear" x1="51939.4" y1="871.229" x2="51923.6" y2="2755.1" gradientUnits="userSpaceOnUse">
<stop stop-opacity="0"/>
<stop offset="0.91" stop-opacity="0.8"/>
<stop offset="1"/>
</linearGradient>
<linearGradient id="paint8_linear" x1="52788.6" y1="893.609" x2="52772.7" y2="2777.48" gradientUnits="userSpaceOnUse">
<stop stop-opacity="0"/>
<stop offset="0.91" stop-opacity="0.8"/>
<stop offset="1"/>
</linearGradient>
<linearGradient id="paint9_linear" x1="43527.8" y1="918.045" x2="43508.1" y2="2801.84" gradientUnits="userSpaceOnUse">
<stop stop-opacity="0"/>
<stop offset="0.91" stop-opacity="0.8"/>
<stop offset="1"/>
</linearGradient>
<linearGradient id="paint10_linear" x1="109.571" y1="15.6682" x2="109.571" y2="41.3963" gradientUnits="userSpaceOnUse">
<stop stop-color="#FAA913"/>
<stop offset="0.5" stop-color="#FD772B"/>
<stop offset="1" stop-color="#FF4444"/>
</linearGradient>
<linearGradient id="paint11_linear" x1="86.999" y1="41.5844" x2="86.999" y2="57.9593" gradientUnits="userSpaceOnUse">
<stop stop-color="#FAA913"/>
<stop offset="0.5" stop-color="#FD772B"/>
<stop offset="1" stop-color="#FF4444"/>
</linearGradient>
<linearGradient id="paint12_linear" x1="330.603" y1="44.7407" x2="330.603" y2="48.3197" gradientUnits="userSpaceOnUse">
<stop stop-color="#FAA913"/>
<stop offset="0.5" stop-color="#FD772B"/>
<stop offset="1" stop-color="#FF4444"/>
</linearGradient>
<linearGradient id="paint13_linear" x1="313.459" y1="69.2216" x2="323.097" y2="69.2216" gradientUnits="userSpaceOnUse">
<stop stop-color="#ECC4D7"/>
<stop offset="0.42" stop-color="#EFD4D1"/>
<stop offset="1" stop-color="#F2EAC9"/>
</linearGradient>
<linearGradient id="paint14_linear" x1="6710.59" y1="4866.38" x2="6659.14" y2="4359.09" gradientUnits="userSpaceOnUse">
<stop stop-color="#ECC4D7"/>
<stop offset="0.42" stop-color="#EFD4D1"/>
<stop offset="1" stop-color="#F2EAC9"/>
</linearGradient>
<linearGradient id="paint15_linear" x1="13882.5" y1="12108.2" x2="14792" y2="12108.2" gradientUnits="userSpaceOnUse">
<stop stop-color="#ECC4D7"/>
<stop offset="0.42" stop-color="#EFD4D1"/>
<stop offset="1" stop-color="#F2EAC9"/>
</linearGradient>
<linearGradient id="paint16_linear" x1="21238.3" y1="17706.7" x2="22865.1" y2="17706.7" gradientUnits="userSpaceOnUse">
<stop stop-color="#ECC4D7"/>
<stop offset="0.42" stop-color="#EFD4D1"/>
<stop offset="1" stop-color="#F2EAC9"/>
</linearGradient>
<linearGradient id="paint17_linear" x1="5200.86" y1="1791.99" x2="5189.09" y2="1952.5" gradientUnits="userSpaceOnUse">
<stop stop-color="#ECC4D7"/>
<stop offset="0.42" stop-color="#EFD4D1"/>
<stop offset="1" stop-color="#F2EAC9"/>
</linearGradient>
<linearGradient id="paint18_linear" x1="6227.96" y1="-23067.3" x2="5641.69" y2="-23432.8" gradientUnits="userSpaceOnUse">
<stop stop-color="#ECC4D7"/>
<stop offset="0.42" stop-color="#EFD4D1"/>
<stop offset="1" stop-color="#F2EAC9"/>
</linearGradient>
<linearGradient id="paint19_linear" x1="-1862.08" y1="-3706.76" x2="-1753.04" y2="-3852.11" gradientUnits="userSpaceOnUse">
<stop stop-color="#ECC4D7"/>
<stop offset="0.42" stop-color="#EFD4D1"/>
<stop offset="1" stop-color="#F2EAC9"/>
</linearGradient>
<linearGradient id="paint20_linear" x1="30615.3" y1="8149.65" x2="43860.2" y2="25874.3" gradientUnits="userSpaceOnUse">
<stop stop-opacity="0"/>
<stop offset="0.91" stop-opacity="0.8"/>
<stop offset="1"/>
</linearGradient>
<clipPath id="clip0">
<rect width="378" height="273.986" fill="white"/>
</clipPath>
</defs>
</svg>
