<svg width="290" height="218" viewBox="0 0 290 218" fill="none" xmlns="http://www.w3.org/2000/svg">
<path opacity="0.45" d="M145.341 201.688C186.802 201.688 220.412 198.104 220.412 193.684C220.412 189.263 186.802 185.679 145.341 185.679C103.88 185.679 70.2698 189.263 70.2698 193.684C70.2698 198.104 103.88 201.688 145.341 201.688Z" fill="#E6E6E6"/>
<path d="M240.167 79.891C246.98 79.891 252.503 74.368 252.503 67.5551C252.503 60.7422 246.98 55.2192 240.167 55.2192C233.354 55.2192 227.831 60.7422 227.831 67.5551C227.831 74.368 233.354 79.891 240.167 79.891Z" fill="#FD772B"/>
<path opacity="0.15" d="M240.167 91.07C253.154 91.07 263.682 80.542 263.682 67.5551C263.682 54.5682 253.154 44.0402 240.167 44.0402C227.18 44.0402 216.652 54.5682 216.652 67.5551C216.652 80.542 227.18 91.07 240.167 91.07Z" fill="#FD772B"/>
<path opacity="0.37" d="M104.125 95.8207C104.125 93.878 103.353 92.0149 101.979 90.6412C100.606 89.2676 98.7427 88.4958 96.8 88.4958C96.405 88.4963 96.0107 88.5302 95.6214 88.5971C94.7792 87.0278 93.5278 85.7158 92.0001 84.8005C90.4724 83.8851 88.7253 83.4005 86.9443 83.398H86.5827C86.8207 82.4719 86.9422 81.5197 86.9443 80.5635C86.9831 79.0003 86.7088 77.445 86.1374 75.9894C85.5659 74.5338 84.709 73.2072 83.6171 72.0878C82.5252 70.9684 81.2203 70.0788 79.7793 69.4714C78.3383 68.8641 76.7904 68.5511 75.2266 68.5511C73.6629 68.5511 72.1149 68.8641 70.6739 69.4714C69.2329 70.0788 67.9281 70.9684 66.8361 72.0878C65.7442 73.2072 64.8873 74.5338 64.3159 75.9894C63.7445 77.445 63.4701 79.0003 63.509 80.5635C63.5111 81.5197 63.6325 82.4719 63.8705 83.398H63.509C62.1898 83.3623 60.8769 83.5913 59.6478 84.0715C58.4186 84.5516 57.2981 85.2732 56.3525 86.1936C55.4068 87.114 54.6552 88.2146 54.142 89.4303C53.6287 90.646 53.3643 91.9522 53.3643 93.2718C53.3643 94.5914 53.6287 95.8977 54.142 97.1134C54.6552 98.3291 55.4068 99.4297 56.3525 100.35C57.2981 101.27 58.4186 101.992 59.6478 102.472C60.8769 102.952 62.1898 103.181 63.509 103.146H97.7762V103.073C99.5334 102.839 101.146 101.974 102.313 100.64C103.481 99.306 104.125 97.5936 104.125 95.8207Z" fill="#FD772B"/>
<path d="M142.666 175.129C178.06 175.129 206.753 146.436 206.753 111.042C206.753 75.6472 178.06 46.9543 142.666 46.9543C107.271 46.9543 78.5781 75.6472 78.5781 111.042C78.5781 146.436 107.271 175.129 142.666 175.129Z" fill="#EFEFEF"/>
<path d="M95.3032 69.0881C95.3032 69.0881 95.8672 78.3364 102.209 75.5959C108.55 72.8554 117.104 69.8112 116.179 79.985C115.253 90.1589 120.337 91.5545 127.502 89.002C134.668 86.4495 131.197 85.7625 131.66 76.5214C132.123 67.2804 120.091 66.8176 121.956 60.3459C123.822 53.8743 138.248 61.5896 133.222 47.6774C133.222 47.6412 107.936 49.731 95.3032 69.0881Z" fill="#CECECE"/>
<path d="M148.653 93.1742C147.308 93.1764 145.978 93.4674 144.755 94.0274C142.225 95.235 139.173 98.149 140.908 105.105C143.678 116.233 148.298 107.961 154.307 109.321C160.316 110.68 173.954 112.076 167.251 124.318C160.548 136.56 168.176 139.112 174.648 136.104C181.12 133.096 176.723 121.085 183.426 126.4C190.129 131.715 182.428 148.469 198.756 142.055C198.756 142.055 217.556 113.601 198.756 80.0212C198.756 80.0212 190.238 63.7227 183.535 69.5002C176.832 75.2777 186.058 75.6031 186.984 82.2338C187.909 88.8645 183.997 96.9631 178.654 89.5153C173.31 82.0675 175.111 82.7255 166.556 81.8C159.731 81.0769 154.987 81.8795 154.85 87.6787C154.82 89.1299 154.228 90.5129 153.199 91.5366C152.17 92.5603 150.784 93.1448 149.332 93.1669L148.653 93.1742Z" fill="#CECECE"/>
<path d="M146.961 57.0703C146.961 57.0703 140.308 55.2264 140.395 63.3105C140.482 71.3947 144.878 70.9319 149.73 68.8566C154.582 66.7814 150.453 73.4772 159.673 71.6333C168.892 69.7894 169.608 67.6129 167.525 64.4024C165.443 61.1919 161.972 48.9861 146.961 57.0703Z" fill="#CECECE"/>
<path d="M78.5781 111.042C78.5781 111.042 86.3947 98.2575 94.9344 106.898C103.474 115.539 86.6695 114.129 95.3032 122.474C103.937 130.818 109.91 111.461 114.79 118.8C119.671 126.14 129.165 131.151 118.008 137.601C106.851 144.051 113.525 153.053 118.666 151.152C123.807 149.25 132.933 162.258 118.666 170.306C118.666 170.342 76.7921 155.063 78.5781 111.042Z" fill="#CECECE"/>
<path d="M145.58 125.706C145.58 125.706 136.801 125.706 136.772 134.029C136.744 142.352 153.172 134.477 149.354 143.494C145.536 152.511 154.51 154.941 159.477 151.188C164.445 147.435 155.862 136.126 156.701 128.143C157.54 120.16 146.556 122.011 145.58 125.706Z" fill="#CECECE"/>
<path d="M142.666 175.129C142.666 175.129 136.997 169.149 149.354 167.768C161.712 166.387 161.979 159.908 165.985 157.131C169.991 154.355 178.531 164.153 178.531 164.153C178.531 164.153 162.695 178.332 142.666 175.129Z" fill="#CECECE"/>
<path opacity="0.08" d="M102.202 141.939H111.602V167.059C111.602 167.059 104.371 162.764 102.202 160.711C100.032 158.657 102.202 141.939 102.202 141.939Z" fill="black"/>
<path opacity="0.08" d="M164.843 91.9305C169.144 91.9305 172.63 90.8524 172.63 89.5226C172.63 88.1927 169.144 87.1147 164.843 87.1147C160.542 87.1147 157.055 88.1927 157.055 89.5226C157.055 90.8524 160.542 91.9305 164.843 91.9305Z" fill="black"/>
<path d="M180.772 58.6756C180.761 56.2258 180.185 53.8117 179.087 51.6215C177.99 49.4313 176.401 47.5241 174.445 46.0487C172.49 44.5733 170.22 43.5695 167.812 43.1155C165.405 42.6616 162.925 42.7697 160.567 43.4316C158.208 44.0935 156.034 45.2911 154.214 46.9313C152.395 48.5714 150.978 50.6096 150.076 52.8871C149.173 55.1645 148.809 57.6197 149.011 60.0611C149.213 62.5025 149.977 64.8642 151.241 66.9622V66.9622L164.865 89.255L178.401 67.0706C179.962 64.5498 180.784 61.6409 180.772 58.6756V58.6756ZM164.865 67.1285C163.324 67.1285 161.819 66.6718 160.538 65.816C159.257 64.9603 158.259 63.744 157.67 62.321C157.08 60.898 156.926 59.3322 157.226 57.8215C157.527 56.3109 158.269 54.9232 159.358 53.8341C160.447 52.745 161.835 52.0033 163.345 51.7028C164.856 51.4023 166.422 51.5565 167.845 52.1459C169.268 52.7354 170.484 53.7335 171.34 55.0142C172.195 56.2949 172.652 57.8006 172.652 59.3408C172.652 61.4062 171.832 63.3871 170.371 64.8475C168.911 66.308 166.93 67.1285 164.865 67.1285V67.1285Z" fill="url(#paint0_linear)"/>
<path opacity="0.08" d="M111.573 67.989C115.283 67.989 118.29 67.1019 118.29 66.0077C118.29 64.9135 115.283 64.0264 111.573 64.0264C107.863 64.0264 104.855 64.9135 104.855 66.0077C104.855 67.1019 107.863 67.989 111.573 67.989Z" fill="black"/>
<path d="M123.431 43.158C123.431 41.3277 123.007 39.5223 122.192 37.8832C121.377 36.2441 120.194 34.8159 118.735 33.7103C117.277 32.6048 115.582 31.8519 113.784 31.5107C111.985 31.1695 110.132 31.2491 108.37 31.7435C106.608 32.2378 104.984 33.1334 103.625 34.3601C102.267 35.5868 101.211 37.1113 100.54 38.8143C99.8686 40.5172 99.601 42.3524 99.7576 44.176C99.9142 45.9997 100.491 47.7624 101.442 49.326V49.326L111.566 65.9571L121.653 49.3838C122.814 47.515 123.431 45.3586 123.431 43.158ZM111.573 49.4489C110.429 49.4489 109.31 49.1096 108.359 48.474C107.408 47.8384 106.666 46.9349 106.228 45.8779C105.791 44.8209 105.676 43.6578 105.899 42.5357C106.122 41.4135 106.673 40.3828 107.482 39.5738C108.291 38.7648 109.322 38.2138 110.444 37.9906C111.566 37.7674 112.729 37.882 113.786 38.3198C114.843 38.7576 115.747 39.4991 116.383 40.4504C117.018 41.4017 117.357 42.5201 117.357 43.6642C117.357 45.1984 116.748 46.6698 115.663 47.7546C114.578 48.8395 113.107 49.4489 111.573 49.4489V49.4489Z" fill="url(#paint1_linear)"/>
<path opacity="0.08" d="M147.337 134.209C150.036 134.209 152.225 133.611 152.225 132.872C152.225 132.133 150.036 131.534 147.337 131.534C144.637 131.534 142.449 132.133 142.449 132.872C142.449 133.611 144.637 134.209 147.337 134.209Z" fill="black"/>
<path opacity="0.08" d="M190.339 127.174C190.339 127.174 178.769 129.589 182.038 140.913C182.038 140.913 171.09 147.377 174.807 155.765C174.807 155.765 176.362 160.769 184.07 159.937C184.07 159.937 187.331 157.045 187.888 156.437C188.444 155.83 190.339 127.174 190.339 127.174Z" fill="black"/>
<path d="M155.92 116.4C155.921 115.074 155.614 113.766 155.025 112.579C154.436 111.391 153.579 110.356 152.523 109.555C151.466 108.754 150.239 108.209 148.936 107.962C147.634 107.715 146.292 107.773 145.016 108.131C143.739 108.49 142.563 109.139 141.58 110.028C140.597 110.918 139.833 112.022 139.348 113.256C138.863 114.49 138.671 115.82 138.786 117.14C138.901 118.461 139.321 119.737 140.012 120.869V120.869L147.344 132.872L154.633 120.926C155.477 119.568 155.923 117.999 155.92 116.4V116.4ZM147.337 120.97C146.507 120.97 145.696 120.724 145.007 120.263C144.317 119.802 143.78 119.147 143.462 118.381C143.145 117.614 143.062 116.771 143.223 115.958C143.385 115.144 143.785 114.397 144.371 113.81C144.958 113.224 145.705 112.824 146.519 112.663C147.332 112.501 148.175 112.584 148.942 112.901C149.708 113.219 150.363 113.756 150.824 114.446C151.285 115.136 151.531 115.946 151.531 116.776C151.531 117.888 151.089 118.955 150.302 119.741C149.516 120.528 148.449 120.97 147.337 120.97V120.97Z" fill="url(#paint2_linear)"/>
<path d="M222.401 149.807C222.402 148.936 222.231 148.073 221.898 147.268C221.565 146.463 221.077 145.732 220.461 145.116C219.845 144.5 219.114 144.012 218.309 143.679C217.504 143.346 216.641 143.175 215.77 143.176C215.414 143.178 215.058 143.209 214.707 143.27C213.941 141.842 212.8 140.65 211.408 139.82C210.016 138.991 208.424 138.556 206.804 138.563H206.478C206.69 137.721 206.799 136.856 206.804 135.988C206.731 133.222 205.582 130.593 203.6 128.662C201.618 126.731 198.96 125.65 196.192 125.65C193.425 125.65 190.767 126.731 188.785 128.662C186.803 130.593 185.653 133.222 185.581 135.988C185.585 136.856 185.695 137.721 185.906 138.563H185.581C183.211 138.563 180.937 139.504 179.261 141.18C177.585 142.856 176.644 145.13 176.644 147.5C176.644 149.87 177.585 152.144 179.261 153.82C180.937 155.496 183.211 156.437 185.581 156.437H216.638V156.401C218.235 156.189 219.701 155.403 220.761 154.189C221.821 152.976 222.404 151.418 222.401 149.807V149.807Z" fill="#F3BD9E"/>
<path d="M102.201 135.446H43.9277V168.802H102.201V135.446Z" fill="#24285B"/>
<path d="M67.0159 147.782C67.0141 146.703 66.7631 145.639 66.2824 144.672C65.8016 143.706 65.1042 142.864 64.2445 142.212C63.3848 141.559 62.386 141.114 61.3261 140.912C60.2662 140.709 59.1737 140.754 58.1339 141.042C57.0941 141.331 56.135 141.856 55.3315 142.577C54.5281 143.297 53.9019 144.194 53.5018 145.196C53.1017 146.198 52.9385 147.279 53.025 148.355C53.1114 149.431 53.4452 150.472 54.0003 151.397L60.0164 161.224L65.9674 151.47C66.6548 150.363 67.018 149.085 67.0159 147.782V147.782ZM60.0164 151.499C59.3385 151.499 58.6759 151.298 58.1122 150.921C57.5486 150.544 57.1093 150.009 56.8499 149.383C56.5904 148.756 56.5226 148.067 56.6548 147.402C56.7871 146.738 57.1135 146.127 57.5928 145.648C58.0722 145.168 58.6829 144.842 59.3477 144.71C60.0126 144.577 60.7017 144.645 61.328 144.905C61.9543 145.164 62.4896 145.603 62.8662 146.167C63.2428 146.731 63.4438 147.393 63.4438 148.071C63.4438 148.98 63.0827 149.852 62.44 150.495C61.7972 151.137 60.9254 151.499 60.0164 151.499Z" fill="#FD772B"/>
<path d="M94.45 144.651H73.2707V149.452H94.45V144.651Z" fill="white"/>
<path opacity="0.19" d="M94.45 153.364H73.2707V158.166H94.45V153.364Z" fill="white"/>
<defs>
<linearGradient id="paint0_linear" x1="164.865" y1="42.84" x2="164.865" y2="89.255" gradientUnits="userSpaceOnUse">
<stop stop-color="#FAA913"/>
<stop offset="0.5" stop-color="#FD772B"/>
<stop offset="1" stop-color="#FF4444"/>
</linearGradient>
<linearGradient id="paint1_linear" x1="111.573" y1="31.3028" x2="111.573" y2="65.9571" gradientUnits="userSpaceOnUse">
<stop stop-color="#FAA913"/>
<stop offset="0.5" stop-color="#FD772B"/>
<stop offset="1" stop-color="#FF4444"/>
</linearGradient>
<linearGradient id="paint2_linear" x1="147.337" y1="107.812" x2="147.337" y2="132.872" gradientUnits="userSpaceOnUse">
<stop stop-color="#FAA913"/>
<stop offset="0.5" stop-color="#FD772B"/>
<stop offset="1" stop-color="#FF4444"/>
</linearGradient>
</defs>
</svg>
