<svg width="293" height="219" viewBox="0 0 293 219" fill="none" xmlns="http://www.w3.org/2000/svg">
<path opacity="0.45" d="M150.774 199.954C211.908 199.954 261.468 193.186 261.468 184.838C261.468 176.489 211.908 169.722 150.774 169.722C89.6391 169.722 40.0797 176.489 40.0797 184.838C40.0797 193.186 89.6391 199.954 150.774 199.954Z" fill="#E6E6E6"/>
<path opacity="0.58" d="M209.736 171.283C209.736 171.283 200.93 168.919 198.982 160.734C198.982 160.734 212.603 157.925 213.048 171.99L209.736 171.283Z" fill="url(#paint0_linear)"/>
<path opacity="0.73" d="M210.815 170.407C210.815 170.407 204.629 160.712 209.998 151.607C209.998 151.607 220.387 158.173 215.835 170.407H210.815Z" fill="url(#paint1_linear)"/>
<path d="M212.369 170.407C212.369 170.407 215.572 160.128 225.384 158.144C225.384 158.144 227.252 164.797 219.074 170.407H212.369Z" fill="url(#paint2_linear)"/>
<path d="M206.015 170.203L207.853 182.394H219.081L220.686 170.203H206.015Z" fill="#24285B"/>
<path d="M188.345 33.063H105.082V182.394H188.345V33.063Z" fill="#C9C9C9"/>
<path d="M180.889 50.0906H111.969V155.182H180.889V50.0906Z" fill="white"/>
<path opacity="0.08" d="M188.338 62.6753H155.107V91.8352H188.338V62.6753Z" fill="black"/>
<path opacity="0.08" d="M188.338 105.419H150V134.579H188.338V105.419Z" fill="black"/>
<path opacity="0.56" d="M146.965 176.791C151.466 176.791 155.114 173.142 155.114 168.642C155.114 164.141 151.466 160.493 146.965 160.493C142.465 160.493 138.816 164.141 138.816 168.642C138.816 173.142 142.465 176.791 146.965 176.791Z" fill="white"/>
<path opacity="0.08" d="M136.314 90.2376L150 92.2803L149.577 93.1923C148.212 96.2683 147.428 99.5704 147.265 102.932C147.162 104.566 146.236 106.798 143.157 109.425C137.904 113.904 134.527 128.327 127.552 133.959C125.488 135.68 123.813 137.82 122.638 140.238C121.463 142.655 120.816 145.295 120.738 147.981L119.381 182.387H105.855L108.839 129.779L112.421 111.621L121.176 102.633L129.201 92.2803L132.849 90.2376H136.314Z" fill="black"/>
<path opacity="0.12" d="M163.015 38.8994H139.67V42.3063H163.015V38.8994Z" fill="black"/>
<path d="M131.215 44.7722C133.314 44.7722 135.015 43.0705 135.015 40.9713C135.015 38.8721 133.314 37.1703 131.215 37.1703C129.115 37.1703 127.414 38.8721 127.414 40.9713C127.414 43.0705 129.115 44.7722 131.215 44.7722Z" fill="white"/>
<path d="M112.392 109.811L125.495 93.4767L128.326 95.9571L117.156 114.634L112.392 109.811Z" fill="url(#paint3_linear)"/>
<path d="M90.6883 82.9055L93.1031 90.1645L87.3615 93.8122L85.2969 81.2349L90.6883 82.9055Z" fill="#F4A28C"/>
<path d="M83.3271 74.224C83.6253 73.5324 84.0916 72.9264 84.6838 72.4611C85.2759 71.9957 85.9751 71.6859 86.7175 71.5597C87.46 71.4336 88.2222 71.4951 88.9348 71.7387C89.6474 71.9823 90.2878 72.4003 90.7977 72.9546C93.2416 75.559 96.189 79.7102 92.855 81.9717C87.7482 85.4298 83.0718 78.966 83.0718 78.966C82.6877 77.3947 82.7766 75.745 83.3271 74.224Z" fill="#F4A28C"/>
<path d="M87.0551 78.6742C87.0551 78.6742 85.7492 77.5799 85.151 79.1338C84.5528 80.6878 86.8727 81.4319 87.5585 80.6513C88.2443 79.8707 87.0551 78.6742 87.0551 78.6742Z" fill="#F4A28C"/>
<path d="M80.657 97.3725C81.5252 95.452 82.7969 93.7412 84.3857 92.3564C85.9744 90.9716 87.8429 89.9453 89.8639 89.3475C97.6627 87.0056 112.035 89.5663 116.412 96.8691C122.409 106.857 113.632 138.599 113.632 138.599L87.4126 140.635C87.4126 140.635 73.0259 114.604 80.657 97.3725Z" fill="url(#paint4_linear)"/>
<path d="M113.632 138.585L110.182 183.656H104.732L99.8586 148.638L87.8065 140.62L113.632 138.585Z" fill="#24285B"/>
<path d="M87.8065 140.62L80.2849 183.656H86.1286L98.757 147.901L87.8065 140.62Z" fill="#24285B"/>
<path opacity="0.08" d="M92.1327 88.6472C92.1327 88.6472 79.8691 128.145 115.281 130.764L113.632 138.614L87.4126 140.649C87.4126 140.649 78.1765 126.139 78.5632 105.762C78.5632 105.762 78.7893 95.6873 85.8586 91.2371C87.7415 89.9364 89.8807 89.0534 92.1327 88.6472Z" fill="black"/>
<path d="M81.6565 183.561L78.1327 186.158C78.004 186.257 77.9091 186.393 77.8611 186.547C77.8131 186.702 77.8145 186.868 77.865 187.022C77.9155 187.176 78.0127 187.31 78.143 187.406C78.2733 187.503 78.4304 187.556 78.5924 187.559H84.4944C84.7002 187.557 84.8968 187.474 85.0417 187.328C85.1865 187.182 85.2677 186.984 85.2677 186.778V183.561H81.6565Z" fill="url(#paint5_linear)"/>
<path d="M109.503 183.561L112.823 186.158C112.953 186.258 113.048 186.396 113.096 186.552C113.143 186.709 113.14 186.877 113.087 187.032C113.034 187.187 112.933 187.321 112.799 187.416C112.665 187.51 112.505 187.56 112.341 187.559H108.139C107.84 187.564 107.544 187.509 107.266 187.398C106.989 187.287 106.737 187.121 106.524 186.911C106.311 186.701 106.143 186.451 106.028 186.175C105.913 185.899 105.855 185.603 105.856 185.305V183.554L109.503 183.561Z" fill="url(#paint6_linear)"/>
<path d="M102.821 89.1287C101.514 91.2258 100.822 93.647 100.822 96.1177C100.822 98.5884 101.514 101.01 102.821 103.107C105.68 107.936 114.005 117.333 119.688 123.534C120.33 124.237 121.13 124.777 122.022 125.11C122.914 125.443 123.872 125.559 124.818 125.449C125.764 125.338 126.67 125.005 127.461 124.475C128.252 123.946 128.906 123.235 129.369 122.403L141.603 100.874L137.459 98.2188L126.261 114.634C126.261 114.634 118.579 89.4424 102.821 89.1287Z" fill="url(#paint7_linear)"/>
<path opacity="0.2" d="M102.821 89.1287C101.514 91.2258 100.822 93.647 100.822 96.1177C100.822 98.5884 101.514 101.01 102.821 103.107C105.68 107.936 114.005 117.333 119.688 123.534C120.33 124.237 121.13 124.777 122.022 125.11C122.914 125.443 123.872 125.559 124.818 125.449C125.764 125.338 126.67 125.005 127.461 124.475C128.252 123.946 128.906 123.235 129.369 122.403L141.603 100.874L137.459 98.2188L126.261 114.634C126.261 114.634 118.579 89.4424 102.821 89.1287Z" fill="white"/>
<path d="M140.144 99.9478C140.144 99.9478 147.082 97.4017 144.252 93.4767C141.421 89.5518 137.445 98.2188 137.445 98.2188L140.144 99.9478Z" fill="#F4A28C"/>
<path d="M146.445 88.5497L140.193 85.7492L136.11 94.864L142.362 97.6645L146.445 88.5497Z" fill="#FD772B"/>
<path d="M85.6762 83.5403L81.7805 79.5205C81.3788 79.1021 81.0669 78.6061 80.8636 78.063C80.6604 77.5198 80.5702 76.9408 80.5986 76.3616C80.6934 74.3188 81.1312 71.0578 82.7872 68.6065C85.4428 64.7691 88.9811 63.3173 89.8565 66.6367C90.732 69.9561 90.9217 66.0166 93.0593 67.7748C95.1968 69.533 94.7591 70.5763 93.0593 71.5101C91.3594 72.4439 87.8357 73.8008 87.522 76.6169C87.2083 79.4329 89.9076 81.6581 85.6762 83.5403Z" fill="#24285B"/>
<path d="M126.159 94.0603C126.159 94.0603 127.027 88.0708 132.834 88.6471C138.641 89.2235 136.518 90.7044 134.176 90.8357C133.7 90.9359 133.259 91.162 132.9 91.4905C132.541 91.8189 132.276 92.2378 132.134 92.7034C131.791 93.7539 130.85 95.1109 128.347 95.9718L126.159 94.0603Z" fill="#F4A28C"/>
<path d="M224.801 58.3636H155.107V87.5236H224.801V58.3636Z" fill="#FD772B"/>
<path d="M219.694 101.407H150V130.567H219.694V101.407Z" fill="#FD772B"/>
<path d="M186.142 64.6888H163.015V79.5059H186.142V64.6888Z" fill="white"/>
<path d="M163.015 64.6888L174.571 75.508L186.135 64.6888H163.015Z" fill="#24285B"/>
<path d="M215.929 66.2646H194.649V70.6419H215.929V66.2646Z" fill="white"/>
<path opacity="0.46" d="M215.929 73.3194H194.649V77.6967H215.929V73.3194Z" fill="white"/>
<path d="M209.626 109.425H186.565V113.802H209.626V109.425Z" fill="white"/>
<path opacity="0.46" d="M209.626 116.479H186.565V120.857H209.626V116.479Z" fill="white"/>
<path d="M169.275 126.547C175.234 126.547 180.065 121.716 180.065 115.757C180.065 109.798 175.234 104.967 169.275 104.967C163.316 104.967 158.485 109.798 158.485 115.757C158.485 121.716 163.316 126.547 169.275 126.547Z" fill="#24285B"/>
<path d="M169.538 117.187C171.826 117.187 173.681 115.332 173.681 113.043C173.681 110.755 171.826 108.899 169.538 108.899C167.249 108.899 165.394 110.755 165.394 113.043C165.394 115.332 167.249 117.187 169.538 117.187Z" fill="white"/>
<path opacity="0.24" d="M162.031 123.767C162.031 123.767 162.928 117.435 169.26 117.107C175.972 116.764 176.49 123.767 176.49 123.767C174.507 125.557 171.931 126.548 169.26 126.548C166.589 126.548 164.013 125.557 162.031 123.767Z" fill="white"/>
<path d="M72.8435 87.188L66.854 84.7367V79.0463H43.3261V93.7028H66.854V88.7711L72.8435 87.188Z" fill="#E6E6E6"/>
<path opacity="0.12" d="M49.8264 88.1657C50.8135 88.1657 51.6138 87.3655 51.6138 86.3783C51.6138 85.3912 50.8135 84.5909 49.8264 84.5909C48.8392 84.5909 48.039 85.3912 48.039 86.3783C48.039 87.3655 48.8392 88.1657 49.8264 88.1657Z" fill="black"/>
<path opacity="0.12" d="M55.0499 88.1657C56.0371 88.1657 56.8373 87.3655 56.8373 86.3783C56.8373 85.3912 56.0371 84.5909 55.0499 84.5909C54.0628 84.5909 53.2625 85.3912 53.2625 86.3783C53.2625 87.3655 54.0628 88.1657 55.0499 88.1657Z" fill="black"/>
<path opacity="0.12" d="M60.1494 88.1657C61.1366 88.1657 61.9368 87.3655 61.9368 86.3783C61.9368 85.3912 61.1366 84.5909 60.1494 84.5909C59.1623 84.5909 58.362 85.3912 58.362 86.3783C58.362 87.3655 59.1623 88.1657 60.1494 88.1657Z" fill="black"/>
<defs>
<linearGradient id="paint0_linear" x1="206.015" y1="160.505" x2="206.015" y2="171.99" gradientUnits="userSpaceOnUse">
<stop stop-color="#FAA913"/>
<stop offset="0.5" stop-color="#FD772B"/>
<stop offset="1" stop-color="#FF4444"/>
</linearGradient>
<linearGradient id="paint1_linear" x1="212.397" y1="151.607" x2="212.397" y2="170.407" gradientUnits="userSpaceOnUse">
<stop stop-color="#FAA913"/>
<stop offset="0.5" stop-color="#FD772B"/>
<stop offset="1" stop-color="#FF4444"/>
</linearGradient>
<linearGradient id="paint2_linear" x1="218.969" y1="158.144" x2="218.969" y2="170.407" gradientUnits="userSpaceOnUse">
<stop stop-color="#FAA913"/>
<stop offset="0.5" stop-color="#FD772B"/>
<stop offset="1" stop-color="#FF4444"/>
</linearGradient>
<linearGradient id="paint3_linear" x1="120.359" y1="93.4767" x2="120.359" y2="114.634" gradientUnits="userSpaceOnUse">
<stop stop-color="#FAA913"/>
<stop offset="0.5" stop-color="#FD772B"/>
<stop offset="1" stop-color="#FF4444"/>
</linearGradient>
<linearGradient id="paint4_linear" x1="98.4667" y1="88.5063" x2="98.4667" y2="140.635" gradientUnits="userSpaceOnUse">
<stop stop-color="#FAA913"/>
<stop offset="0.5" stop-color="#FD772B"/>
<stop offset="1" stop-color="#FF4444"/>
</linearGradient>
<linearGradient id="paint5_linear" x1="81.5469" y1="183.561" x2="81.5469" y2="187.559" gradientUnits="userSpaceOnUse">
<stop stop-color="#FAA913"/>
<stop offset="0.5" stop-color="#FD772B"/>
<stop offset="1" stop-color="#FF4444"/>
</linearGradient>
<linearGradient id="paint6_linear" x1="109.492" y1="183.554" x2="109.492" y2="187.559" gradientUnits="userSpaceOnUse">
<stop stop-color="#FAA913"/>
<stop offset="0.5" stop-color="#FD772B"/>
<stop offset="1" stop-color="#FF4444"/>
</linearGradient>
<linearGradient id="paint7_linear" x1="121.213" y1="89.1287" x2="121.213" y2="125.489" gradientUnits="userSpaceOnUse">
<stop stop-color="#FAA913"/>
<stop offset="0.5" stop-color="#FD772B"/>
<stop offset="1" stop-color="#FF4444"/>
</linearGradient>
</defs>
</svg>
