<svg width="292" height="220" viewBox="0 0 292 220" fill="none" xmlns="http://www.w3.org/2000/svg">
<path opacity="0.45" d="M147.587 192.435C189.417 192.435 223.328 188.82 223.328 184.359C223.328 179.899 189.417 176.283 147.587 176.283C105.756 176.283 71.8451 179.899 71.8451 184.359C71.8451 188.82 105.756 192.435 147.587 192.435Z" fill="#E6E6E6"/>
<path opacity="0.37" d="M98.9113 81.0848C98.9113 79.1241 98.1329 77.2436 96.7472 75.8565C95.3614 74.4694 93.4817 73.6891 91.521 73.6872C91.1222 73.6901 90.7244 73.7267 90.3318 73.7966C89.4815 72.2139 88.2188 70.8906 86.6776 69.9672C85.1364 69.0437 83.374 68.5544 81.5773 68.5512H81.2125C81.4531 67.6144 81.5756 66.6513 81.5773 65.6841C81.5007 62.5995 80.2215 59.667 78.0127 57.5124C75.8039 55.3578 72.8406 54.1519 69.755 54.1519C66.6694 54.1519 63.706 55.3578 61.4973 57.5124C59.2885 59.667 58.0093 62.5995 57.9327 65.6841C57.9344 66.6513 58.0569 67.6144 58.2975 68.5512H57.9327C56.6018 68.5152 55.2772 68.7462 54.037 69.2307C52.7969 69.7151 51.6664 70.4431 50.7123 71.3717C49.7582 72.3003 48.9999 73.4107 48.4821 74.6373C47.9643 75.8639 47.6975 77.1818 47.6975 78.5132C47.6975 79.8445 47.9643 81.1624 48.4821 82.389C48.9999 83.6156 49.7582 84.726 50.7123 85.6546C51.6664 86.5832 52.7969 87.3112 54.037 87.7957C55.2772 88.2801 56.6018 88.5111 57.9327 88.4751H92.5059V88.4021C94.2782 88.1638 95.9039 87.291 97.0817 85.9455C98.2596 84.6 98.9096 82.873 98.9113 81.0848Z" fill="#FD772B" fill-opacity="0.78"/>
<path d="M144.887 165.632C180.598 165.632 209.547 136.683 209.547 100.972C209.547 65.2617 180.598 36.3126 144.887 36.3126C109.177 36.3126 80.2276 65.2617 80.2276 100.972C80.2276 136.683 109.177 165.632 144.887 165.632Z" fill="#EFEFEF"/>
<path opacity="0.37" d="M97.102 58.6513C97.102 58.6513 97.6711 67.9749 104.076 65.2172C110.482 62.4595 119.098 59.3809 118.171 69.6456C117.245 79.9103 122.366 81.3183 129.596 78.7357C136.826 76.1531 133.324 75.4746 133.791 66.1438C134.258 56.8129 122.133 56.3168 124 49.8165C125.868 43.3163 140.43 51.0713 135.359 37.0422C135.359 37.013 109.847 39.1214 97.102 58.6513Z" fill="#CECECE"/>
<path opacity="0.37" d="M150.928 82.9524C149.573 82.9481 148.234 83.2394 147.003 83.806C144.45 85.0243 141.371 87.9644 143.115 94.9826C145.916 106.21 150.578 97.9008 156.64 99.2432C162.703 100.586 176.455 102.015 169.699 114.374C162.944 126.732 170.626 129.293 177.155 126.266C183.685 123.238 179.256 111.113 186.019 116.475C192.782 121.837 185.012 138.733 201.507 132.255C201.507 132.255 220.476 103.54 201.507 69.6674C201.507 69.6674 192.913 53.2161 186.15 59.0452C179.388 64.8743 188.697 65.2025 189.623 71.8998C190.55 78.597 186.617 86.7533 181.219 79.239C175.82 71.7247 177.644 72.3886 169.021 71.462C162.126 70.7325 157.348 71.5423 157.209 77.3933C157.179 78.8567 156.582 80.2513 155.543 81.283C154.505 82.3146 153.107 82.9027 151.643 82.9232L150.928 82.9524Z" fill="#CECECE"/>
<path opacity="0.37" d="M149.221 46.5262C149.221 46.5262 142.516 44.6586 142.604 52.8222C142.691 60.9858 147.127 60.5116 152.022 58.4105C156.917 56.3094 152.752 63.0796 162.046 61.212C171.341 59.3443 172.07 57.163 169.976 53.9165C167.883 50.67 164.381 38.3626 149.221 46.5262Z" fill="#CECECE"/>
<path opacity="0.37" d="M80.2276 100.972C80.2276 100.972 88.1213 88.0738 96.7299 96.7919C105.339 105.51 88.3985 104.087 97.102 112.506C105.805 120.925 111.868 101.403 116.8 108.822C121.731 116.242 131.303 121.275 120.046 127.79C108.789 134.305 115.53 143.388 120.71 141.462C125.89 139.536 135.111 152.668 120.71 160.795C120.674 160.81 78.4256 145.387 80.2276 100.972Z" fill="#CECECE"/>
<path opacity="0.37" d="M147.835 115.775C147.835 115.775 138.971 115.775 138.949 124.164C138.927 132.554 155.495 124.624 151.636 133.722C147.776 142.819 156.845 145.27 161.849 141.477C166.854 137.683 158.201 126.287 159.04 118.233C159.879 110.179 148.82 112.039 147.835 115.775Z" fill="#CECECE"/>
<path opacity="0.37" d="M144.887 165.632C144.887 165.632 139.175 159.606 151.636 158.205C164.096 156.804 164.373 150.282 168.415 147.481C172.457 144.679 181.065 154.557 181.065 154.557C181.065 154.557 165.132 168.864 144.887 165.632Z" fill="#CECECE"/>
<path d="M238.751 134.013C238.751 132.239 238.046 130.537 236.791 129.283C235.537 128.028 233.835 127.323 232.061 127.323C231.701 127.325 231.343 127.357 230.988 127.418C230.218 125.982 229.072 124.782 227.672 123.945C226.273 123.109 224.674 122.668 223.044 122.669H222.708C222.928 121.82 223.04 120.948 223.044 120.072C222.971 117.281 221.811 114.628 219.811 112.68C217.811 110.732 215.129 109.641 212.337 109.641C209.545 109.641 206.864 110.732 204.864 112.68C202.864 114.628 201.704 117.281 201.631 120.072C201.632 120.948 201.742 121.82 201.96 122.669H201.631C199.24 122.669 196.946 123.619 195.255 125.31C193.564 127.001 192.614 129.295 192.614 131.686C192.614 134.078 193.564 136.371 195.255 138.062C196.946 139.753 199.24 140.703 201.631 140.703H232.936V140.645C234.544 140.431 236.02 139.641 237.089 138.421C238.159 137.202 238.749 135.635 238.751 134.013Z" fill="#FD772B" fill-opacity="0.78"/>
<path d="M95.4314 94.7491L143.581 97.8351L192.607 81.6756L125.518 57.4839L95.4314 94.7491Z" stroke="#24285B" stroke-width="1.45909" stroke-linecap="round" stroke-linejoin="round" stroke-dasharray="1.46 7.3"/>
<path d="M95.4314 94.7491L106.404 134.626L167.204 149.144L192.607 81.6757" stroke="#24285B" stroke-width="1.45909" stroke-linecap="round" stroke-linejoin="round" stroke-dasharray="1.46 7.3"/>
<path d="M106.404 134.626L142.524 97.8352L167.204 149.144" stroke="#24285B" stroke-width="1.45909" stroke-linecap="round" stroke-linejoin="round" stroke-dasharray="1.46 7.3"/>
<path d="M192.607 88.9638C196.632 88.9638 199.895 85.7008 199.895 81.6757C199.895 77.6505 196.632 74.3875 192.607 74.3875C188.582 74.3875 185.319 77.6505 185.319 81.6757C185.319 85.7008 188.582 88.9638 192.607 88.9638Z" fill="url(#paint0_linear)"/>
<path d="M106.404 141.914C110.429 141.914 113.692 138.651 113.692 134.626C113.692 130.601 110.429 127.338 106.404 127.338C102.379 127.338 99.1156 130.601 99.1156 134.626C99.1156 138.651 102.379 141.914 106.404 141.914Z" fill="url(#paint1_linear)"/>
<path d="M142.524 97.8351L125.518 57.4839" stroke="#24285B" stroke-width="1.45909" stroke-linecap="round" stroke-linejoin="round" stroke-dasharray="1.46 7.3"/>
<path d="M167.204 155.112C170.5 155.112 173.172 152.44 173.172 149.144C173.172 145.848 170.5 143.176 167.204 143.176C163.908 143.176 161.236 145.848 161.236 149.144C161.236 152.44 163.908 155.112 167.204 155.112Z" fill="url(#paint2_linear)"/>
<path d="M95.4314 100.717C98.7272 100.717 101.399 98.045 101.399 94.7492C101.399 91.4533 98.7272 88.7815 95.4314 88.7815C92.1355 88.7815 89.4637 91.4533 89.4637 94.7492C89.4637 98.045 92.1355 100.717 95.4314 100.717Z" fill="url(#paint3_linear)"/>
<path d="M142.524 106.24C147.165 106.24 150.928 102.477 150.928 97.8352C150.928 93.1936 147.165 89.4308 142.524 89.4308C137.882 89.4308 134.119 93.1936 134.119 97.8352C134.119 102.477 137.882 106.24 142.524 106.24Z" fill="#FFD200"/>
<path d="M125.518 64.7721C129.543 64.7721 132.806 61.5091 132.806 57.484C132.806 53.4588 129.543 50.1958 125.518 50.1958C121.493 50.1958 118.23 53.4588 118.23 57.484C118.23 61.5091 121.493 64.7721 125.518 64.7721Z" fill="url(#paint4_linear)"/>
<path opacity="0.58" d="M85.7065 172.942C85.7065 172.942 77.6815 170.753 75.9671 163.312C75.9671 163.312 88.3694 160.802 88.7195 173.606L85.7065 172.942Z" fill="url(#paint5_linear)"/>
<path opacity="0.73" d="M86.6914 172.154C86.6914 172.154 81.0958 163.312 86.0202 155.046C86.0202 155.046 95.4459 161.036 91.2584 172.169L86.6914 172.154Z" fill="url(#paint6_linear)"/>
<path d="M88.1286 172.154C88.1286 172.154 91.0468 162.823 100.013 161.058C100.013 161.058 101.684 167.113 94.2276 172.183L88.1286 172.154Z" fill="url(#paint7_linear)"/>
<path d="M82.3287 171.95L83.9483 183.046L94.1619 183.09L95.6721 172.001L82.3287 171.95Z" fill="#24285B"/>
<defs>
<linearGradient id="paint0_linear" x1="192.607" y1="74.3875" x2="192.607" y2="88.9638" gradientUnits="userSpaceOnUse">
<stop stop-color="#FAA913"/>
<stop offset="0.5" stop-color="#FD772B"/>
<stop offset="1" stop-color="#FF4444"/>
</linearGradient>
<linearGradient id="paint1_linear" x1="106.404" y1="127.338" x2="106.404" y2="141.914" gradientUnits="userSpaceOnUse">
<stop stop-color="#FAA913"/>
<stop offset="0.5" stop-color="#FD772B"/>
<stop offset="1" stop-color="#FF4444"/>
</linearGradient>
<linearGradient id="paint2_linear" x1="167.204" y1="143.176" x2="167.204" y2="155.112" gradientUnits="userSpaceOnUse">
<stop stop-color="#FAA913"/>
<stop offset="0.5" stop-color="#FD772B"/>
<stop offset="1" stop-color="#FF4444"/>
</linearGradient>
<linearGradient id="paint3_linear" x1="95.4313" y1="88.7815" x2="95.4313" y2="100.717" gradientUnits="userSpaceOnUse">
<stop stop-color="#FAA913"/>
<stop offset="0.5" stop-color="#FD772B"/>
<stop offset="1" stop-color="#FF4444"/>
</linearGradient>
<linearGradient id="paint4_linear" x1="125.518" y1="50.1958" x2="125.518" y2="64.7721" gradientUnits="userSpaceOnUse">
<stop stop-color="#FAA913"/>
<stop offset="0.5" stop-color="#FD772B"/>
<stop offset="1" stop-color="#FF4444"/>
</linearGradient>
<linearGradient id="paint5_linear" x1="82.3433" y1="163.113" x2="82.3433" y2="173.606" gradientUnits="userSpaceOnUse">
<stop stop-color="#FAA913"/>
<stop offset="0.5" stop-color="#FD772B"/>
<stop offset="1" stop-color="#FF4444"/>
</linearGradient>
<linearGradient id="paint6_linear" x1="88.1619" y1="155.046" x2="88.1619" y2="172.169" gradientUnits="userSpaceOnUse">
<stop stop-color="#FAA913"/>
<stop offset="0.5" stop-color="#FD772B"/>
<stop offset="1" stop-color="#FF4444"/>
</linearGradient>
<linearGradient id="paint7_linear" x1="94.1508" y1="161.058" x2="94.1508" y2="172.183" gradientUnits="userSpaceOnUse">
<stop stop-color="#FAA913"/>
<stop offset="0.5" stop-color="#FD772B"/>
<stop offset="1" stop-color="#FF4444"/>
</linearGradient>
</defs>
</svg>
