<svg width="292" height="219" viewBox="0 0 292 219" fill="none" xmlns="http://www.w3.org/2000/svg">
<path opacity="0.24" d="M146.923 175.412C194.878 175.412 233.754 147.201 233.754 112.401C233.754 77.6012 194.878 49.3903 146.923 49.3903C98.9681 49.3903 60.0927 77.6012 60.0927 112.401C60.0927 147.201 98.9681 175.412 146.923 175.412Z" fill="#E6E6E6"/>
<path d="M131.457 72.4585C131.457 72.4585 151.337 69.5403 182.686 27.5695L193.68 114.801C193.68 114.801 159.895 93.3819 136.863 101.903C136.863 101.903 124.388 88.5523 131.457 72.4585Z" fill="url(#paint0_linear)"/>
<path d="M200.683 115.199C214.373 113.811 223.39 92.1672 220.823 66.8568C218.257 41.5464 205.079 22.1536 191.389 23.5417C177.7 24.9298 168.683 46.5732 171.249 71.8836C173.816 97.194 186.994 116.587 200.683 115.199Z" fill="#24285B"/>
<path d="M112.868 104.325C112.868 104.325 110.519 115.757 121.929 117.632C133.339 119.507 146.559 148.536 146.559 148.536L160.653 139.934C160.653 139.934 136.425 107.294 143.721 100.24L112.868 104.325Z" fill="url(#paint1_linear)"/>
<path opacity="0.46" d="M112.868 104.325C112.868 104.325 110.519 115.757 121.929 117.632C133.339 119.507 146.559 148.536 146.559 148.536L160.653 139.934C160.653 139.934 136.425 107.294 143.721 100.24L112.868 104.325Z" fill="white"/>
<path d="M175.536 92.0541L197.78 84.5763L195.132 58.5242L170.794 60.1C170.794 60.1 168.839 74.472 175.536 92.0541Z" fill="url(#paint2_linear)"/>
<path opacity="0.18" d="M175.536 92.0541L197.78 84.5763L195.132 58.5242L170.794 60.1C170.794 60.1 168.839 74.472 175.536 92.0541Z" fill="black"/>
<path d="M197.78 84.5846C201.673 84.1899 204.237 78.0368 203.507 70.8414C202.777 63.6459 199.031 58.1328 195.138 58.5275C191.246 58.9222 188.682 65.0752 189.412 72.2707C190.141 79.4661 193.888 84.9792 197.78 84.5846Z" fill="url(#paint3_linear)"/>
<path d="M133.813 71.8676C133.813 71.8676 100.984 79.6592 99.1454 86.5753C97.3069 93.4914 103.07 109.191 111.227 108.907C119.383 108.622 136.265 101.225 136.265 101.225C136.265 101.225 127.86 85.1599 133.813 71.8676Z" fill="#24285B"/>
<path d="M70.7952 177.973L121.944 136.797L137.819 149.44L110.876 190.667L70.7952 177.973Z" fill="#F4A28C"/>
<path d="M146.135 113.547C148.24 113.369 150.346 113.872 152.143 114.98C153.941 116.088 155.336 117.744 156.123 119.704C159.041 126.715 158.932 131.289 151.242 133.821C143.553 136.352 141.7 115.794 141.7 115.794L146.135 113.547Z" fill="#D68676"/>
<path d="M138.92 100.882L145.18 114.371L151.789 110.636C152.578 110.2 153.178 109.488 153.473 108.637C153.768 107.785 153.737 106.855 153.387 106.025L150.863 99.9478C150.863 99.9478 143.721 98.7951 138.92 100.882Z" fill="#24285B"/>
<path d="M120.674 139.854C120.674 139.854 123.06 117.289 131.194 114.59C139.329 111.891 149.251 117.508 144.494 123.549C139.737 129.589 133.682 122.987 133.682 122.987L143.064 141.736L137.819 149.44L120.674 139.854Z" fill="#F4A28C"/>
<path d="M143.546 104.639C144.063 104.259 144.688 104.054 145.329 104.054C145.971 104.054 146.596 104.259 147.113 104.639C148.353 105.536 149.717 107.075 149.119 109.242C148.091 112.97 141.576 117.902 138.906 115.896C136.659 114.203 139.92 107.309 143.546 104.639Z" fill="#F4A28C"/>
<path d="M65.112 176.536L112.664 192.184L136.265 157.662L111.307 140.029L65.112 176.536Z" fill="#FD772B"/>
<path opacity="0.06" d="M127.598 151.534L93.7613 185.961L112.664 192.184L136.265 157.662L127.598 151.534Z" fill="black"/>
<defs>
<linearGradient id="paint0_linear" x1="161.484" y1="27.5695" x2="161.484" y2="114.801" gradientUnits="userSpaceOnUse">
<stop stop-color="#FAA913"/>
<stop offset="0.5" stop-color="#FD772B"/>
<stop offset="1" stop-color="#FF4444"/>
</linearGradient>
<linearGradient id="paint1_linear" x1="136.661" y1="100.24" x2="136.661" y2="148.536" gradientUnits="userSpaceOnUse">
<stop stop-color="#FAA913"/>
<stop offset="0.5" stop-color="#FD772B"/>
<stop offset="1" stop-color="#FF4444"/>
</linearGradient>
<linearGradient id="paint2_linear" x1="184.154" y1="58.5242" x2="184.154" y2="92.0541" gradientUnits="userSpaceOnUse">
<stop stop-color="#FAA913"/>
<stop offset="0.5" stop-color="#FD772B"/>
<stop offset="1" stop-color="#FF4444"/>
</linearGradient>
<linearGradient id="paint3_linear" x1="195.138" y1="58.5275" x2="197.78" y2="84.5846" gradientUnits="userSpaceOnUse">
<stop stop-color="#FAA913"/>
<stop offset="0.5" stop-color="#FD772B"/>
<stop offset="1" stop-color="#FF4444"/>
</linearGradient>
</defs>
</svg>
